<?xml version="1.0" encoding="utf-8"?>
<!-- Generator: Adobe Illustrator 16.0.0, SVG Export Plug-In . SVG Version: 6.00 Build 0)  -->
<!DOCTYPE svg PUBLIC "-//W3C//DTD SVG 1.1//EN" "http://www.w3.org/Graphics/SVG/1.1/DTD/svg11.dtd">
<svg version="1.1" id="Capa_1" xmlns="http://www.w3.org/2000/svg" xmlns:xlink="http://www.w3.org/1999/xlink" x="0px" y="0px"
	 width="500px" height="500px" viewBox="0 0 500 500" enable-background="new 0 0 500 500" xml:space="preserve">
<g>
	<g>
		<path fill="#DDF0F5" d="M431.334,464.156c31.278-39.445,49.966-89.324,49.966-143.572c0-127.731-103.557-231.278-231.3-231.278
			S18.7,192.853,18.7,320.584c0,54.248,18.688,104.127,49.966,143.572H431.334z"/>
		<g>
			<g>
				<g>
					<g>
						<g>
							<g>
								<rect x="383.835" y="411.699" fill="#F6A11A" width="40.949" height="52.578"/>
								<polygon fill="#DE800A" points="424.784,464.277 424.784,411.699 448.828,411.699 448.453,464.277 								"/>
							</g>
							<rect x="399.13" y="411.699" fill="#FCC667" width="6.119" height="11.967"/>
						</g>
						<g>
							<polygon fill="#DE800A" points="364.935,464.277 364.935,411.699 383.835,411.699 383.54,464.277 							"/>
						</g>
						<g>
							<g>
								<rect x="355.741" y="370.686" fill="#DE800A" width="30.338" height="41.014"/>
								<polygon fill="#F6A11A" points="359.283,411.699 359.283,370.686 335.38,370.686 335.697,411.699 								"/>
							</g>
							<rect x="369.374" y="370.686" fill="#FCC667" width="4.773" height="9.334"/>
						</g>
						<g>
							<rect x="406.247" y="370.686" fill="#F6A11A" width="30.338" height="41.014"/>
							<polygon fill="#F6A11A" points="406.247,411.699 406.247,370.686 385.886,370.686 386.204,411.699 							"/>
						</g>
						<rect x="418.386" y="370.686" fill="#DE800A" width="18.199" height="41.014"/>
					</g>
					<rect x="323.511" y="411.699" fill="#F6A11A" width="42.42" height="52.578"/>
					<rect x="341.661" y="411.699" fill="#FCC667" width="6.119" height="11.967"/>
				</g>
				<rect x="399.536" y="370.686" fill="#FCC667" width="4.773" height="9.334"/>
				<g>
					<g>
						<rect x="378.276" y="330.355" fill="#DE800A" width="30.338" height="41.014"/>
						<polygon fill="#F6A11A" points="381.819,371.369 381.819,330.355 357.915,330.355 358.233,371.369 						"/>
					</g>
					<rect x="391.909" y="330.355" fill="#FCC667" width="4.773" height="9.334"/>
				</g>
			</g>
		</g>
		<circle fill="#DDF0F5" cx="416.78" cy="89.306" r="19.987"/>
	</g>
	<g>
		<g>
			<g>
				<path fill="#4E4E4E" d="M339.159,77.718c-3.061-18.133-30.987-26.318-30.439-14.484l-128.02,0.75
					c-8.867,0.052-16.057,8.028-16.064,17.824l-0.266,336.657c-0.008,10.148,7.307,18.447,16.344,18.523l130.688,1.121
					c0.811,1.703,2.329,3.254,4.721,4.547c14.988,0.32,22.176-7.08,24.803-15.447c0.854-2.246,1.32-4.729,1.299-7.344
					C341.7,415.482,340.106,81.97,339.159,77.718z"/>
				<g>
					<g>
						<path fill="#4E4E4E" d="M314.726,442.711l-150.01-0.967c-9.361-0.061-16.933-8.584-16.916-19.025l0.563-346.221
							c0.017-10.069,7.469-18.249,16.648-18.278l147.096-0.479c9.253-0.03,16.819,8.138,16.896,18.253l2.666,347.823
							C331.75,434.307,324.162,442.771,314.726,442.711z"/>
						<path fill="#0C0D0D" d="M316.796,440.191c-0.623,0.084-1.261,0.123-1.895,0.119l-149.965-1.135
							c-8.043-0.061-14.618-7.531-14.604-16.646l0.519-345.841c0.013-8.79,6.483-15.965,14.374-15.999l147.085-0.64
							c0.23-0.001,0.463,0.004,0.691,0.015c3.701,0.172,7.16,1.857,9.746,4.743c2.643,2.948,4.112,6.856,4.144,11.011l2.631,348.174
							C329.584,432.244,324.133,439.209,316.796,440.191z"/>
						<polygon fill="#FFFFFF" points="321.733,77.568 323.842,424.531 155.321,423.52 155.752,77.568 						"/>
					</g>
				</g>
			</g>
		</g>
		<g>
			<g>
				<polygon fill="#E63718" points="206.691,150.167 225.31,150.015 285.148,76.339 266.446,76.494 				"/>
				<polygon fill="#F1E3E1" points="225.31,150.015 243.916,149.864 303.851,76.187 285.148,76.339 				"/>
				<polygon fill="#E63718" points="243.916,149.864 262.535,149.711 322.54,76.033 303.851,76.187 				"/>
				<polygon fill="#F1E3E1" points="188.086,150.32 206.691,150.167 266.446,76.494 247.758,76.647 				"/>
				<polygon fill="#F1E3E1" points="150.863,150.624 169.468,150.472 229.057,76.8 210.369,76.954 				"/>
				<polygon fill="#E63718" points="96.857,151.065 113.643,150.927 172.981,77.26 156.135,77.398 				"/>
				<polygon fill="#F1E3E1" points="113.643,150.927 132.246,150.776 191.669,77.107 172.981,77.26 				"/>
				<polygon fill="#E63718" points="169.468,150.472 188.086,150.32 247.758,76.647 229.057,76.8 				"/>
				<polygon fill="#E63718" points="132.246,150.776 150.863,150.624 210.369,76.954 191.669,77.107 				"/>
			</g>
			<path fill="#D72F16" d="M243.916,149.864l-0.007,11.216c-0.007,11.884,18.586,11.732,18.607-0.152l0.02-11.216L243.916,149.864z"
				/>
			<path fill="#F1C5BD" d="M225.31,150.015l0.006,11.216c0.006,11.884,18.586,11.732,18.593-0.151l0.007-11.216L225.31,150.015z"/>
			<path fill="#D72F16" d="M206.691,150.167l0.019,11.215c0.02,11.885,18.612,11.732,18.606-0.151l-0.006-11.216L206.691,150.167z"
				/>
			<path fill="#F1C5BD" d="M188.086,150.32l0.031,11.215c0.033,11.883,18.612,11.732,18.592-0.152l-0.019-11.215L188.086,150.32z"/>
			<path fill="#D72F16" d="M169.468,150.472l0.044,11.215c0.046,11.883,18.638,11.73,18.605-0.152l-0.031-11.215L169.468,150.472z"
				/>
			<path fill="#F1C5BD" d="M150.863,150.624l0.057,11.215c0.06,11.883,18.638,11.731,18.592-0.151l-0.044-11.215L150.863,150.624z"
				/>
			<path fill="#D72F16" d="M132.246,150.776l0.069,11.214c0.073,11.883,18.665,11.731,18.605-0.151l-0.057-11.215L132.246,150.776z"
				/>
			<path fill="#F1C5BD" d="M113.643,150.927l0.081,11.215c0.086,11.883,18.664,11.73,18.591-0.152l-0.069-11.214L113.643,150.927z"
				/>
			<path fill="#D72F16" d="M96.857,151.065l0.093,11.214c0.098,11.883,16.86,11.746,16.774-0.137l-0.081-11.215L96.857,151.065z"/>
			<polygon fill="#F1E3E1" points="262.535,149.711 261.076,149.914 322.621,149.369 322.54,76.033 			"/>
		</g>
		<g>
			<polygon fill="#66C4D6" points="312.667,321.91 165.279,321.762 165.279,319.813 312.667,319.969 			"/>
			<polygon fill="#66C4D6" points="312.667,376.402 165.279,376.252 165.279,374.305 312.667,374.461 			"/>
			<polygon fill="#66C4D6" points="312.667,266.172 165.279,265.986 165.279,264.381 312.667,264.572 			"/>
			<g>
				<g>
					<path fill="#66C4D6" d="M299.499,195.494l-120.803-0.707c-4.349-0.025-7.888-3.652-7.888-8.086
						c0-4.432,3.539-8.016,7.888-7.986l120.803,0.794c4.301,0.028,7.798,3.636,7.798,8.042
						C307.297,191.955,303.8,195.519,299.499,195.494z M178.696,179.248c-4.06-0.026-7.364,3.318-7.364,7.457
						c0,4.138,3.304,7.523,7.364,7.548l120.803,0.71c4.015,0.024,7.28-3.303,7.28-7.416s-3.266-7.48-7.28-7.507L178.696,179.248z"/>
				</g>
				<path fill="#66C4D6" d="M299.5,179.774l-12.569-0.083v15.464l12.569,0.073c4.164,0.025,7.538-3.414,7.538-7.68
					C307.038,183.282,303.664,179.801,299.5,179.774z"/>
				<g>
					<path fill="#468AC9" d="M294.844,189.715c-1.044-0.007-2.025-0.429-2.764-1.189c-1.523-1.571-1.523-4.11,0-5.661
						c0.738-0.752,1.72-1.162,2.764-1.155c1.043,0.007,2.024,0.429,2.762,1.19l0,0c1.523,1.57,1.523,4.109,0,5.66
						C296.868,189.311,295.887,189.722,294.844,189.715z M294.844,182.675c-0.793-0.006-1.537,0.307-2.097,0.876
						c-1.156,1.177-1.156,3.104,0,4.296c0.56,0.576,1.304,0.897,2.097,0.902c0.791,0.005,1.535-0.307,2.096-0.877
						c1.155-1.177,1.155-3.104,0-4.295C296.379,183.001,295.635,182.68,294.844,182.675z"/>
					<polygon fill="#468AC9" points="299.9,191.634 296.939,188.556 297.605,187.876 300.566,190.955 					"/>
					<path fill="#468AC9" d="M301.223,192.314L301.223,192.314c-0.332,0.337-0.868,0.334-1.199-0.008l-2.481-2.557l1.2-1.222
						l2.48,2.558C301.553,191.426,301.553,191.976,301.223,192.314z"/>
				</g>
			</g>
			<polygon fill="#66C4D6" points="212.147,257.445 170.809,257.252 170.809,215.035 212.147,215.276 			"/>
			<polygon fill="#66C4D6" points="260.261,257.674 219.028,257.479 219.028,215.316 260.261,215.557 			"/>
			<polygon fill="#66C4D6" points="307.18,257.895 266.05,257.701 266.05,215.591 307.18,215.832 			"/>
			<polygon fill="#66C4D6" points="212.147,314.059 170.809,313.926 170.809,271.709 212.147,271.889 			"/>
			<polygon fill="#66C4D6" points="260.261,314.213 219.028,314.08 219.028,271.918 260.261,272.098 			"/>
			<polygon fill="#66C4D6" points="307.18,314.363 266.05,314.23 266.05,272.121 307.18,272.301 			"/>
			<polygon fill="#66C4D6" points="212.147,369.684 170.809,369.611 170.809,327.395 212.147,327.514 			"/>
			<polygon fill="#66C4D6" points="260.261,369.768 219.028,369.695 219.028,327.533 260.261,327.65 			"/>
			<polygon fill="#66C4D6" points="307.18,369.848 266.05,369.777 266.05,327.668 307.18,327.785 			"/>
			<g>
				<path fill="#0BACB0" d="M202.805,246.998l-0.921-0.281c0.02-0.068,1.616-7.057,1.744-9.716c0.153-3.201-0.827-6.036-2.835-8.2
					c-2.296-2.475-5.792-3.906-9.593-3.928c-3.716-0.02-6.95,1.242-9.105,3.557c-1.981,2.127-2.931,5.046-2.745,8.44
					c0.147,2.684,1.491,9.437,1.505,9.505l-0.942,0.191c-0.056-0.281-1.371-6.892-1.522-9.646c-0.201-3.671,0.838-6.842,3.006-9.168
					c2.339-2.511,5.821-3.881,9.804-3.859c4.062,0.023,7.812,1.566,10.288,4.235c2.193,2.364,3.265,5.45,3.099,8.927
					C204.454,239.83,202.886,246.717,202.805,246.998z"/>
				<g>
					<g>
						<path fill="#0BACB0" d="M179.971,242.01l1.256,6.834c0.136,0.738,0.791,1.245,1.507,1.198l-1.766-9.7
							C180.273,240.552,179.834,241.266,179.971,242.01z"/>
						<path fill="#0BACB0" d="M182.903,250.023l2.7-0.504l-1.785-9.717l-2.701,0.503c-0.051,0.009-0.102,0.022-0.15,0.037l1.766,9.7
							C182.79,250.04,182.846,250.034,182.903,250.023z"/>
					</g>
					<g>
						<path fill="#FFFFFF" d="M186.319,250.477L186.319,250.477c-0.825,0.153-1.619-0.404-1.773-1.247l-1.612-8.777
							c-0.155-0.842,0.388-1.65,1.213-1.803l0,0c0.825-0.154,1.619,0.404,1.774,1.246l1.612,8.777
							C187.688,249.515,187.144,250.323,186.319,250.477z"/>
					</g>
				</g>
				<g>
					<g>
						<path fill="#0BACB0" d="M202.849,242.225l-1.422,6.782c-0.154,0.732-0.82,1.216-1.535,1.145l2.003-9.629
							C202.583,240.757,203.004,241.487,202.849,242.225z"/>
						<path fill="#0BACB0" d="M199.724,250.125l-2.685-0.599l2.022-9.646l2.685,0.6c0.051,0.012,0.101,0.026,0.149,0.043
							l-2.003,9.629C199.837,250.146,199.78,250.138,199.724,250.125z"/>
					</g>
					<g>
						<path fill="#FFFFFF" d="M196.3,250.458L196.3,250.458c0.82,0.183,1.627-0.348,1.802-1.184l1.827-8.711
							c0.175-0.837-0.347-1.664-1.167-1.847l0,0c-0.82-0.183-1.627,0.347-1.802,1.183l-1.827,8.713
							C194.958,249.449,195.48,250.275,196.3,250.458z"/>
					</g>
				</g>
			</g>
			<g>
				<polygon fill="#FFFFFF" points="244.862,230.372 243.892,232.138 226.191,232.042 226.191,247.523 253.111,247.658 
					253.111,232.375 252.046,230.411 				"/>
				<polygon fill="#FFFFFF" points="242.759,232.912 236.552,232.878 236.552,230.326 242.759,230.361 				"/>
				<polygon fill="#FFFFFF" points="234.483,232.867 228.273,232.833 228.273,230.281 234.483,230.315 				"/>
				<polygon fill="#0BACB0" points="253.111,244.658 226.191,244.521 226.191,235.587 253.111,235.73 				"/>
				<path fill="#0BACB0" d="M251.24,240.185c0,3.482-2.762,6.292-6.17,6.275c-3.408-0.018-6.172-2.855-6.172-6.34
					s2.764-6.293,6.172-6.275C248.478,233.864,251.24,236.702,251.24,240.185z"/>
				<path fill="#FFFFFF" d="M249.854,240.177c0,2.701-2.141,4.879-4.783,4.865c-2.643-0.014-4.785-2.214-4.785-4.914
					c0-2.701,2.142-4.88,4.785-4.865C247.712,235.277,249.854,237.477,249.854,240.177z"/>
				<path fill="#468AC9" d="M247.358,240.165c0,1.292-1.024,2.333-2.288,2.327c-1.264-0.007-2.288-1.059-2.288-2.352
					c0-1.291,1.024-2.333,2.288-2.326S247.358,238.873,247.358,240.165z"/>
			</g>
			<g>
				<path fill="#0BACB0" d="M207.485,360.879c-0.211-4.248-9.711-6.922-9.711-6.922s-8.696-9.57-12.333-14.365
					c-6.19,2.414-7.666,5.406-6.744,10.615c3.017-2.561,8.164,2.148,14.419,10.643L207.485,360.879z"/>
				<path fill="#0BACB0" d="M178.697,350.207l2.064,11.074l0.996,0.002c0.276-4.984,0.897-10.631,4.195-8.824
					C185.952,348.016,178.697,347.998,178.697,350.207z"/>
			</g>
			<g>
				<g>
					<path fill="#FFFFFF" d="M194.277,278.35c-0.189-0.551-0.305-1.129-0.361-1.717l-0.462-0.002
						c-0.013,0.527-0.128,1.084-0.208,1.381c-0.324,1.213-1.234,2.125-2.314,2.18c-1.08-0.063-1.991-0.982-2.315-2.199
						c-0.079-0.297-0.194-0.854-0.208-1.383l-0.462-0.002c-0.057,0.588-0.172,1.166-0.361,1.715
						c-0.466,1.354-1.265,2.492-2.208,3.432l0.737,6.922l4.616,0.018l0.403,0.002l4.614,0.018l0.737-6.914
						C195.541,280.852,194.743,279.707,194.277,278.35z"/>
					<path fill="#FFFFFF" d="M201.67,306.846c-2.053,2.104-18.93,2.258-21.484-0.072c1.152-6.547,2.661-12.869,5.925-18.098
						l9.639,0.037C198.67,293.248,200.337,299.781,201.67,306.846z"/>
				</g>
				<path fill="#468AC9" d="M191.768,290.352c-3.903-0.014-5.751-1.686-5.828-1.756c-0.059-0.055-0.063-0.148-0.011-0.207
					c0.053-0.061,0.145-0.064,0.203-0.01c0.019,0.016,1.852,1.664,5.636,1.68c0.002,0,0.003,0,0.005,0
					c3.369,0.012,3.834-1.375,3.838-1.389c0.023-0.076,0.104-0.121,0.179-0.096c0.076,0.023,0.119,0.104,0.097,0.18
					c-0.019,0.066-0.501,1.609-4.113,1.598C191.772,290.352,191.77,290.352,191.768,290.352z"/>
				<path fill="#468AC9" d="M191.373,293.008c-0.091,0-0.203-0.039-0.313-0.178c-0.705-0.883,1.054-2.545,1.257-2.732l0.315-0.289
					l-0.077,0.426c-0.111,0.611-0.516,2.613-1.098,2.764C191.432,293.004,191.403,293.008,191.373,293.008z M192.178,290.646
					c-0.546,0.584-1.264,1.537-0.895,1.998c0.028,0.035,0.069,0.078,0.102,0.068C191.625,292.65,191.957,291.666,192.178,290.646z"
					/>
				<path fill="#468AC9" d="M192.261,290.563l0.008-0.359c0.001-0.088,0.058-2.156,0.852-2.846c0.212-0.186,0.457-0.26,0.729-0.223
					c0.312,0.043,0.427,0.207,0.469,0.338c0.246,0.756-1.461,2.498-1.807,2.84L192.261,290.563z M193.72,287.42
					c-0.151-0.002-0.287,0.053-0.411,0.16c-0.509,0.443-0.676,1.631-0.729,2.248c0.722-0.762,1.597-1.863,1.467-2.264
					c-0.009-0.027-0.036-0.111-0.234-0.139C193.781,287.422,193.75,287.42,193.72,287.42z"/>
				<path fill="#468AC9" d="M195.144,292.709c-0.053,0-0.104-0.031-0.129-0.082c-0.848-1.777-2.62-2.273-2.638-2.277
					c-0.077-0.021-0.123-0.102-0.103-0.18s0.098-0.125,0.175-0.104c0.078,0.02,1.919,0.535,2.824,2.432
					c0.035,0.074,0.005,0.162-0.066,0.197C195.187,292.705,195.165,292.709,195.144,292.709z"/>
			</g>
			<g>
				<path fill="#FFFFFF" d="M234.896,282.902c0,0,2.9,0.975,7.147-0.119c2.72,3.361-2.071,4.965-5.063,4.236
					C233.989,286.289,234.896,282.902,234.896,282.902z"/>
				<path fill="#0BACB0" d="M242.043,282.783c-0.234,0.914-0.705,1.717-1.575,2.229c-2.036,1.199-4.664-0.086-5.572-2.109
					c-1.611,0.209-3.023,0.525-4.035,0.898v23.186l16.012,0.055v-23.176C245.441,283.305,243.772,282.961,242.043,282.783z"/>
				<polygon fill="#0BACB0" points="230.861,283.801 223.962,289.23 228.5,295.309 235.253,290.189 				"/>
				<polygon fill="#0BACB0" points="246.925,283.865 253.823,289.348 249.292,295.387 242.536,290.219 				"/>
			</g>
			<g>
				<g>
					<path fill="#0BACB0" d="M271.305,303.266l-0.318-0.002v1.381c0,0,17.236,1.252,24.021,0.084
						c6.781-1.17,7.245-3.451,7.245-3.451v-1.42h-0.232L271.305,303.266z"/>
					<path fill="#FFFFFF" d="M301.982,300.529c-1.776,2.348-7.162,3.053-13.903,3.141c-2.776,0.041-5.781-0.025-8.86-0.125
						c-2.617-0.088-5.291-0.195-7.914-0.279c-0.261-1.971,0.424-5.637,0.962-7.654c0.174-0.654,0.333-1.139,0.438-1.334l0.1-0.037
						c0.899,1.244,3.104,2,4.407,1.977c2.135-0.043,4.538-1.531,3.85-3.332c-0.114-0.246-0.2-0.467-0.26-0.668
						c-0.548-1.789,0.953-1.797,3.201-0.398c3.985,2.539,7.526,3.453,10.385,3.916c0.593,0.096,1.153,0.172,1.686,0.24
						C300.088,296.492,302.343,296.516,301.982,300.529z"/>
					<path fill="#0BACB0" d="M301.758,300.527c-1.777,2.35-7.163,3.053-13.904,3.143c-0.196-0.99-0.365-3.594,3.104-4.23
						c2.634-0.48,4.129-2.205,4.89-3.467C299.862,296.492,302.117,296.514,301.758,300.527z"/>
					<path fill="#0BACB0" d="M278.993,303.545c-2.618-0.088-5.291-0.195-7.915-0.279c-0.26-1.971,0.425-5.637,0.963-7.656
						C274.277,296.406,278.245,298.508,278.993,303.545z"/>
					<path fill="#0BACB0" d="M294.388,295.734c-0.511,0.811-1.3,0.836-2.056,0.832c-6.815-0.477-10.271-3.191-11.53-4.35
						c-0.548-1.789,0.953-1.797,3.201-0.398C287.988,294.357,291.529,295.271,294.388,295.734z"/>
				</g>
				<path fill="#D4E7F7" d="M286.291,303.928c-3.496-0.012-6.994-0.209-9.854-0.371c-2.515-0.143-4.501-0.256-5.312-0.158
					l-0.131,0.018l-0.032-0.27l0.131-0.016c0.835-0.1,2.831,0.012,5.357,0.156c8.005,0.451,22.894,1.293,25.454-3.494l0.063-0.119
					l0.231,0.131l-0.063,0.117C300.371,303.223,293.338,303.953,286.291,303.928z"/>
			</g>
			<g>
				<polygon fill="#0BACB0" points="291.324,250.661 282.66,250.618 282.66,223.659 291.324,223.708 				"/>
				<g>
					<path fill="#FFFFFF" d="M294.285,236.794c0,4.329-3.429,7.821-7.659,7.8c-4.231-0.021-7.663-3.55-7.663-7.88
						c0-4.331,3.432-7.822,7.663-7.799C290.856,228.938,294.285,232.466,294.285,236.794z"/>
					<path fill="#0BACB0" d="M292.793,236.787c0,3.485-2.761,6.297-6.167,6.279c-3.407-0.018-6.169-2.857-6.169-6.344
						s2.762-6.297,6.169-6.279C290.032,230.462,292.793,233.302,292.793,236.787z"/>
					<polygon fill="#FFFFFF" points="280.379,233.25 279.396,232.539 280.565,230.844 281.547,231.555 					"/>
					
						<rect x="278.418" y="236.76" transform="matrix(0.9915 -0.1303 0.1303 0.9915 -28.6165 38.3986)" fill="#FFFFFF" width="1.199" height="2.08"/>
					<polygon fill="#FFFFFF" points="292.819,233.274 293.81,232.588 292.666,230.865 291.676,231.55 					"/>
					<polygon fill="#FFFFFF" points="293.472,238.917 294.66,239.085 294.93,237.027 293.741,236.858 					"/>
					<path fill="#FFFFFF" d="M286.642,237.093l-3.011-1.604c-0.141-0.075-0.196-0.253-0.123-0.396
						c0.072-0.145,0.246-0.201,0.387-0.125l2.716,1.447l3.825-2.488c0.134-0.088,0.312-0.047,0.396,0.09
						c0.086,0.138,0.047,0.32-0.086,0.406L286.642,237.093z"/>
				</g>
			</g>
			<g>
				<path fill="#0BACB0" d="M224.824,355.16c1.434,0.451,3.494,0.813,5.846,1.07c3.867,0.426,8.531,0.58,12.527,0.418
					c3.948-0.156,7.245-0.621,8.486-1.43c0,0,2.636-15.982-12.896-16.375c-0.174-0.006-0.352-0.008-0.529-0.008
					C222.127,338.793,224.824,355.16,224.824,355.16z"/>
				<path fill="#FFFFFF" d="M230.67,356.23c3.867,0.426,8.531,0.58,12.527,0.418c2.193-14.516-4.072-17.648-4.409-17.805
					c-0.009-0.006-0.013-0.008-0.013-0.008h-0.516C230.075,343.486,230.475,353.912,230.67,356.23z"/>
				<path fill="#0BACB0" d="M250.005,355.826c0,0-4.393,7.457-24.781,5.729c-8.728-0.738-0.4-6.393-0.4-6.393
					C230.319,356.514,240.9,357.154,250.005,355.826z"/>
			</g>
			<g>
				<g>
					<path fill="#0BACB0" d="M281.73,343.314l9.394,0.023c5.345,0.014,9.809,4.414,9.776,9.885
						c-0.013,2.182-0.694,4.117-2.338,5.129l-24.766-0.051c-1.564-0.746-2.168-3.342-1.752-6.447
						C272.705,346.932,276.873,343.303,281.73,343.314z"/>
					<path fill="#0BACB0" d="M283.152,343.572l0.008-0.084c0.152-1.852,1.717-3.297,3.561-3.293
						c1.843,0.004,3.407,1.459,3.561,3.311l0.006,0.084l1.213,0.004l-0.016-0.189c-0.205-2.486-2.299-4.439-4.764-4.445
						c-2.467-0.006-4.56,1.936-4.766,4.422l-0.016,0.189L283.152,343.572z"/>
				</g>
				<polygon fill="#FFFFFF" points="285.582,358.324 283.259,358.32 283.259,349.023 285.582,349.027 				"/>
				<polygon fill="#FFFFFF" points="290.182,358.334 287.858,358.33 287.858,349.033 290.182,349.039 				"/>
			</g>
			<rect x="155.321" y="406.025" fill="#66C4D6" width="168.521" height="18.506"/>
			<polygon fill="#FFFFFF" points="247.794,420.881 237.64,420.881 237.64,413.545 242.717,409.676 247.794,413.545 			"/>
			<rect x="175.089" y="411.928" fill="#FFFFFF" width="12.581" height="6.701"/>
			<rect x="299.143" y="411.928" fill="#FFFFFF" width="12.58" height="6.701"/>
		</g>
	</g>
	<rect x="179.439" y="437.887" fill="#0C0D0D" width="174.154" height="13.629"/>
	<rect x="103.411" y="437.887" fill="#4E4E4E" width="198.768" height="13.629"/>
	<rect x="63.435" y="451.516" fill="#4E4E4E" width="228.017" height="13.631"/>
	<rect x="273.647" y="451.516" fill="#0C0D0D" width="79.946" height="13.631"/>
	<g>
		<g>
			<g>
				<g>
					<path fill="#064A91" d="M176.508,309.184c-4.356,12.766-1.675,39.844-7.887,57.695c-9.64,27.701-4.852,39.912-9.25,61.275
						l10.152,0.77c9.43-41.941,30.545-101.328,33.148-114.838C205.274,300.578,180.597,298.766,176.508,309.184z"/>
					<path fill="#064A91" d="M192.505,324.799c0.421,4.975,7.193,33.586,3.298,47.246c-6.153,21.576-2.943,59.256-2.943,59.256
						l8.175-0.053c7.961-34.98,18.818-85.982,17.953-118.201C217.788,299.5,189.961,294.766,192.505,324.799z"/>
					<ellipse fill="#064A91" cx="197.3" cy="313.492" rx="21.687" ry="16.471"/>
					<g>
						<path fill="#A84C31" d="M204.249,448.777c-0.859-0.479-2.667-0.914-2.667-0.914l-1.758-7.762l9.138-42.336l-17.413-1.645
							l0.044,41.072l-1.281,4.748c0,0,5.941,8.852,7.302,8.852c1.361,0,6.623,0.105,7.455,0.105
							C205.081,450.371,205,449.193,204.249,448.777z"/>
						<polygon fill="#A84C31" points="190.312,441.941 191.55,451.324 192.111,451.324 196.253,441.57 						"/>
					</g>
					<g>
						<path fill="#A84C31" d="M170.668,448.777c-0.83-0.479-2.611-0.914-2.611-0.914l-1.28-7.762l11.642-44.244l-16.127-1.783
							l-3.566,43.119l-1.741,4.377c0,0,5.565,9.223,6.926,9.223s6.616,0.105,7.448,0.105
							C171.402,450.371,171.394,449.193,170.668,448.777z"/>
						<polygon fill="#A84C31" points="156.984,441.57 157.813,451.324 158.373,451.324 163.116,441.57 						"/>
					</g>
					<path fill="#064A91" d="M184.889,292.713c-5.442,6.504-8.056,13.063-9.057,19.287c0,0,7.067,5.41,19.77,5.459
						c6.4,0.025,19.987-1.609,23.314-5.34c-0.413-3.438-1.577-11.248-5.192-21.418C210.446,281.479,189.688,280.592,184.889,292.713
						z"/>
					<path fill="#1E64AE" d="M192.439,315.697c1.283-4.281,1.531-9.369,1.531-9.369l-13.06-1.133
						c-0.457,3.301-0.86,6.381-0.938,9.027l5.57,4.197L192.439,315.697z"/>
					<path fill="#1E64AE" d="M211.637,316.514c1.052-4.344,1.029-9.438,1.029-9.438l-13.102-0.436
						c-0.28,3.32-0.518,6.418-0.456,9.064l5.786,3.895L211.637,316.514z"/>
				</g>
				<g>
					<g>
						<path fill="#F5A58F" d="M188.542,251.949c0,0-11.266-8.295-33.638,28.758c-2.841,4.707-12.513,27.234-12.513,27.234
							l5.803,3.793l17.355-24.592C165.55,287.143,200.319,258.045,188.542,251.949z"/>
						<g>
							<g>
								<path fill="#133657" d="M137.895,324.795c-0.027-0.006-0.053-0.02-0.074-0.041c-0.063-0.061-0.065-0.162-0.004-0.225
									c0.062-0.064,6.202-6.484,5.917-10.156c-0.055-0.707-0.353-1.27-0.885-1.674c-3.662-2.781-13.029,6.926-13.124,7.023
									c-0.061,0.063-0.162,0.066-0.225,0.004c-0.063-0.061-0.066-0.16-0.005-0.225c0.393-0.41,9.661-10.008,13.546-7.057
									c0.608,0.461,0.948,1.102,1.01,1.902c0.295,3.814-5.749,10.135-6.006,10.402
									C138.005,324.793,137.947,324.807,137.895,324.795z"/>
								<path fill="#133657" d="M134.724,322.605c-0.037-0.008-0.07-0.029-0.094-0.063c-0.051-0.072-0.033-0.172,0.039-0.223
									c0.079-0.055,7.848-5.529,7.913-8.857c0.012-0.605-0.231-1.088-0.742-1.477c-3.681-2.795-15.19,5.482-15.306,5.566
									c-0.072,0.051-0.171,0.035-0.223-0.035c-0.052-0.072-0.036-0.172,0.036-0.223c0.48-0.35,11.818-8.5,15.686-5.563
									c0.59,0.449,0.882,1.033,0.868,1.736c-0.068,3.49-7.723,8.885-8.049,9.113C134.813,322.609,134.767,322.615,134.724,322.605
									z"/>
								<g>
									<polygon fill="#EB5C5C" points="119.667,312.285 86.849,351.246 98.23,358.785 125.646,316.244 									"/>
									<polygon fill="#E64648" points="127.046,317.172 98.173,358.748 116.86,371.123 142.211,327.215 									"/>
									<polygon fill="#ED6A6C" points="124.081,315.207 97.289,349.396 98.23,358.785 127.093,317.203 									"/>
								</g>
								<polygon fill="#EB5C5C" points="97.289,349.396 86.792,351.209 98.173,358.748 								"/>
							</g>
							<g>
								<g>
									<polygon fill="#52BFCE" points="131.579,320.949 104.125,365.109 116.726,371.061 138.198,324.074 									"/>
									<polygon fill="#33B8C1" points="139.747,324.805 116.663,371.029 137.351,380.799 156.537,332.734 									"/>
									<polygon fill="#73C7D5" points="136.464,323.256 114.401,361.713 116.726,371.061 139.8,324.83 									"/>
								</g>
								<polygon fill="#52BFCE" points="114.401,361.713 104.062,365.08 116.663,371.029 								"/>
							</g>
						</g>
						<path fill="#F5A58F" d="M148.442,311.344l-2.093,3.678c0,0,1.795,1.785,1.012,2.965c-2.228,2.484-7.777,1.609-8.925,0.605
							c-1.147-1.002-2.26-3.611-1.378-5.57c0.883-1.961,5.333-5.08,5.333-5.08S147.836,309.123,148.442,311.344z"/>
						<polygon fill="#F5A58F" points="202.251,260.988 186.316,261.48 189.62,234.702 202.368,234.308 						"/>
						<g>
							<g>
								<path fill="#F5A58F" d="M211.029,224.152c1.326,10.717-0.924,18.77-8.726,19.58c-7.802,0.812-18.67-8.413-19.526-16.642
									c-0.855-8.229,4.775-15.558,12.577-16.368C203.155,209.911,210.013,215.942,211.029,224.152z"/>
							</g>
							<circle fill="#F5A58F" cx="205.62" cy="227.216" r="2.911"/>
						</g>
						<path fill="#0886C3" d="M215.493,269.639c-0.068,3.006-0.303,25.094-0.303,25.094s-18.514-1.158-30.831-1.369
							c-5.628-23.545-12.556-34.729,1.266-42.558C205.172,243.46,215.578,259.158,215.493,269.639z"/>
						<path fill="#F5A58F" d="M205.386,249.499c-14.322,4.72-19.76,1.308-19.76,1.308
							C188.709,248.412,200.212,246.697,205.386,249.499z"/>
						<path fill="#133657" d="M152.194,331.275c-0.06-0.014-0.109-0.063-0.12-0.127c-0.02-0.111-2.006-11.252-5.822-16.119
							c-0.054-0.07-0.042-0.17,0.027-0.225s0.169-0.043,0.224,0.027c3.866,4.93,5.865,16.148,5.885,16.262
							c0.016,0.086-0.042,0.168-0.129,0.184C152.236,331.281,152.215,331.281,152.194,331.275z"/>
						<path fill="#133657" d="M142.688,326.838c-0.026-0.006-0.052-0.02-0.073-0.039c-0.063-0.059-6.25-6.01-6.026-12.48
							c0.003-0.088,0.077-0.156,0.165-0.154c0.088,0.004,0.157,0.076,0.154,0.166c-0.219,6.328,5.865,12.18,5.926,12.238
							c0.064,0.061,0.067,0.16,0.006,0.225C142.801,326.836,142.742,326.852,142.688,326.838z"/>
					</g>
				</g>
			</g>
		</g>
		<g>
			<path fill="#F5A58F" d="M269.848,241.833c2.512-2.691,4.133-5.188,3.646-5.65s-2.899,1.279-5.463,3.922
				C266.262,241.958,268.491,243.01,269.848,241.833z"/>
			<path fill="#F5A58F" d="M268.891,239.268l-6.146,4.955c-1.924,1.267-4.688,3.089-7.713,5.083
				c-5.905,3.893-12.995,7.395-16.461,9.68c0,0-11.49-4.186-22.745-7.031c-9-2.275-17.956-2.54-19.5,1.566
				c-3.173,8.439,6.714,12.822,22.667,15.473c0.001-0.004,0.002-0.008,0.004-0.012c8.098,1.389,17.75,2.525,20.65,0.836
				c5.341-3.111,12.967-8.006,19.755-15.09c2.184-2.279,4.137-4.395,5.663-6.104c0.265,0.109,0.534,0.19,0.805,0.231
				c0,0,4.816-0.437,5.714-3.202C272.355,242.648,269.137,239.505,268.891,239.268z"/>
			<path fill="#0886C3" d="M220.169,252.27c0,0,1.666,3.197,0.424,9.898c-0.446,2.404-1.499,4.928-3.422,7.221
				c-8.152-1.191-23.851-5.129-22.185-15.455C196.651,243.609,220.169,252.27,220.169,252.27z"/>
		</g>
		<path fill="#0886C3" d="M188.208,248.869c0,0-11.597,1.828-20.369,13.354c5.168,8.441,12.863,12.42,12.863,12.42
			s13.235-9.371,14.549-17.166C196.564,249.683,188.208,248.869,188.208,248.869z"/>
		<path fill="#0C0D0D" d="M214.545,217.787c0.114-6.604-4.916-8.236-4.916-8.236c2.204-7.533-7.82-12.354-17.326-7.521
			c0,0-3.844-2.219-10.37,1.775c-8.902,5.247-7.984,16.277-7.984,16.277c-10.29,2.973-14.344,12.215-11.35,20.503
			c0,0-11.993,4.571-9.938,16.742c2.056,12.17,12.177,13.406,12.177,13.406s2.788,18.127,16.539,16.645
			c13.752-1.48,14.392-12.689,14.392-12.689s11.249,3.939,16.164-8.486c4.915-12.428-6.994-19.309-6.994-19.309
			s7.221-3.24,7.103-11.051c-0.076-5.018-2.881-8.11-4.88-9.686C211.72,223.673,214.482,221.454,214.545,217.787z"/>
	</g>
	<g>
		<g>
			<polygon fill="#FEDA6E" points="360.911,268.154 362.737,273.918 368.649,273.918 363.867,277.48 365.694,283.246 
				360.911,279.684 356.128,283.246 357.955,277.48 353.172,273.918 359.084,273.918 			"/>
			<polygon fill="#FEDA6E" points="382.113,268.154 383.94,273.918 389.853,273.918 385.069,277.48 386.896,283.246 
				382.113,279.684 377.331,283.246 379.157,277.48 374.375,273.918 380.286,273.918 			"/>
			<polygon fill="#FEDA6E" points="403.316,268.154 405.144,273.918 411.055,273.918 406.272,277.48 408.099,283.246 
				403.316,279.684 398.533,283.246 400.36,277.48 395.577,273.918 401.489,273.918 			"/>
			<polygon fill="#FEDA6E" points="424.519,268.154 426.346,273.918 432.258,273.92 427.475,277.482 429.302,283.246 
				424.519,279.684 419.735,283.246 421.563,277.48 416.78,273.918 422.692,273.918 			"/>
		</g>
		<g>
			<g>
				<ellipse fill="#089A66" cx="393.09" cy="213.3" rx="12.535" ry="12.557"/>
				<path fill="#FFFFFF" d="M401.418,206.728c-3.148,0.979-7.085,4.537-9.308,8.432c-0.647-1.578-2.629-2.809-3.594-2.996
					l-2.335,3.15c1.848,0.501,4.077,2.379,4.677,4.557h2.83c0.808-2.436,2.963-8.298,8.49-12.113
					C401.993,207.332,401.475,206.785,401.418,206.728z"/>
			</g>
			<g>
				<path fill="#0C0D0D" d="M403.674,248.941H381.4c-0.443,0-0.836-0.289-0.972-0.715l-4.267-13.393
					c-0.1-0.313-0.045-0.654,0.147-0.92c0.191-0.266,0.498-0.422,0.824-0.422h30.807c0.326,0,0.632,0.156,0.824,0.422
					c0.191,0.266,0.246,0.606,0.146,0.92l-4.267,13.393C404.509,248.652,404.117,248.941,403.674,248.941z M382.144,246.885h20.787
					l3.611-11.339h-28.01L382.144,246.885z"/>
				<path fill="#0C0D0D" d="M401.844,254.611h-18.995c-0.563,0-1.02-0.459-1.02-1.027s0.457-1.027,1.02-1.027h18.25
					c1.242-0.031,1.804-0.898,1.894-1.785c0.08-0.793-0.219-1.601-0.747-1.831l6.413-20.24c0.135-0.426,0.528-0.715,0.972-0.715
					h6.633c0.563,0,1.02,0.46,1.02,1.027c0,0.568-0.457,1.027-1.02,1.027h-5.889l-5.878,18.787
					C406.058,251.416,403.931,254.611,401.844,254.611z"/>
				<ellipse fill="#0C0D0D" cx="386.735" cy="258.055" rx="2.345" ry="2.363"/>
				<ellipse fill="#0C0D0D" cx="398.54" cy="258.055" rx="2.345" ry="2.363"/>
				<path fill="#0C0D0D" d="M393.091,248.941c-0.563,0-1.021-0.461-1.021-1.028v-13.394c0-0.568,0.457-1.027,1.021-1.027
					c0.563,0,1.02,0.459,1.02,1.027v13.394C394.11,248.48,393.653,248.941,393.091,248.941z"/>
				<path fill="#0C0D0D" d="M387.405,248.941c-0.466,0-0.887-0.324-0.994-0.801l-3.016-13.395c-0.125-0.553,0.219-1.104,0.769-1.229
					c0.549-0.126,1.095,0.221,1.22,0.774l3.017,13.394c0.125,0.554-0.22,1.104-0.769,1.229
					C387.556,248.932,387.479,248.941,387.405,248.941z"/>
				<path fill="#0C0D0D" d="M398.54,248.941c-0.049,0-0.098-0.004-0.147-0.012c-0.558-0.082-0.943-0.604-0.862-1.164l1.934-13.395
					c0.081-0.562,0.598-0.951,1.156-0.869c0.557,0.082,0.943,0.604,0.861,1.165l-1.934,13.394
					C399.475,248.572,399.039,248.941,398.54,248.941z"/>
				<path fill="#0C0D0D" d="M405.808,242.326h-26.515c-0.563,0-1.02-0.459-1.02-1.027c0-0.567,0.456-1.027,1.02-1.027h26.515
					c0.563,0,1.02,0.46,1.02,1.027C406.827,241.867,406.37,242.326,405.808,242.326z"/>
			</g>
		</g>
	</g>
	<g>
		<g>
			<path fill="#FFFFFF" d="M130.538,244.363c-7.271-0.057-21.608-0.127-48.211-0.127c-4.133,0-7.489-3.35-7.489-7.482v-12.704
				c0-4.132,3.35-7.482,7.483-7.482h47.4c4.133,0,7.483,3.351,7.483,7.482v13.692C137.205,241.419,134.216,244.392,130.538,244.363z
				"/>
			<circle fill="#B4B4B4" cx="86.114" cy="230.464" r="2.542"/>
			<circle fill="#B4B4B4" cx="99.386" cy="230.464" r="2.542"/>
			<circle fill="#B4B4B4" cx="112.658" cy="230.464" r="2.542"/>
			<circle fill="#B4B4B4" cx="125.93" cy="230.464" r="2.542"/>
		</g>
		<polygon fill="#FFFFFF" points="111.55,239.382 111.55,250.933 96.844,239.816 		"/>
	</g>
</g>
</svg>
