<?xml version="1.0" encoding="utf-8"?>
<!-- Generator: Adobe Illustrator 16.0.0, SVG Export Plug-In . SVG Version: 6.00 Build 0)  -->
<!DOCTYPE svg PUBLIC "-//W3C//DTD SVG 1.1//EN" "http://www.w3.org/Graphics/SVG/1.1/DTD/svg11.dtd">
<svg version="1.1" id="Capa_1" xmlns="http://www.w3.org/2000/svg" xmlns:xlink="http://www.w3.org/1999/xlink" x="0px" y="0px"
	 width="500px" height="500px" viewBox="0 0 500 500" enable-background="new 0 0 500 500" xml:space="preserve">
<g>
	<g>
		<path fill="#DDF0F5" d="M433.393,478.205c31.277-39.443,49.965-89.324,49.965-143.572c0-127.73-103.557-231.276-231.3-231.276
			S20.758,206.902,20.758,334.633c0,54.248,18.687,104.129,49.965,143.572H433.393z"/>
		<circle fill="#DDF0F5" cx="75.585" cy="119.822" r="16.088"/>
		<g>
			<g>
				<g>
					<g>
						<g>
							<g>
								<rect x="98.739" y="374.746" fill="#F6A11A" width="36.581" height="46.967"/>
								<polygon fill="#DE800A" points="135.32,421.713 135.32,374.746 156.798,374.746 156.463,421.713 								"/>
							</g>
							<rect x="112.403" y="374.746" fill="#FCC667" width="5.467" height="10.688"/>
						</g>
						<g>
							<polygon fill="#DE800A" points="81.856,421.713 81.856,374.746 98.739,374.746 98.476,421.713 							"/>
						</g>
						<g>
							<g>
								<rect x="73.643" y="338.107" fill="#DE800A" width="27.101" height="36.639"/>
								<polygon fill="#F6A11A" points="76.808,374.746 76.808,338.107 55.455,338.107 55.738,374.746 								"/>
							</g>
							<rect x="85.822" y="338.107" fill="#FCC667" width="4.264" height="8.339"/>
						</g>
						<g>
							<rect x="118.761" y="338.107" fill="#F6A11A" width="27.101" height="36.639"/>
							<polygon fill="#F6A11A" points="118.761,374.746 118.761,338.107 100.572,338.107 100.856,374.746 							"/>
						</g>
						<rect x="129.604" y="338.107" fill="#DE800A" width="16.257" height="36.639"/>
					</g>
					<rect x="44.852" y="374.746" fill="#F6A11A" width="37.894" height="46.967"/>
					<rect x="61.065" y="374.746" fill="#FCC667" width="5.467" height="10.688"/>
				</g>
				<rect x="112.765" y="338.107" fill="#FCC667" width="4.265" height="8.339"/>
				<g>
					<g>
						<rect x="93.774" y="302.08" fill="#DE800A" width="27.102" height="36.638"/>
						<polygon fill="#F6A11A" points="96.939,338.718 96.939,302.08 75.585,302.08 75.869,338.718 						"/>
					</g>
					<rect x="105.953" y="302.08" fill="#FCC667" width="4.265" height="8.338"/>
				</g>
			</g>
			<g>
				<g>
					<g>
						<circle fill="#4E4E4E" cx="149.063" cy="468.076" r="11.046"/>
						<circle fill="#BDBDBC" cx="149.063" cy="468.076" r="6.67"/>
						<circle fill="#4E4E4E" cx="121.953" cy="468.076" r="11.046"/>
						<circle fill="#BDBDBC" cx="121.952" cy="468.076" r="6.67"/>
						<circle fill="#4E4E4E" cx="61.691" cy="468.076" r="11.046"/>
						<circle fill="#BDBDBC" cx="61.691" cy="468.076" r="6.67"/>
						<circle fill="#4E4E4E" cx="41.337" cy="468.076" r="11.046"/>
						<circle fill="#BDBDBC" cx="41.337" cy="468.076" r="6.67"/>
					</g>
					<path fill="#4E4E4E" d="M148.669,465.066l6.639-3.309v-9.752h9.398v11.227l-13.268,6.633
						C147.292,471.34,145.45,466.549,148.669,465.066z"/>
					<path fill="#4E4E4E" d="M121.56,465.066l6.638-3.309v-9.752h9.398v11.227l-13.268,6.633
						C120.182,471.34,118.339,466.549,121.56,465.066z"/>
					<path fill="#4E4E4E" d="M61.297,465.066l6.639-3.309v-9.752h9.398v11.227l-13.268,6.633
						C59.92,471.34,58.078,466.549,61.297,465.066z"/>
					<path fill="#4E4E4E" d="M40.944,465.066l6.638-3.309v-9.752h9.398v11.227l-13.268,6.633
						C39.567,471.34,37.724,466.549,40.944,465.066z"/>
					<g>
						<g>
							<g>
								<path fill="#4E4E4E" d="M84.305,422.258c-0.178-0.05-0.359-0.141-0.521-0.263c-0.257-0.194-0.433-0.447-0.476-0.682
									l-13.811-74.932c-0.062-0.333,0.143-0.558,0.508-0.56l113.737-0.514c0.262-0.002,0.571,0.135,0.819,0.359
									s0.399,0.508,0.399,0.746l0.203,75.387c0.001,0.269-0.194,0.441-0.497,0.441l-100.053,0.062
									C84.515,422.305,84.411,422.288,84.305,422.258z M71.484,347.447l13.481,73.303l98.529,0.017l-0.217-73.915L71.484,347.447z
									"/>
								<polygon fill="#4E4E4E" points="75.361,372.463 74.851,371.501 183.966,370.295 184.409,371.205 								"/>
								<polygon fill="#4E4E4E" points="80.04,397.921 79.55,396.975 184.046,395.952 184.473,396.85 								"/>
							</g>
							<g>
								<path fill="#4E4E4E" d="M93.221,421.758c-0.153-0.043-0.292-0.174-0.315-0.301l-13.808-74.945
									c-0.024-0.136,0.089-0.21,0.254-0.166c0.164,0.045,0.319,0.191,0.344,0.328l13.793,74.919
									c0.024,0.132-0.087,0.208-0.248,0.171C93.234,421.762,93.228,421.76,93.221,421.758z"/>
								<path fill="#4E4E4E" d="M101.526,421.755c-0.154-0.044-0.292-0.176-0.313-0.302l-12.553-74.99
									c-0.022-0.135,0.092-0.207,0.256-0.161c0.162,0.046,0.314,0.192,0.337,0.327l12.539,74.965
									c0.022,0.131-0.09,0.205-0.25,0.166C101.537,421.758,101.531,421.757,101.526,421.755z"/>
								<path fill="#4E4E4E" d="M109.839,421.752c-0.154-0.043-0.292-0.178-0.31-0.304l-11.296-75.036
									c-0.021-0.133,0.095-0.203,0.257-0.155c0.163,0.048,0.31,0.194,0.33,0.328l11.283,75.009c0.02,0.13-0.093,0.202-0.252,0.162
									C109.847,421.755,109.843,421.754,109.839,421.752z"/>
								<path fill="#4E4E4E" d="M118.161,421.75c-0.154-0.045-0.291-0.18-0.308-0.307l-10.036-75.08
									c-0.018-0.133,0.099-0.201,0.26-0.151c0.158,0.045,0.305,0.196,0.323,0.329l10.023,75.055
									c0.018,0.128-0.097,0.198-0.254,0.156C118.167,421.751,118.164,421.75,118.161,421.75z"/>
								<path fill="#4E4E4E" d="M126.492,421.746c-0.154-0.044-0.291-0.181-0.306-0.307l-8.773-75.127
									c-0.015-0.131,0.102-0.196,0.261-0.146c0.162,0.05,0.301,0.198,0.316,0.329l8.762,75.1c0.015,0.127-0.1,0.195-0.256,0.152
									C126.495,421.748,126.493,421.747,126.492,421.746z"/>
								<path fill="#4E4E4E" d="M134.831,421.744c-0.155-0.045-0.29-0.184-0.303-0.309l-7.508-75.172
									c-0.013-0.131,0.105-0.193,0.263-0.142c0,0,0,0,0.001,0c0.157,0.052,0.295,0.2,0.308,0.329l7.498,75.146
									C135.103,421.723,134.987,421.789,134.831,421.744C134.832,421.744,134.832,421.744,134.831,421.744z"/>
								<path fill="#4E4E4E" d="M143.179,421.741c-0.001-0.001-0.002-0.001-0.003-0.001c-0.153-0.046-0.287-0.185-0.297-0.31
									l-6.239-75.218c-0.011-0.127,0.106-0.188,0.261-0.137c0.001,0,0.001,0,0.002,0.001c0.157,0.054,0.292,0.2,0.303,0.329
									l6.229,75.191C143.447,421.722,143.332,421.785,143.179,421.741z"/>
								<path fill="#4E4E4E" d="M151.536,421.738c-0.002,0-0.004-0.001-0.006-0.002c-0.152-0.047-0.283-0.186-0.291-0.311
									l-4.968-75.263c-0.008-0.128,0.104-0.185,0.266-0.132c0.155,0.056,0.288,0.203,0.296,0.33l4.959,75.236
									C151.799,421.721,151.686,421.782,151.536,421.738z"/>
								<path fill="#4E4E4E" d="M159.901,421.735c-0.003-0.001-0.006-0.002-0.009-0.003c-0.151-0.049-0.279-0.188-0.285-0.311
									l-3.694-75.309c-0.006-0.126,0.118-0.184,0.268-0.127c0.153,0.057,0.283,0.204,0.289,0.33l3.686,75.282
									C160.161,421.719,160.048,421.779,159.901,421.735z"/>
								<path fill="#4E4E4E" d="M168.276,421.732c-0.004-0.001-0.009-0.002-0.013-0.004c-0.15-0.051-0.275-0.189-0.279-0.311
									l-2.417-75.354c-0.004-0.124,0.115-0.183,0.269-0.122c0.151,0.058,0.278,0.205,0.282,0.33l2.409,75.328
									C168.531,421.717,168.419,421.775,168.276,421.732z"/>
								<path fill="#4E4E4E" d="M176.659,421.73c-0.005-0.002-0.011-0.004-0.017-0.006c-0.148-0.052-0.271-0.191-0.272-0.312
									l-1.137-75.399c-0.002-0.123,0.12-0.176,0.269-0.117c0.15,0.059,0.274,0.207,0.276,0.33l1.13,75.373
									C176.91,421.715,176.799,421.771,176.659,421.73z"/>
							</g>
						</g>
					</g>
					<g>
						<g>
							<g>
								<path fill="#4E4E4E" d="M31.314,422.279c-0.1-0.057-0.205-0.158-0.303-0.295c-0.156-0.219-0.275-0.502-0.323-0.764
									l-13.54-74.453c-0.053-0.294,0.026-0.492,0.196-0.494l53.158-0.459c0.122-0.001,0.288,0.119,0.439,0.316
									c0.151,0.199,0.265,0.447,0.302,0.658l13.249,75.032c0.053,0.3-0.016,0.495-0.176,0.495l-52.835,0.014
									C31.43,422.33,31.374,422.313,31.314,422.279z M18.159,347.709L31.5,420.592l51.909,0.07l-12.888-73.484L18.159,347.709z"/>
								<polygon fill="#4E4E4E" points="22.261,373.488 21.932,372.571 74.834,371.437 75.201,372.302 								"/>
								<polygon fill="#4E4E4E" points="26.842,398.921 26.503,397.942 79.261,396.92 79.639,397.846 								"/>
							</g>
							<g>
								<path fill="#4E4E4E" d="M35.962,421.723c-0.086-0.049-0.174-0.195-0.201-0.336l-14.108-74.506
									c-0.022-0.119,0.024-0.186,0.105-0.146c0.08,0.038,0.165,0.169,0.188,0.289l14.138,74.514
									c0.028,0.147-0.021,0.233-0.111,0.19C35.969,421.727,35.966,421.725,35.962,421.723z"/>
								<path fill="#4E4E4E" d="M40.341,421.725c-0.086-0.049-0.175-0.197-0.202-0.339l-14.014-74.549
									c-0.022-0.119,0.025-0.183,0.106-0.142c0.079,0.04,0.164,0.17,0.187,0.289l14.043,74.559
									c0.028,0.146-0.022,0.23-0.111,0.187C40.348,421.728,40.344,421.727,40.341,421.725z"/>
								<path fill="#4E4E4E" d="M44.726,421.727c-0.087-0.051-0.177-0.2-0.203-0.342l-13.918-74.592
									c-0.022-0.118,0.025-0.18,0.106-0.139c0.081,0.043,0.163,0.172,0.186,0.291l13.949,74.604
									c0.027,0.145-0.023,0.227-0.112,0.181C44.731,421.729,44.729,421.727,44.726,421.727z"/>
								<path fill="#4E4E4E" d="M49.116,421.727c-0.087-0.049-0.178-0.201-0.204-0.342l-13.824-74.637
									c-0.022-0.117,0.026-0.177,0.106-0.133c0.079,0.039,0.163,0.173,0.185,0.29l13.854,74.649
									c0.027,0.144-0.023,0.223-0.112,0.176C49.119,421.729,49.118,421.729,49.116,421.727z"/>
								<path fill="#4E4E4E" d="M53.51,421.729c-0.088-0.051-0.179-0.203-0.205-0.344l-13.729-74.682
									c-0.021-0.115,0.026-0.173,0.106-0.129c0.082,0.045,0.163,0.176,0.184,0.291l13.759,74.694
									c0.026,0.143-0.024,0.219-0.113,0.171C53.512,421.729,53.511,421.729,53.51,421.729z"/>
								<path fill="#4E4E4E" d="M57.911,421.73c-0.089-0.051-0.181-0.206-0.207-0.347l-13.633-74.725
									c-0.021-0.114,0.027-0.171,0.107-0.124c0,0,0,0,0,0c0.08,0.046,0.161,0.176,0.182,0.29l13.664,74.739
									C58.051,421.707,58,421.78,57.911,421.73C57.911,421.73,57.911,421.73,57.911,421.73z"/>
								<path fill="#4E4E4E" d="M62.316,421.73c-0.001,0-0.001,0-0.002,0c-0.088-0.052-0.181-0.207-0.206-0.348l-13.537-74.768
									c-0.021-0.113,0.027-0.167,0.106-0.121c0,0,0,0,0.001,0c0.08,0.047,0.161,0.178,0.182,0.291l13.568,74.785
									C62.454,421.709,62.403,421.781,62.316,421.73z"/>
								<path fill="#4E4E4E" d="M66.726,421.732c-0.001,0-0.002-0.001-0.004-0.002c-0.088-0.053-0.18-0.209-0.205-0.348
									L53.076,346.57c-0.02-0.113,0.025-0.164,0.108-0.116c0.08,0.048,0.161,0.179,0.181,0.291l13.473,74.831
									C66.862,421.713,66.812,421.781,66.726,421.732z"/>
								<path fill="#4E4E4E" d="M71.141,421.734c-0.002-0.002-0.004-0.002-0.006-0.004c-0.088-0.055-0.18-0.211-0.204-0.348
									l-13.345-74.857c-0.02-0.111,0.03-0.162,0.108-0.111c0.08,0.049,0.16,0.18,0.18,0.291l13.377,74.876
									C71.275,421.715,71.226,421.782,71.141,421.734z"/>
								<path fill="#4E4E4E" d="M75.562,421.735c-0.003-0.001-0.005-0.003-0.008-0.005c-0.088-0.057-0.18-0.213-0.204-0.348
									L62.102,346.48c-0.02-0.109,0.028-0.16,0.108-0.107c0.08,0.051,0.16,0.182,0.179,0.291l13.281,74.922
									C75.694,421.719,75.645,421.783,75.562,421.735z"/>
								<path fill="#4E4E4E" d="M79.987,421.736c-0.003-0.002-0.006-0.004-0.009-0.006c-0.089-0.058-0.179-0.214-0.203-0.349
									l-13.151-74.945c-0.019-0.108,0.03-0.155,0.109-0.103c0.079,0.051,0.159,0.182,0.178,0.29l13.184,74.968
									C80.118,421.721,80.07,421.783,79.987,421.736z"/>
							</g>
						</g>
					</g>
					<g>
						<g>
							<g>
								<path fill="#4E4E4E" d="M132.745,422.256c-0.089-0.058-0.177-0.16-0.251-0.299c-0.119-0.221-0.191-0.506-0.195-0.77
									l-1.16-75.098c-0.004-0.295,0.106-0.496,0.276-0.497l52.779-0.439c0.121-0.001,0.266,0.12,0.383,0.32
									c0.117,0.2,0.189,0.451,0.191,0.663l0.776,75.68c0.003,0.304-0.098,0.5-0.256,0.5l-52.385-0.01
									C132.851,422.307,132.797,422.289,132.745,422.256z M131.985,347.041l1.222,73.513l51.454,0.095l-0.673-74.121
									L131.985,347.041z"/>
								<polygon fill="#4E4E4E" points="131.806,373.043 131.63,372.117 184.267,370.996 184.488,371.869 								"/>
								<polygon fill="#4E4E4E" points="132.159,398.695 131.984,397.707 184.458,396.701 184.68,397.635 								"/>
							</g>
							<g>
								<path fill="#4E4E4E" d="M137.444,421.697c-0.077-0.05-0.14-0.197-0.144-0.34l-1.715-75.149
									c-0.002-0.122,0.055-0.188,0.128-0.147c0.073,0.039,0.136,0.17,0.139,0.291l1.743,75.158
									c0.003,0.148-0.06,0.234-0.141,0.193C137.451,421.701,137.448,421.699,137.444,421.697z"/>
								<path fill="#4E4E4E" d="M141.786,421.699c-0.078-0.049-0.141-0.199-0.145-0.341l-1.614-75.193
									c-0.002-0.12,0.055-0.185,0.128-0.144c0.072,0.041,0.135,0.172,0.138,0.293l1.642,75.203c0.003,0.146-0.06,0.23-0.141,0.188
									C141.792,421.703,141.789,421.701,141.786,421.699z"/>
								<path fill="#4E4E4E" d="M146.133,421.703c-0.078-0.05-0.142-0.201-0.145-0.344l-1.513-75.237
									c-0.002-0.118,0.055-0.181,0.128-0.139s0.134,0.173,0.136,0.292l1.541,75.25c0.003,0.146-0.06,0.227-0.141,0.182
									C146.137,421.706,146.135,421.705,146.133,421.703z"/>
								<path fill="#4E4E4E" d="M150.485,421.707c-0.078-0.051-0.144-0.203-0.146-0.346l-1.411-75.282
									c-0.002-0.118,0.055-0.178,0.127-0.134c0.071,0.04,0.133,0.174,0.135,0.293l1.439,75.295
									c0.003,0.145-0.06,0.223-0.141,0.176C150.488,421.709,150.486,421.707,150.485,421.707z"/>
								<path fill="#4E4E4E" d="M154.842,421.709c-0.079-0.05-0.145-0.204-0.147-0.347l-1.31-75.325
									c-0.002-0.117,0.055-0.176,0.127-0.131c0.074,0.045,0.132,0.176,0.135,0.293l1.337,75.34c0.002,0.145-0.06,0.221-0.14,0.172
									C154.843,421.711,154.842,421.711,154.842,421.709z"/>
								<path fill="#4E4E4E" d="M159.204,421.713c-0.079-0.051-0.146-0.207-0.147-0.35l-1.208-75.369
									c-0.001-0.116,0.055-0.172,0.126-0.126h0c0.072,0.047,0.131,0.178,0.133,0.293l1.235,75.386
									C159.347,421.689,159.284,421.764,159.204,421.713C159.204,421.713,159.204,421.713,159.204,421.713z"/>
								<path fill="#4E4E4E" d="M163.571,421.717c0,0-0.001-0.001-0.001-0.002c-0.079-0.052-0.146-0.208-0.147-0.35l-1.105-75.414
									c-0.001-0.114,0.055-0.168,0.125-0.123c0.001,0.001,0.001,0.001,0.001,0.002c0.071,0.047,0.13,0.178,0.132,0.293
									l1.134,75.432C163.711,421.695,163.65,421.768,163.571,421.717z"/>
								<path fill="#4E4E4E" d="M167.943,421.72c-0.001-0.001-0.002-0.001-0.003-0.002c-0.079-0.054-0.145-0.211-0.146-0.351
									l-1.002-75.459c-0.001-0.113,0.051-0.166,0.126-0.117c0.071,0.049,0.129,0.18,0.131,0.293l1.031,75.478
									C168.082,421.699,168.021,421.77,167.943,421.72z"/>
								<path fill="#4E4E4E" d="M172.321,421.723c-0.002-0.001-0.004-0.002-0.005-0.003c-0.079-0.056-0.144-0.213-0.146-0.351
									l-0.9-75.504c-0.001-0.113,0.057-0.164,0.126-0.113c0.07,0.051,0.129,0.182,0.13,0.294l0.929,75.522
									C172.457,421.705,172.397,421.771,172.321,421.723z"/>
								<path fill="#4E4E4E" d="M176.703,421.727c-0.002-0.002-0.004-0.003-0.007-0.005c-0.079-0.057-0.143-0.214-0.145-0.352
									l-0.797-75.548c-0.001-0.111,0.054-0.162,0.125-0.108c0.07,0.052,0.128,0.183,0.129,0.294l0.826,75.568
									C176.836,421.709,176.778,421.775,176.703,421.727z"/>
								<path fill="#4E4E4E" d="M181.09,421.729c-0.003-0.001-0.005-0.004-0.008-0.006c-0.078-0.058-0.142-0.216-0.144-0.353
									l-0.694-75.592c-0.001-0.109,0.056-0.156,0.125-0.104c0.07,0.052,0.127,0.184,0.129,0.293l0.722,75.614
									C181.222,421.714,181.165,421.777,181.09,421.729z"/>
							</g>
						</g>
					</g>
					<path fill="#4E4E4E" d="M185.083,422.316c0.877,0,1.588-0.711,1.588-1.589v-93.767c0-4.1,3.335-7.435,7.435-7.435h22.415
						c0.877,0,1.589-0.711,1.589-1.589c0-0.877-0.711-1.588-1.589-1.588h-22.415c-5.851,0-10.612,4.76-10.612,10.611v93.767
						C183.495,421.605,184.206,422.316,185.083,422.316z"/>
					<path fill="#4E4E4E" d="M133.208,422.316c0.877,0,1.589-0.711,1.589-1.589v-93.767c0-4.1,3.335-7.435,7.435-7.435h22.415
						c0.877,0,1.588-0.711,1.588-1.589c0-0.877-0.711-1.588-1.588-1.588h-22.415c-5.852,0-10.612,4.76-10.612,10.611v93.767
						C131.62,421.605,132.331,422.316,133.208,422.316z"/>
					<path fill="#4E4E4E" d="M80.793,452.137h90.826c3.994,0,7.747-1.557,10.565-4.385c2.82-2.828,4.366-6.586,4.353-10.58
						c-0.026-8.197-6.719-14.868-14.918-14.868h-96.67c-0.877,0-1.588,0.711-1.588,1.589c0,0.877,0.711,1.588,1.588,1.588h96.67
						c6.453,0,11.721,5.25,11.741,11.702c0.01,3.144-1.206,6.101-3.426,8.326c-2.219,2.226-5.172,3.452-8.315,3.452H80.793
						c-0.877,0-1.588,0.711-1.588,1.588S79.916,452.137,80.793,452.137z"/>
					<path fill="#4E4E4E" d="M44.336,452.137h90.826c3.994,0,7.747-1.557,10.565-4.385c2.82-2.828,4.366-6.586,4.353-10.58
						c-0.026-8.197-6.719-14.868-14.918-14.868h-96.67c-0.877,0-1.589,0.711-1.589,1.589c0,0.877,0.711,1.588,1.589,1.588h96.67
						c6.454,0,11.721,5.25,11.741,11.702c0.01,3.144-1.207,6.101-3.426,8.326s-5.172,3.452-8.315,3.452H44.336
						c-0.878,0-1.589,0.711-1.589,1.588S43.458,452.137,44.336,452.137z"/>
					<path fill="#4E4E4E" d="M162.99,320.752h49.191c1.565,0,2.834-1.27,2.834-2.835l0,0c0-1.565-1.269-2.835-2.834-2.835H162.99
						c-1.565,0-2.835,1.27-2.835,2.835l0,0C160.155,319.482,161.424,320.752,162.99,320.752z"/>
				</g>
			</g>
		</g>
		<path fill="#4E4E4E" d="M160.189,90.758c-0.183-24.704,46.691-28.33,46.14-15.333l84.147,0.293
			c9.736,0.137,17.598,8.949,17.564,19.677l-1.109,358.313c-0.032,10.497-7.855,19.006-17.48,19.009l-89.135,0.446
			c-0.855,1.752-2.465,3.338-5.005,4.651c-24.942-0.198-36.278-10.021-36.375-22.668C158.004,452.814,159.184,95.404,160.189,90.758
			z"/>
		<g>
			<path fill="#4E4E4E" d="M196.798,477.881l109.672-0.125c9.965,0.018,18.072-8.713,18.111-19.507l1.332-368.521
				c0.041-11.037-8.1-20.083-18.185-20.198l-109.991-1.429c-10.167-0.117-18.429,8.783-18.449,19.873l-0.65,370.248
				C178.62,469.064,186.752,477.863,196.798,477.881z"/>
			<path fill="#0C0D0D" d="M194.581,475.266c0.664,0.091,1.343,0.137,2.019,0.138l109.646-0.298
				c8.565,0.006,15.604-7.651,15.638-17.074l1.303-368.118c0.033-9.633-7.035-17.564-15.701-17.673l-109.958-1.605
				c-0.252-0.003-0.508,0-0.759,0.01c-4.066,0.155-7.856,1.975-10.679,5.119c-2.884,3.211-4.473,7.483-4.482,12.035l-0.676,370.622
				C180.915,466.951,186.763,474.188,194.581,475.266z"/>
			<polygon fill="#FFFFFF" points="187.276,89.762 186.541,459.021 316.559,459.013 317.803,90.833 			"/>
		</g>
		<g>
			<g>
				<polygon fill="#E63718" points="278.558,148.208 263.879,148.088 216.703,90.004 231.448,90.125 				"/>
				<polygon fill="#F1E3E1" points="263.879,148.088 249.21,147.968 201.958,89.883 216.703,90.004 				"/>
				<polygon fill="#E63718" points="249.21,147.968 234.532,147.849 187.224,89.762 201.958,89.883 				"/>
				<polygon fill="#F1E3E1" points="293.226,148.328 278.558,148.208 231.448,90.125 246.181,90.246 				"/>
				<polygon fill="#F1E3E1" points="322.57,148.567 307.903,148.448 260.925,90.367 275.658,90.487 				"/>
				<polygon fill="#E63718" points="365.148,148.916 351.916,148.807 305.133,90.729 318.416,90.838 				"/>
				<polygon fill="#F1E3E1" points="351.916,148.807 337.248,148.688 290.4,90.608 305.133,90.729 				"/>
				<polygon fill="#E63718" points="307.903,148.448 293.226,148.328 246.181,90.246 260.925,90.367 				"/>
				<polygon fill="#E63718" points="337.248,148.688 322.57,148.567 275.658,90.487 290.4,90.608 				"/>
			</g>
			<path fill="#D72F16" d="M249.21,147.968l0.005,8.842c0.005,9.369-14.653,9.25-14.669-0.12l-0.015-8.842L249.21,147.968z"/>
			<path fill="#F1C5BD" d="M263.879,148.088l-0.004,8.842c-0.006,9.369-14.654,9.25-14.659-0.12l-0.005-8.842L263.879,148.088z"/>
			<path fill="#D72F16" d="M278.558,148.208l-0.015,8.842c-0.016,9.369-14.674,9.25-14.668-0.12l0.004-8.842L278.558,148.208z"/>
			<path fill="#F1C5BD" d="M293.226,148.328l-0.024,8.841c-0.025,9.369-14.674,9.25-14.658-0.12l0.015-8.842L293.226,148.328z"/>
			<path fill="#D72F16" d="M307.903,148.448l-0.034,8.841c-0.037,9.369-14.693,9.249-14.668-0.12l0.024-8.841L307.903,148.448z"/>
			<path fill="#F1C5BD" d="M322.57,148.567l-0.045,8.841c-0.047,9.369-14.693,9.249-14.656-0.12l0.034-8.841L322.57,148.567z"/>
			<path fill="#D72F16" d="M337.248,148.688l-0.055,8.841c-0.057,9.368-14.715,9.249-14.668-0.12l0.045-8.841L337.248,148.688z"/>
			<path fill="#F1C5BD" d="M351.916,148.807l-0.064,8.841c-0.068,9.368-14.715,9.249-14.658-0.119l0.055-8.841L351.916,148.807z"/>
			<path fill="#D72F16" d="M365.148,148.916l-0.072,8.841c-0.078,9.368-13.293,9.26-13.225-0.108l0.064-8.841L365.148,148.916z"/>
			<polygon fill="#F1E3E1" points="234.532,147.849 235.681,148.008 187.161,147.578 187.224,89.762 			"/>
		</g>
		<path fill="#0C0D0D" d="M169.142,214.341L169.142,214.341c2.066,0.047,3.771-1.585,3.789-3.629l0.799-93.552
			c0.018-2.073-1.671-3.81-3.754-3.857l0,0c-2.082-0.048-3.799,1.61-3.816,3.684l-0.745,93.554
			C165.399,212.584,167.076,214.294,169.142,214.341z"/>
		<g>
			<g>
				<rect x="283.084" y="185.993" fill="#66C4D6" width="20.283" height="111.954"/>
				<path fill="#0C0D0D" d="M293.226,287.971L293.226,287.971c-1.18,0-2.136-0.955-2.136-2.135v-87.731
					c0-1.18,0.956-2.136,2.136-2.136l0,0c1.18,0,2.136,0.956,2.136,2.136v87.731C295.361,287.016,294.405,287.971,293.226,287.971z"
					/>
			</g>
			<g>
				<path fill="#0C0D0D" d="M393,304.725c0,0,7.303-0.444,11.063,6.041c3.76,6.486-0.957,12.518-0.957,12.518
					s13.506,0.291,15.082,12.956s-9.982,14.534-9.982,14.534s4.697,9.68-6.484,17.238c-11.18,7.557-22.076-6.342-22.076-6.342
					s-9.318,3.615-16.793-5.633s0.74-18.586,0.74-18.586s-5.484-3.988-4.283-13.692s9.037-9.916,9.037-9.916
					s-3.697-5.769,0.4-10.001c4.096-4.232,10.623-0.527,10.623-0.527s1.943-7.344,7.143-6.337S393,304.725,393,304.725z"/>
				<path fill="#F5A690" d="M368.252,323.516l-15.143-15.386l0.014-26.625l-5.002-0.659c0,0-4.094,24.215-4.08,29.361
					c0.012,4.568,15.344,24.426,15.344,24.426L368.252,323.516z"/>
				<path fill="#069F73" d="M385.908,324.721c-4.781-4.035-18.59-2.154-18.59-2.154s-9.014,7.399-9.754,12.869
					c-0.531,3.926,1.75,25.787,1.75,25.787h22.143l8.373-22.972C389.83,338.251,390.689,328.755,385.908,324.721z"/>
				<path fill="#F5A690" d="M387.832,386.969c1.811,10.668,3.916,28.025,4.762,40.117c5.775,25.357,4.408,30.275,6.633,45.644
					c-2.428,1.882-6,0.604-6,0.604c-4.086-10.435-10.43-27.878-12.041-42.771c-3.809-12.373-7.83-25.43-11.994-38.955l-0.305-0.777
					C365.369,379.047,385.059,372.002,387.832,386.969z"/>
				<path fill="#F5A690" d="M359.336,361.223c0,0-2.766,7.402-4.494,18.889c-1.729,11.484-7.383,91.822-7.383,91.822l6.287,0.035
					c3.361-13.76,10.037-24.717,9.211-42.434l15.947-48.725l-7.813-19.588H359.336z"/>
				<path fill="#F5A690" d="M384.16,324.883l15.52-14.471l-6.199-27.92l5.348-1.646c0,0,13.084,26.535,13.07,31.682
					c-0.012,4.568-22.068,25.859-22.068,25.859C386.357,340.029,381.174,332.355,384.16,324.883z"/>
				<path fill="#F5A690" d="M368.252,301.98c-3.666,6.707-4.129,13.23,1.574,16.391c5.701,3.161,13.295,0.287,16.961-6.42
					c3.666-6.708,2.016-14.707-3.686-17.869C377.4,290.922,371.918,295.273,368.252,301.98z"/>
				<path fill="#F5A690" d="M371.803,315.742h8.318l0.33,8.961c0,1.854-4.295,4.469-7.779,4.264
					c-2.709-0.16-4.516-2.056-3.641-4.012L371.803,315.742z"/>
				<path fill="#069F73" d="M350.012,417.611c2.65-34.857,9.324-56.389,9.324-56.389h22.127c3.916,3.069,7.473,8.418,9.74,14.133
					c1.547,4.529,7.748,24.316,10.143,42.256C383.846,423.945,352.264,421.621,350.012,417.611z"/>
				<polygon fill="#0C0D0D" points="383.006,357.895 381.928,361.826 359.049,361.826 358.855,357.895 				"/>
				<g>
					<path fill="#9A4A16" d="M336.139,478.285c0-0.078,3.729-0.082,7.715-0.064c4.586,0.015,10.297,0.064,10.297,0.064
						c0.113-1.771,0.182-3.604-0.404-6.316l-7.186-0.035c0,0-1.992,0.335-5.482,1.399c-0.23,0.07-0.477,0.12-0.729,0.181
						C334.768,474.807,336.139,478.449,336.139,478.285z"/>
					<path fill="#9A4A16" d="M336.139,478.285c0-0.078,3.729-0.082,7.715-0.064c0.123-0.361,0.188-0.749,0.188-1.146
						c0-1.73-1.24-3.201-2.963-3.741c-0.23,0.063-0.477,0.12-0.729,0.181C334.768,474.807,336.139,478.449,336.139,478.285z"/>
					<rect x="335.773" y="477.159" fill="#9A4A16" width="18.625" height="1.132"/>
				</g>
				<g>
					<path fill="#9A4A16" d="M392.096,478.339c0.107,0.003,1.934-0.021,4.197-0.042c3.684-0.036,8.527-0.064,8.98,0.042
						c1.283-3.101-1.377-4.692-3.83-5.57c-1.043-0.37-2.053-0.611-2.699-0.782l-6.242,0.036
						C391.916,474.732,391.982,476.566,392.096,478.339z"/>
					<rect x="391.85" y="477.212" fill="#9A4A16" width="13.791" height="1.132"/>
				</g>
				<path fill="#9A4A16" d="M396.293,478.297c3.684-0.036,8.527-0.064,8.98,0.042c1.283-3.101-1.377-4.692-3.83-5.57
					c-1.42-0.149-3.08,0.085-4.383,1.446C395.682,475.656,395.799,477.142,396.293,478.297z"/>
				<path fill="#0C0D0D" d="M376.902,296.967c0.16-0.229-1.863,8.414,10.156,13.803c7.398-5.062,5.371-21.006-7.986-17.789
					c-1.609-2.867-9.281-4.402-11.67,2.607c-6.234,0.819-6.096,6.764-1.994,6.438C365.408,302.025,372.785,302.83,376.902,296.967z"
					/>
				<circle fill="#F5A690" cx="386.448" cy="310.77" r="2.288"/>
				<g>
					<path fill="#2765AF" d="M400.418,203.762H291.09v76.417h109.328c3.814,0,6.908-3.093,6.908-6.908V210.67
						C407.326,206.854,404.232,203.762,400.418,203.762z"/>
					<path fill="#FECA0E" d="M386.475,223.068h-9.059v-3.63c0-1.209,0.98-2.189,2.189-2.189h12.678v8.762
						c0,0.524,0.279,0.95,0.805,0.95l0,0c0.523,0,0.73-0.425,0.73-0.95v-8.762h2.193c1.209,0,2.189,0.98,2.189,2.189v10.614h-11.891
						c-0.369,0-0.707,0.266-0.744,0.634c-0.041,0.423,0.289,0.78,0.703,0.78h11.932v4.378c0,1.209-0.98,2.189-2.189,2.189h-16.406
						c-1.209,0-2.189-0.98-2.189-2.189v-11.334h9.1c0.424,0,0.762-0.363,0.717-0.795
						C387.195,223.339,386.852,223.068,386.475,223.068z"/>
					<rect x="293.217" y="258.898" fill="#EDEAE9" width="25.133" height="12.68"/>
					<g>
						<rect x="374.748" y="245.766" fill="#EDEAE9" width="23.453" height="5.918"/>
						<rect x="347.557" y="245.766" fill="#EDEAE9" width="23.893" height="5.918"/>
						<rect x="293.357" y="245.766" fill="#EDEAE9" width="24.402" height="5.918"/>
						<rect x="321.242" y="245.766" fill="#EDEAE9" width="22.576" height="5.918"/>
					</g>
					<rect x="325.73" y="258.898" fill="#FECA0E" width="72.332" height="7.639"/>
					<rect x="293.217" y="210.948" fill="#EDEAE9" width="31.119" height="8.908"/>
				</g>
				<path fill="#F5A690" d="M352.768,282.027c0,0,1.961-0.473,2.5-3.832s0.619-2.58,0.619-2.58s-1.848-0.953-2.826,2.926
					c-2.9-0.194-4.732,1.638-4.732,1.638s-0.725,0.335-0.332,1.421C348.389,282.685,352.41,282.549,352.768,282.027z"/>
				<path fill="#F5A690" d="M393.48,282.492c0,0-2.889-0.965-4.033-6.98c1.857-1.32,2.59,2.171,2.59,2.171s7.084-0.595,6.791,3.163
					C398.537,284.605,393.48,282.492,393.48,282.492z"/>
				<rect x="291.09" y="203.762" fill="#0C0D0D" width="1.391" height="76.417"/>
			</g>
		</g>
		<rect x="204.786" y="185.993" fill="#66C4D6" width="61.791" height="34.232"/>
		<rect x="204.786" y="224.833" fill="#66C4D6" width="61.791" height="34.232"/>
		<rect x="204.786" y="263.603" fill="#66C4D6" width="61.791" height="34.231"/>
		<rect x="204.047" y="325.264" fill="#66C4D6" width="96.458" height="96.449"/>
		<g>
			<path fill="#045C76" d="M266.975,384.78h-34.232c-0.681,0-1.284-0.44-1.492-1.089l-6.558-20.426
				c-0.153-0.477-0.069-0.998,0.227-1.402c0.295-0.404,0.766-0.645,1.266-0.645h47.346c0.501,0,0.972,0.24,1.267,0.645
				c0.296,0.404,0.38,0.926,0.226,1.402l-6.557,20.426C268.259,384.34,267.656,384.78,266.975,384.78z M233.886,381.646h31.946
				l5.551-17.293h-43.048L233.886,381.646z"/>
			<path fill="#045C76" d="M264.162,393.429h-29.193c-0.865,0-1.567-0.702-1.567-1.567s0.702-1.566,1.567-1.566h28.048
				c1.908-0.049,2.771-1.371,2.909-2.721c0.123-1.21-0.337-2.441-1.148-2.794l9.856-30.866c0.207-0.65,0.811-1.091,1.493-1.091
				h10.193c0.866,0,1.567,0.702,1.567,1.567s-0.701,1.567-1.567,1.567h-9.049l-9.034,28.649
				C270.639,388.556,267.369,393.429,264.162,393.429z"/>
			<circle fill="#045C76" cx="240.941" cy="398.679" r="3.604"/>
			<circle fill="#045C76" cx="259.083" cy="398.679" r="3.604"/>
			<path fill="#045C76" d="M250.709,384.78c-0.866,0-1.567-0.702-1.567-1.567v-20.426c0-0.866,0.702-1.568,1.567-1.568
				c0.865,0,1.567,0.702,1.567,1.568v20.426C252.276,384.078,251.574,384.78,250.709,384.78z"/>
			<path fill="#045C76" d="M241.971,384.78c-0.715,0-1.361-0.493-1.526-1.221l-4.636-20.427c-0.192-0.844,0.337-1.684,1.182-1.875
				s1.684,0.338,1.875,1.182l4.636,20.427c0.191,0.845-0.338,1.684-1.182,1.875C242.203,384.768,242.086,384.78,241.971,384.78z"/>
			<path fill="#045C76" d="M259.086,384.78c-0.076,0-0.152-0.005-0.229-0.017c-0.856-0.125-1.449-0.92-1.325-1.776l2.972-20.427
				c0.125-0.855,0.92-1.449,1.777-1.324c0.855,0.124,1.449,0.92,1.324,1.775l-2.971,20.427
				C260.521,384.219,259.852,384.78,259.086,384.78z"/>
			<path fill="#045C76" d="M270.253,374.693h-40.749c-0.865,0-1.567-0.701-1.567-1.567c0-0.865,0.702-1.567,1.567-1.567h40.749
				c0.866,0,1.567,0.702,1.567,1.567C271.82,373.992,271.119,374.693,270.253,374.693z"/>
		</g>
		<circle fill="#E63718" cx="225.841" cy="362.564" r="7.731"/>
		<g>
			<path fill="#FFFFFF" d="M236.411,197.849c-1.625-2.222-4.244-3.671-7.208-3.671c-4.933,0-8.932,3.999-8.932,8.932
				c0,4.933,3.999,8.931,8.932,8.931c2.964,0,5.583-1.449,7.208-3.671c-1.08-1.477-1.725-3.291-1.725-5.26
				C234.686,201.14,235.331,199.325,236.411,197.849z"/>
			<path fill="#55BFCC" d="M243.618,194.178c-2.963,0-5.582,1.449-7.207,3.671c1.08,1.477,1.725,3.291,1.725,5.261
				c0,1.969-0.645,3.784-1.725,5.26c1.625,2.222,4.244,3.671,7.207,3.671c4.934,0,8.933-3.999,8.933-8.931
				C252.551,198.176,248.551,194.178,243.618,194.178z"/>
			<path fill="#00AEB0" d="M236.411,197.849c-1.08,1.477-1.725,3.291-1.725,5.261c0,1.969,0.645,3.784,1.725,5.26
				c1.08-1.477,1.725-3.291,1.725-5.26C238.136,201.14,237.491,199.325,236.411,197.849z"/>
		</g>
		<g>
			<g>
				<rect x="222.355" y="232.093" fill="#00AEB0" width="30.106" height="16.632"/>
			</g>
			<g>
				<path fill="#00AEB0" d="M251.182,243.991c0.01,0,0.018,0.001,0.027,0.001v-7.222c-2.191-0.014-3.286-1.719-3.285-3.426h-20.973
					c0,1.713-1.105,3.427-3.311,3.427c-0.011,0-0.021-0.001-0.032-0.001v7.275c0.011,0,0.021-0.002,0.032-0.002
					c2.209,0,3.312,1.714,3.311,3.427h20.922C247.851,245.741,248.954,243.991,251.182,243.991z"/>
			</g>
			<g>
				<circle fill="#00AEB0" cx="237.566" cy="240.409" r="3.785"/>
			</g>
		</g>
		<g>
			<rect x="218.424" y="236.677" fill="#4FBEC9" width="30.106" height="16.632"/>
			<path fill="#FFFFFF" d="M247.25,248.576c0.009,0,0.018,0.001,0.026,0.001v-7.221c-2.19-0.014-3.285-1.719-3.284-3.426H223.02
				c-0.001,1.713-1.105,3.427-3.311,3.427c-0.011,0-0.021-0.001-0.033-0.002v7.275c0.011,0,0.021-0.001,0.033-0.001
				c2.209,0,3.312,1.713,3.311,3.428h20.922C243.919,250.325,245.022,248.576,247.25,248.576z"/>
			<circle fill="#4FBEC9" cx="233.634" cy="244.993" r="3.785"/>
		</g>
		<g>
			<polygon fill="#058C90" points="223.608,273.27 223.608,289.314 244.291,286.449 244.291,270.117 			"/>
			<polygon fill="#FFFFFF" points="226.217,273.27 226.266,288.952 246.05,290.014 246,274.051 			"/>
			<polygon fill="#0BACB0" points="223.608,273.27 223.608,289.314 244.291,294.186 244.291,277.854 			"/>
		</g>
		<g>
			<g>
				<g>
					<path fill="#DDF0F5" d="M78.583,221.644L78.583,221.644c-0.001-0.078-0.001-0.112-0.001-0.119
						C78.582,221.539,78.583,221.644,78.583,221.644z"/>
					<path fill="#DDF0F5" d="M78.583,221.644L78.583,221.644c-0.001-0.078-0.001-0.112-0.001-0.119
						C78.582,221.539,78.583,221.644,78.583,221.644z"/>
					<path fill="#DDF0F5" d="M124.736,221.015c0,0-0.001-0.104-0.001-0.119C124.735,220.904,124.735,220.938,124.736,221.015
						L124.736,221.015z"/>
					<path fill="#DDF0F5" d="M124.736,221.015c0,0-0.001-0.104-0.001-0.119C124.735,220.904,124.735,220.938,124.736,221.015
						L124.736,221.015z"/>
					<path fill="#339067" d="M101.491,208.95c-5.28,5.865-13.751,10.513-22.908,12.693c0.008,0.614,0.054,4.016,0.268,19.696
						c0.285,20.917,20.511,30.776,23.519,32.126c2.969-1.433,22.919-11.838,22.635-32.755c-0.213-15.68-0.26-19.082-0.268-19.696
						C115.523,219.085,106.929,214.669,101.491,208.95z"/>
					<path fill="#4AB382" d="M102.29,267.57c-2.021-1.006-6.006-3.249-9.824-6.914c-5.812-5.577-8.808-12.078-8.906-19.322
						l-0.215-15.832c7.142-1.98,13.606-5.494,18.238-9.9c4.75,4.278,11.308,7.615,18.501,9.4l0.215,15.832
						c0.099,7.244-2.72,13.824-8.376,19.558C108.204,264.158,104.282,266.51,102.29,267.57z"/>
				</g>
			</g>
			<path fill="#FFFFFF" d="M116.12,230.864c-5.512,0.952-12.947,6.128-17.585,12.275c-0.718-2.846-3.755-5.4-5.329-5.942
				l-4.653,4.849c2.983,1.28,6.285,4.999,6.784,8.859l4.748,0.648c1.925-3.979,6.909-13.502,17.073-18.758
				C116.945,232.026,116.202,230.972,116.12,230.864z"/>
		</g>
	</g>
	<rect x="25.261" y="478.117" fill="#0BAACD" width="442.09" height="1.381"/>
</g>
</svg>
