<?xml version="1.0" encoding="utf-8"?>
<!-- Generator: Adobe Illustrator 16.0.0, SVG Export Plug-In . SVG Version: 6.00 Build 0)  -->
<!DOCTYPE svg PUBLIC "-//W3C//DTD SVG 1.1//EN" "http://www.w3.org/Graphics/SVG/1.1/DTD/svg11.dtd">
<svg version="1.1" id="Capa_1" xmlns="http://www.w3.org/2000/svg" xmlns:xlink="http://www.w3.org/1999/xlink" x="0px" y="0px"
	 width="500px" height="500px" viewBox="0 0 500 500" enable-background="new 0 0 500 500" xml:space="preserve">
<g>
	<ellipse fill="#DDF0F5" cx="248.973" cy="251.368" rx="228.488" ry="228.464"/>
	<g>
		<circle fill="#DDF0F5" cx="81.517" cy="48.485" r="15.609"/>
		<g>
			<g>
				<g>
					<path fill="#4E4E4E" d="M497.447,140.085c3.041-16.904-28.492-25.405-29.681-16.447l-57.47-10.62
						c-6.662-1.159-13.137,3.858-14.466,11.21l-45.673,252.684c-1.376,7.616,2.994,14.834,9.768,16.111l62.677,12.145
						c0.378,1.388,1.31,2.756,2.93,4.05c17.587,3.165,24.512-1.077,27.613-7.003C454.09,400.645,497.583,143.404,497.447,140.085z"
						/>
					<g>
						<g>
							<path fill="#4E4E4E" d="M424.477,409.07l-77.201-14.639c-7.021-1.309-11.554-8.73-10.13-16.564l47.187-259.823
								c1.373-7.557,8.072-12.69,14.967-11.473l75.211,13.16c6.948,1.227,11.525,8.38,10.218,15.984l-44.979,261.458
								C438.391,405.061,431.552,410.389,424.477,409.07z"/>
							<path fill="#0C0D0D" d="M426.372,407.459c-0.479-0.021-0.964-0.078-1.439-0.166l-77.146-14.759
								c-6.029-1.132-9.956-7.628-8.715-14.469l47.102-259.542c1.197-6.597,7.024-11.108,12.951-10.069l75.225,13.037
								c0.173,0.03,0.348,0.065,0.517,0.104c2.756,0.629,5.125,2.361,6.676,4.876c1.585,2.571,2.16,5.703,1.623,8.825
								l-45.054,261.719C437.044,403.221,432.011,407.711,426.372,407.459z"/>
							<polygon fill="#FFFFFF" points="479.058,135.913 450.664,300.61 434.092,396.713 342.686,379.479 343.438,375.345 
								389.732,119.847 							"/>
						</g>
					</g>
					<polygon fill="#ADDCE7" points="368.261,384.302 434.092,396.713 447.964,316.268 					"/>
				</g>
				<g>
					
						<ellipse transform="matrix(0.9855 0.1699 -0.1699 0.9855 54.059 -63.7915)" fill="#5BC1CF" cx="399.779" cy="283.984" rx="20.092" ry="34.119"/>
					
						<ellipse transform="matrix(0.9855 0.1699 -0.1699 0.9855 54.0474 -63.78)" fill="none" stroke="#5BC1CF" stroke-width="3.0123" stroke-miterlimit="10" cx="399.779" cy="283.984" rx="26.17" ry="44.44"/>
					<path fill="#0C0D0D" d="M324.093,200.293c0,0,4.231-12.19,15.427-12.507c11.195-0.316,14.252,9.787,14.252,9.787
						c7.317-7.404,22.939-10.983,28.023,3.124c0,0,14.788-5.669,25.475,7.003c10.688,12.673,4.14,28.057-7.113,31.051
						c-3.309,9.945-19.069,17.507-27.197,9.329c-8.127-8.178-8.447-12.217-8.447-12.217s-6.674,8.302-16.41,4.081
						c-9.736-4.222-10.032-17.544-10.032-17.544S321.541,216.49,324.093,200.293z"/>
					<path fill="#E7785D" d="M349.642,256.721c-2.303,4.03-23.111,30.363-32.218,31.883c-4.463,0.748-16.12,1.266-26.859,1.611
						c-3.293,0.104-6.494,0.186-9.379,0.262c-6.934,0.175-12.018,0.25-12.018,0.25v-8.193c4.072-0.43,8.111-1.073,12.018-1.777
						c1.943-0.353,3.859-0.72,5.728-1.086c10.103-1.979,18.996-3.9,25.048-2.905l18.885-29.801
						C338.439,234.821,355.713,246.1,349.642,256.721z"/>
					<path fill="#0886C3" d="M332,240.936l-5.77,11.113l21.895,9.814c0,0,11.175-13.859-1.813-22.54
						C337.102,233.166,332,240.936,332,240.936z"/>
					<path fill="#0886C3" d="M389.822,302.818c-3.721-4.494-12.415-17.141-12.415-17.141s-32.398-4.041-40.597-11.287
						c-4.033-5.012-4.969-11.902-5.313-21.43c-0.051-1.257-0.087-2.556-0.117-3.908c-0.438-18.279,8.857-21.282,17.748-19.704
						c6.891,1.22,13.533,5.187,15.213,6.918c2.156,2.229,26.02,25.593,26.02,25.593l12.115,5.48
						C409.439,278.176,401.979,307.867,389.822,302.818z"/>
					<path fill="#F5A595" d="M342.042,251.336l8.155,37.365c-11.188,5.166-15.481,14.687-29.365,25.214
						c-3.361,3.321-1.709,8.552,3.99,5.577c0,0,29.326-15.821,36.6-23.105c7.274-7.285,3.104-41.781,2.577-46.933
						C362.612,235.88,341.045,235.401,342.042,251.336z"/>
					<g>
						<path fill="#F5A595" d="M333.512,245.236c-0.819-1.257-1.938-3.046-3.142-5.012c-3.28-5.37-7.177-11.982-7.177-11.982
							l9.574-8.533l1.614-1.439l10.134,12.5C349.075,235.081,336.573,249.919,333.512,245.236z"/>
						<path fill="#F0866F" d="M330.953,241.172c-3.282-5.37-7.76-12.929-7.76-12.929l10.627-6.117
							C334.391,224.178,336.009,231.842,330.953,241.172z"/>
					</g>
					<path fill="#0886C3" d="M342.385,259.647l24.033-4.429c0,0-0.287-22.532-16.578-18.836
						C336.885,239.323,342.385,259.647,342.385,259.647z"/>
					<path fill="#F5A595" d="M339.84,251.945c-5.67,4.979-7.361,0.18-7.525-3.985c-0.459-11.689,4.943-17.705,11.025-18.315
						C349.08,229.068,347.57,245.158,339.84,251.945z"/>
					<g>
						<path fill="#DB8472" d="M315.59,325.298c0,0-6.292,7.298-6.893,6.782c-0.607-0.521,1.867-5.209,5.105-9.316
							C317.347,318.269,318.834,322.05,315.59,325.298z"/>
						<path fill="#F5A595" d="M320.155,314.27c0,0-6.815-0.406-10.864,3.672c0,0-0.719,2.158,1.857,1.567
							c2.576-0.593,3.914-1.181,3.914-1.181s-5.258,12.881-5.686,14.203s2.568-1.05,4.934-3.531
							c1.283-1.071,9.54-5.223,11.274-10.542C326.844,314.598,320.155,314.27,320.155,314.27z"/>
						<path fill="#88594D" d="M314.311,329.092c-0.021,0-0.042-0.007-0.061-0.022c-0.037-0.033-0.041-0.091-0.008-0.129l4.812-5.499
							c0.032-0.039,0.091-0.043,0.128-0.01c0.039,0.035,0.043,0.092,0.01,0.131l-4.812,5.498
							C314.361,329.082,314.337,329.092,314.311,329.092z"/>
					</g>
					<g>
						<path fill="#F5A690" d="M298.726,215.229c0.696,12.827,9.651,22.839,20.004,22.364s18.181-11.259,17.485-24.085
							c-0.694-12.827-9.65-22.839-20.004-22.363C305.86,191.62,298.031,202.403,298.726,215.229z"/>
						<path fill="#0C0D0D" d="M310.004,200.817c0.027-0.469,4.77,13.673,26.713,10.763c6.109-13.772-10.877-34.776-27.132-18.378
							c-4.833-2.678-17.157,1.903-14.38,14.034c-8.19,6.679-2.739,15.053,2.836,10.965
							C298.041,218.2,309.298,212.835,310.004,200.817z"/>
						<circle fill="#F5A690" cx="335.845" cy="212.119" r="3.845"/>
					</g>
				</g>
				<g>
					<g>
						
							<ellipse transform="matrix(0.9855 0.1698 -0.1698 0.9855 33.0907 -70.5583)" fill="#089A66" cx="428.955" cy="158.134" rx="13.98" ry="15.856"/>
						<path fill="#FFFFFF" d="M439.519,151.536c-3.671,0.622-8.762,4.302-12.041,8.727c-0.372-2.086-2.286-3.992-3.306-4.408
							l-3.242,3.477c1.924,0.974,3.97,3.732,4.162,6.557l3.11,0.536c1.412-2.878,5.038-9.764,11.931-13.465
							C440.021,152.396,439.567,151.616,439.519,151.536z"/>
					</g>
					<g>
						<polygon fill="#FEDA6E" points="395.342,178.816 395.828,183.289 399.779,183.97 396.129,186.053 396.615,190.525 
							393.873,187.34 390.222,189.423 392.178,185.372 389.436,182.187 393.387,182.868 						"/>
						<polygon fill="#FEDA6E" points="409.514,181.259 410,185.731 413.95,186.413 410.299,188.496 410.785,192.967 
							408.043,189.782 404.393,191.866 406.349,187.814 403.605,184.629 407.557,185.311 						"/>
						<polygon fill="#FEDA6E" points="423.684,183.702 424.17,188.174 428.12,188.855 424.47,190.938 424.956,195.411 
							422.214,192.226 418.563,194.309 420.52,190.257 417.775,187.072 421.729,187.753 						"/>
						<polygon fill="#FEDA6E" points="437.854,186.144 438.339,190.617 442.292,191.298 438.641,193.381 439.127,197.853 
							436.384,194.668 432.734,196.751 434.689,192.7 431.947,189.515 435.897,190.196 						"/>
						<polygon fill="#FEDA6E" points="452.024,188.587 452.511,193.059 456.462,193.741 452.812,195.823 453.298,200.296 
							450.555,197.111 446.903,199.194 448.86,195.142 446.117,191.958 450.068,192.639 						"/>
					</g>
				</g>
				<path fill="#9A4F3E" d="M290.564,290.215c-3.293,0.104-6.494,0.186-9.379,0.262v-9.721c1.943-0.353,3.002-0.557,4.868-0.923
					L290.564,290.215z"/>
			</g>
			<g>
				<g>
					<path fill="#4E4E4E" d="M4.005,136.368c-2.237-17.03,29.665-24.025,30.426-15.021l57.909-7.883
						c6.71-0.841,12.939,4.477,13.918,11.884l33.636,254.564c1.014,7.674-3.693,14.675-10.52,15.631l-63.182,9.158
						c-0.444,1.367-1.439,2.689-3.119,3.907c-17.716,2.327-26.652-3.755-27.866-13.005C34.337,393.99,3.711,139.677,4.005,136.368z"
						/>
					<g>
						<g>
							<path fill="#4E4E4E" d="M64.135,408.51l77.81-10.961c7.073-0.975,11.952-8.17,10.902-16.066l-34.811-261.767
								c-1.013-7.613-7.46-13.059-14.405-12.17l-75.75,9.579c-7,0.896-11.91,7.824-10.964,15.481l32.528,263.299
								C50.426,403.846,57.005,409.492,64.135,408.51z"/>
							<path fill="#0C0D0D" d="M62.32,406.811c0.479,0.002,0.966-0.031,1.445-0.098l77.758-11.083
								c6.077-0.845,10.307-7.147,9.391-14.038l-34.74-261.485c-0.882-6.646-6.488-11.429-12.458-10.671l-75.758,9.455
								c-0.175,0.022-0.35,0.049-0.521,0.08c-2.783,0.498-5.231,2.116-6.9,4.554c-1.705,2.493-2.428,5.594-2.04,8.739l32.59,263.562
								C51.86,402.07,56.674,406.797,62.32,406.811z"/>
							<polygon fill="#FFFFFF" points="22.572,133.074 55.118,395.709 147.239,382.836 112.555,121.259 							"/>
						</g>
					</g>
					<g>
						<g>
							<polygon fill="#E63718" points="90.821,164.825 80.656,166.159 42.858,130.41 53.022,129.076 							"/>
							<polygon fill="#F1E3E1" points="80.656,166.159 70.5,167.493 32.694,131.745 42.858,130.41 							"/>
							<polygon fill="#E63718" points="70.5,167.493 60.335,168.828 22.537,133.078 32.694,131.745 							"/>
							<polygon fill="#F1E3E1" points="100.977,163.491 90.821,164.825 53.022,129.076 63.178,127.742 							"/>
							<polygon fill="#F1E3E1" points="121.297,160.823 111.141,162.157 73.343,126.407 83.5,125.074 							"/>
							<polygon fill="#E63718" points="150.783,156.952 141.619,158.155 103.82,122.406 112.977,121.203 							"/>
							<polygon fill="#F1E3E1" points="141.619,158.155 131.462,159.488 93.664,123.739 103.82,122.406 							"/>
							<polygon fill="#E63718" points="111.141,162.157 100.977,163.491 63.178,127.742 73.343,126.407 							"/>
							<polygon fill="#E63718" points="131.462,159.488 121.297,160.823 83.5,125.074 93.664,123.739 							"/>
						</g>
						<path fill="#D72F16" d="M70.5,167.493l0.809,6.165c0.859,6.541-9.305,7.875-10.163,1.334l-0.81-6.165L70.5,167.493z"/>
						<path fill="#F1C5BD" d="M80.656,166.159l0.809,6.165c0.859,6.541-9.298,7.875-10.157,1.334l-0.809-6.165L80.656,166.159z"/>
						<path fill="#D72F16" d="M90.821,164.825l0.809,6.164c0.859,6.542-9.305,7.876-10.165,1.335l-0.809-6.165L90.821,164.825z"/>
						<path fill="#F1C5BD" d="M100.977,163.491l0.809,6.165c0.859,6.542-9.297,7.875-10.156,1.333l-0.809-6.164L100.977,163.491z"/>
						<path fill="#D72F16" d="M111.141,162.157l0.811,6.165c0.858,6.541-9.306,7.875-10.165,1.334l-0.809-6.165L111.141,162.157z"/>
						<path fill="#F1C5BD" d="M121.297,160.823l0.81,6.165c0.858,6.541-9.298,7.875-10.156,1.333l-0.811-6.165L121.297,160.823z"/>
						<path fill="#D72F16" d="M131.462,159.488l0.809,6.165c0.859,6.541-9.305,7.876-10.164,1.335l-0.81-6.165L131.462,159.488z"/>
						<path fill="#F1C5BD" d="M141.619,158.155l0.81,6.164c0.858,6.542-9.299,7.875-10.158,1.334l-0.809-6.165L141.619,158.155z"/>
						<path fill="#D72F16" d="M150.783,156.952l0.81,6.164c0.859,6.541-8.306,7.745-9.164,1.203l-0.81-6.164L150.783,156.952z"/>
						<polygon fill="#F1E3E1" points="60.335,168.828 61.145,168.828 27.546,173.215 22.537,133.078 						"/>
					</g>
					<path fill="#0C0D0D" d="M20.911,221.75L20.911,221.75c1.441-0.167,2.482-1.483,2.315-2.924l-7.612-65.473
						c-0.167-1.44-1.484-2.482-2.924-2.315l0,0c-1.441,0.168-2.482,1.483-2.314,2.924l7.611,65.474
						C18.155,220.875,19.471,221.917,20.911,221.75z"/>
				</g>
				<g>
					
						<ellipse transform="matrix(0.9914 -0.1307 0.1307 0.9914 -39.7825 14.3512)" fill="#5BC1CF" cx="89.403" cy="310.148" rx="20.092" ry="34.119"/>
					
						<ellipse transform="matrix(0.9914 -0.1308 0.1308 0.9914 -39.7901 14.3544)" fill="none" stroke="#5BC1CF" stroke-width="3.0123" stroke-miterlimit="10" cx="89.403" cy="310.148" rx="26.171" ry="44.441"/>
				</g>
				<g>
					<path fill="#0C0D0D" d="M160.978,219.666l17.394,16.669l0.068,10.015c0,0-9.063-5.671-15.694-15.218
						c-6.63-9.546-4.973-9.216-4.973-9.216L160.978,219.666z"/>
					<path fill="#024C4E" d="M171.763,240.859c7.523,9.263,24.348,26.286,24.348,26.286l36.08,7.795l1.759,10.027
						c0,0-30.751,0.627-41.149-0.982c-9.85-1.525-34.852-15.076-43.158-21.922C134.059,249.213,153.354,218.193,171.763,240.859z"/>
					<path fill="#0C0D0D" d="M90.865,285.688l-4.863,2.967c-9.682,4.491-9.568,50.6,11.193,47.505
						c14.371-3.958,21.775-10.821,26.486-17.134C124.423,314.99,101.075,285.084,90.865,285.688z"/>
					<path fill="#047374" d="M94.458,282.712c25.879-27.737,35.329-47.514,50.131-57.038c10.988-7.07,25.678-0.163,31.619,11.628
						c3.653,7.25,2.985,19.36-2.287,29.163c-13.358,24.838-35.472,46.846-45.418,49.309
						C123.516,315.775,97.802,299.274,94.458,282.712z"/>
					<polygon fill="#F5A595" points="157.616,223.755 173.865,206.378 184.999,215.47 175.822,239.14 					"/>
					<g>
						<path fill="#F5A595" d="M203.215,212.045c0,0-0.48,1.128-1.3,2.777c-1.821,3.695-5.337,9.958-8.97,11.866
							c-1.606,0.854-5.871,0.282-10.667-1.653c-10.826-4.378-24.315-15.756-15.526-33.533c8.862-17.928,27.448-14.308,32.659-6.333
							c2.927,4.486,5.7,8.006,4.559,20.957C208.666,211.855,205.554,212.148,203.215,212.045z"/>
						<path fill="#9A4A16" d="M200.186,172.776c-30.945-16.268-57.801,22.046-32.514,42.252c0,0,2.246-2.11,6.391-5.219
							c-6.985-3.453-1.847-14.396,5.184-11.516c2.009,0.667,3.736,2.719,4.052,4.812c-0.005-0.057,0.014,0.116,0.035,0.377
							c0.634-0.081,1.29-0.083,1.544-0.196c0.252-13.299,1.46-18.118,1.46-18.118s10.235,3.692,15.029,4.701
							C214.555,191.941,220.44,168.854,200.186,172.776z"/>
						<path fill="#9A4A16" d="M191.357,217.606c0.001-0.002,0.002-0.005,0.003-0.008c-6.172-0.495-6.458-15.491-6.458-15.491
							l-1.604,0.998c0.671,8.006-0.253,16.311-2.548,21.271c0,0,2.965,2.647,8.931,2.716c0.012,0.019,0.021,0.039,0.035,0.058
							c0.684,0.066,1.15,0.042,1.669-0.018c-2.679-5.942,3.558-11.33,9.382-10.093c0.431-0.794,0.818-1.548,1.148-2.217
							C198.015,213.603,193.956,215.06,191.357,217.606z"/>
					</g>
					<path fill="#0C0D0D" d="M132.305,236.661c0,0,15.55-11.978,26.77,5.164c13.049,19.937-29.71,63.929-39.169,68.902l4.683,2.875
						c11.183-8.1,52.889-49.853,38.077-73.325c-9.718-15.401-23.859-9.598-23.859-9.598L132.305,236.661z"/>
					<path fill="#DB6811" d="M95.475,281.788l-4.61,3.899c0,0,4.287,13.255,13.77,21.303c9.483,8.049,19.047,12.035,19.047,12.035
						l4.821-3.252c0,0-14.656-7.539-21.426-15.582C100.306,292.15,95.475,281.788,95.475,281.788z"/>
					<polygon fill="none" stroke="#DDC910" stroke-width="2.326" stroke-linejoin="round" stroke-miterlimit="10" points="
						118.971,310.451 123.978,307.066 129.875,310.533 124.852,314.123 					"/>
					<rect x="219.532" y="241.707" fill="#DB6811" width="65.366" height="65.359"/>
					<rect x="247.645" y="241.849" fill="#F18327" width="9.14" height="15.573"/>
					<path fill="#03595A" d="M155.422,223.567l5.556-3.901c0.368,3.523,8.337,14.353,17.394,16.669l-4.756,9.602
						C163.449,238.253,156.654,230.539,155.422,223.567z"/>
					<g>
						<polygon fill="#F5A595" points="218.577,283.211 231.029,285.352 231.029,292.066 218.157,293.466 						"/>
						<path fill="#F5A595" d="M227.101,286.074c1.181-0.984,4.928-3.999,8.701-8.041c1.93,0,1.665,3.125-0.307,4.731
							c-2.073,1.69-1.745,3.419,1.295,3.419c1.759,0,12.227-0.611,12.85,0.383c0.597,0.955-9.672,2.798-9.672,2.798
							s8.739,1.247,8.772,1.965c0.065,1.362-8.99,0.708-8.99,0.708s8.33,1.858,7.8,2.728c-0.764,1.255-8.728,0.108-8.728,0.108
							s5.892,2.516,4.364,3.055c-1.527,0.539-14.685-2.262-16.549-3.544C223.761,292.408,225.92,287.061,227.101,286.074z"/>
					</g>
					<path fill="#047374" d="M131.505,262.812c-3.096-4.87-5.032-15.056,4.586-22.939c10.359-8.494,19.334-0.616,24.509,9.266
						c3.966,7.573,22.539,28.106,22.539,28.106l44.208,7.012l0.421,11.174c0,0-39.591,6.305-55.309-0.849
						C158.567,288.258,138.582,273.938,131.505,262.812z"/>
					<rect x="265.35" y="291.272" fill="#FBCFA7" width="16.637" height="13.446"/>
				</g>
				<polygon fill="#0AB2B3" points="223.779,283.689 227.348,284.256 227.769,296.088 224.593,298.486 				"/>
				<g>
					<path fill="#010202" d="M253.804,243.337l-1.747-1.292c-0.141-0.022-0.508-0.066-0.895-0.112
						c-5.214-0.62-12.318-1.692-13.82-3.862c-0.283-0.409-0.371-0.843-0.261-1.291c0.196-0.794,0.656-1.327,1.369-1.584
						c3.626-1.308,13.113,5.577,13.939,6.185c0.063,0.029,0.088,0.063,0.125,0.116L253.804,243.337z M239.541,235.755
						c-0.315,0-0.598,0.04-0.843,0.129c-0.475,0.171-0.771,0.521-0.907,1.071c-0.06,0.243-0.012,0.464,0.152,0.699
						c0.969,1.4,5.297,2.577,12.868,3.5C247.789,239.065,242.374,235.755,239.541,235.755z"/>
					<rect x="251.85" y="241.707" fill="#FFFFFF" width="0.73" height="65.359"/>
					<path fill="none" stroke="#010202" stroke-width="1.5062" stroke-miterlimit="10" d="M252.215,241.707
						c0,0,17.146-9.955,19.551-4.978C274.169,241.707,252.215,241.707,252.215,241.707z"/>
					<path fill="none" stroke="#FFFFFF" stroke-width="1.5062" stroke-miterlimit="10" d="M252.215,241.707
						c0,0,18.317,12.354,13.912,17.236C261.721,263.826,252.215,241.707,252.215,241.707z"/>
					<path fill="#FFFFFF" d="M284.72,265.121h-65.188c-0.202,0-0.365-0.163-0.365-0.364c0-0.202,0.164-0.365,0.365-0.365h65.188
						c0.2,0,0.365,0.163,0.365,0.365C285.085,264.958,284.92,265.121,284.72,265.121z"/>
				</g>
				<g>
					<g>
						
							<ellipse transform="matrix(0.9914 -0.1307 0.1307 0.9914 -23.6903 11.9358)" fill="#089A66" cx="79.058" cy="186.394" rx="5.421" ry="6.148"/>
						<path fill="#FFFFFF" d="M82.208,182.733c-1.287,0.653-2.748,2.602-3.451,4.619c-0.379-0.73-1.307-1.215-1.733-1.251
							l-0.799,1.661c0.824,0.139,1.9,0.925,2.297,1.948l1.213-0.16c0.19-1.229,0.74-4.195,2.865-6.36
							C82.494,182.994,82.236,182.757,82.208,182.733z"/>
					</g>
					<g>
						<polygon fill="#FEDA6E" points="52.44,231.607 54.233,235.732 58.209,235.208 55.342,238.282 57.137,242.408 53.571,240.182 
							50.704,243.255 51.367,238.806 47.802,236.582 51.777,236.057 						"/>
						<polygon fill="#FEDA6E" points="66.695,229.726 68.49,233.852 72.464,233.328 69.599,236.401 71.392,240.527 67.827,238.302 
							64.96,241.375 65.623,236.926 62.058,234.701 66.033,234.176 						"/>
						<polygon fill="#FEDA6E" points="80.952,227.846 82.745,231.972 86.721,231.448 83.854,234.521 85.648,238.647 82.083,236.421 
							79.217,239.496 79.879,235.046 76.314,232.82 80.289,232.296 						"/>
						<polygon fill="#FEDA6E" points="95.207,225.966 97.001,230.092 100.976,229.567 98.11,232.642 99.905,236.767 96.338,234.541 
							93.473,237.615 94.136,233.166 90.57,230.94 94.545,230.416 						"/>
						<polygon fill="#FEDA6E" points="109.463,224.085 111.258,228.211 115.232,227.687 112.367,230.761 114.16,234.886 
							110.595,232.661 107.729,235.734 108.391,231.285 104.826,229.059 108.801,228.535 						"/>
					</g>
					<g>
						<path fill="#0C0D0D" d="M88.929,209.608l-14.976,1.975c-0.299,0.039-0.59-0.134-0.721-0.43l-4.146-9.306
							c-0.098-0.218-0.093-0.469,0.011-0.678c0.104-0.208,0.294-0.35,0.514-0.378l20.713-2.732c0.219-0.029,0.44,0.058,0.595,0.232
							c0.154,0.175,0.223,0.417,0.187,0.652l-1.591,10.063C89.462,209.325,89.227,209.569,88.929,209.608z M74.257,210.031
							l13.976-1.843l1.348-8.519l-18.834,2.483L74.257,210.031z"/>
						<path fill="#0C0D0D" d="M88.24,213.871l-12.772,1.685c-0.379,0.05-0.729-0.242-0.784-0.653
							c-0.054-0.41,0.208-0.783,0.588-0.833l12.271-1.619c0.832-0.133,1.127-0.81,1.103-1.458c-0.022-0.58-0.3-1.137-0.678-1.258
							l2.382-15.203c0.05-0.32,0.287-0.564,0.585-0.603l4.46-0.588c0.378-0.05,0.729,0.242,0.784,0.653
							c0.054,0.41-0.209,0.783-0.589,0.833l-3.958,0.522l-2.16,14.104C90.769,211.187,89.643,213.686,88.24,213.871z"/>
						
							<ellipse transform="matrix(0.9914 -0.1306 0.1306 0.9914 -27.7693 12.1096)" fill="#0C0D0D" cx="78.409" cy="217.699" rx="1.59" ry="1.724"/>
						
							<ellipse transform="matrix(0.9914 -0.1306 0.1306 0.9914 -27.5565 13.133)" fill="#0C0D0D" cx="86.346" cy="216.653" rx="1.591" ry="1.723"/>
						<path fill="#0C0D0D" d="M81.813,210.546c-0.379,0.05-0.729-0.242-0.784-0.653l-1.278-9.684
							c-0.054-0.411,0.21-0.783,0.588-0.833c0.379-0.05,0.729,0.243,0.784,0.653l1.277,9.685
							C82.454,210.124,82.192,210.496,81.813,210.546z"/>
						<path fill="#0C0D0D" d="M77.99,211.051c-0.313,0.041-0.626-0.156-0.744-0.491l-3.307-9.417c-0.136-0.39,0.042-0.818,0.4-0.958
							c0.358-0.139,0.758,0.063,0.894,0.452l3.306,9.417c0.136,0.389-0.042,0.817-0.4,0.957
							C78.09,211.032,78.04,211.044,77.99,211.051z"/>
						<path fill="#0C0D0D" d="M85.478,210.063c-0.033,0.004-0.066,0.006-0.1,0.005c-0.383-0.01-0.693-0.352-0.692-0.766l0.023-9.856
							c0.001-0.413,0.312-0.741,0.694-0.73c0.383,0.009,0.691,0.352,0.69,0.766l-0.022,9.855
							C86.07,209.714,85.812,210.019,85.478,210.063z"/>
						<path fill="#0C0D0D" d="M89.733,204.636l-17.828,2.352c-0.379,0.05-0.729-0.242-0.784-0.653
							c-0.055-0.41,0.208-0.783,0.587-0.833l17.828-2.352c0.378-0.05,0.729,0.242,0.784,0.653
							C90.374,204.213,90.111,204.586,89.733,204.636z"/>
					</g>
				</g>
			</g>
		</g>
		<g>
			<g>
				<path fill="#047374" d="M330.505,164.337c-7.056-0.056-20.965-0.124-46.774-0.124c-4.011,0-7.266-3.25-7.266-7.26v-12.325
					c0-4.009,3.25-7.259,7.26-7.259h45.988c4.01,0,7.259,3.25,7.259,7.259v13.285C336.972,161.481,334.072,164.365,330.505,164.337z
					"/>
				<circle fill="#FFFFFF" cx="287.403" cy="150.853" r="2.465"/>
				<circle fill="#FFFFFF" cx="300.28" cy="150.853" r="2.466"/>
				<circle fill="#FFFFFF" cx="313.156" cy="150.853" r="2.466"/>
				<circle fill="#FFFFFF" cx="326.033" cy="150.853" r="2.465"/>
			</g>
			<polygon fill="#047374" points="312.081,159.505 312.081,170.71 297.813,159.925 			"/>
		</g>
		<path fill="#0C0D0D" d="M477.313,219.565L477.313,219.565c-1.429-0.247-2.397-1.617-2.15-3.047l11.2-64.957
			c0.246-1.429,1.615-2.396,3.045-2.15l0,0c1.429,0.246,2.397,1.618,2.151,3.046l-11.199,64.956
			C480.114,218.844,478.743,219.812,477.313,219.565z"/>
	</g>
	<g>
		<rect x="219.326" y="350.582" fill="#43BAC0" width="70.625" height="34.28"/>
		<rect x="230.628" y="365.246" fill="#0D0E0E" width="49.167" height="5.464"/>
		<g>
			<g>
				<path fill="#FFFFFF" d="M281.336,403.139l-35.007,0.33c-9.008,0-0.192-35.746-9.008-35.746h35.005
					C281.33,367.723,274.169,403.139,281.336,403.139z"/>
				<path fill="#0D0E0E" d="M257.915,388.501c-1.429,0-3.503,2.019-4.351,6.825c-1.39,7.896-7.235,8.143-7.235,8.143
					s34.271-0.357,40.472-0.357c3.699,0,2.36-7.521,2.886-10.932c0.362-2.355,1.925-3.374,2.868-3.679H257.915z"/>
				<path fill="#FFFFFF" d="M299.701,424.246h-35.007c-0.579-19.098-1.677-35.98-6.779-35.745c0.621-0.495,20.804-0.28,34.882-0.124
					C299.452,388.358,299.701,411.486,299.701,424.246z"/>
			</g>
			<path fill="#0D0E0E" d="M293.324,394.27h-27.111c-0.219,0-0.396-0.178-0.396-0.397s0.178-0.397,0.396-0.397h27.111
				c0.219,0,0.396,0.178,0.396,0.397S293.543,394.27,293.324,394.27z"/>
			<path fill="#0D0E0E" d="M294.269,397.303h-27.112c-0.219,0-0.396-0.176-0.396-0.396c0-0.218,0.178-0.396,0.396-0.396h27.112
				c0.218,0,0.396,0.178,0.396,0.396C294.665,397.127,294.486,397.303,294.269,397.303z"/>
			<path fill="#0D0E0E" d="M294.891,400.339h-27.112c-0.218,0-0.396-0.179-0.396-0.396c0-0.22,0.178-0.396,0.396-0.396h27.112
				c0.219,0,0.396,0.176,0.396,0.396C295.287,400.16,295.109,400.339,294.891,400.339z"/>
			<path fill="#0D0E0E" d="M295.295,403.864h-27.111c-0.22,0-0.396-0.177-0.396-0.396c0-0.22,0.177-0.398,0.396-0.398h27.111
				c0.219,0,0.396,0.179,0.396,0.398C295.691,403.688,295.514,403.864,295.295,403.864z"/>
		</g>
	</g>
</g>
</svg>
