<?xml version="1.0" encoding="utf-8"?>
<!-- Generator: Adobe Illustrator 16.0.0, SVG Export Plug-In . SVG Version: 6.00 Build 0)  -->
<!DOCTYPE svg PUBLIC "-//W3C//DTD SVG 1.1//EN" "http://www.w3.org/Graphics/SVG/1.1/DTD/svg11.dtd">
<svg version="1.1" xmlns="http://www.w3.org/2000/svg" xmlns:xlink="http://www.w3.org/1999/xlink" x="0px" y="0px" width="500px"
	 height="500px" viewBox="0 0 500 500" enable-background="new 0 0 500 500" xml:space="preserve">
<g id="Background_Complete">
	<g>
		<g>
			<path fill="#E0E0E0" d="M184.216,88.385c-7.069,0.164-12.834,5.926-13.002,12.995c-0.072,3.028,0.87,5.831,2.504,8.101
				l-0.003,0.001l0.13,0.176c0.006,0.008,0.012,0.017,0.019,0.025l9.434,12.832c0.83,1.129,2.53,1.094,3.312-0.069l8.527-12.677
				c1.613-2.46,2.72-5.033,2.72-8.064C197.856,94.241,191.719,88.211,184.216,88.385z M184.533,109.587
				c-4.189,0-7.585-3.396-7.585-7.586s3.396-7.586,7.585-7.586c4.19,0,7.586,3.396,7.586,7.586S188.723,109.587,184.533,109.587z"/>
		</g>
	</g>
	<g>
		<path fill="#EBEBEB" d="M386.204,61.374c0.775-5.632-7.173-10.265-13.146-10.746c-2.848-0.229-5.807,0.206-8.505-0.734
			c-5.846-2.038-8.181-9.59-13.885-11.996c-4.265-1.799-9.175-0.197-13.309,1.883c-4.135,2.081-8.22,4.699-12.839,4.995
			c-4.018,0.257-8.381-1.233-11.896,0.73c-2.62,1.462-3.992,4.48-6.406,6.261c-2.361,1.742-5.443,2.111-8.373,2.271
			c-2.931,0.159-5.965,0.189-8.634,1.411c-2.668,1.222-4.876,4.043-4.322,6.926L386.204,61.374z"/>
	</g>
	<g>
		<path fill="#F5F5F5" d="M211.502,31.409c0.413-2.997-3.817-5.463-6.996-5.719c-1.516-0.123-3.09,0.109-4.526-0.391
			c-3.111-1.084-4.354-5.104-7.39-6.385c-2.27-0.957-4.882-0.105-7.083,1.002c-2.201,1.107-4.375,2.501-6.833,2.659
			c-2.139,0.137-4.46-0.656-6.332,0.388c-1.394,0.778-2.124,2.385-3.409,3.333c-1.257,0.927-2.897,1.124-4.457,1.208
			c-1.56,0.084-3.174,0.101-4.594,0.75c-1.42,0.65-2.595,2.152-2.301,3.686L211.502,31.409z"/>
	</g>
	<g>
		<path fill="#F5F5F5" d="M117.281,84.857c0.609-4.427-5.638-8.069-10.333-8.447c-2.239-0.181-4.564,0.162-6.685-0.578
			c-4.596-1.602-6.431-7.539-10.915-9.43c-3.353-1.414-7.212-0.155-10.461,1.48c-3.25,1.636-6.462,3.694-10.093,3.927
			c-3.158,0.202-6.588-0.969-9.351,0.573c-2.059,1.15-3.138,3.522-5.036,4.922c-1.857,1.369-4.279,1.659-6.582,1.785
			c-2.304,0.125-4.689,0.148-6.787,1.109s-3.833,3.178-3.397,5.444L117.281,84.857z"/>
	</g>
	<g>
		<g>
			<path fill="#E0E0E0" d="M470.688,75.429c-0.021,0.054-0.576-0.15-1.61-0.359c-1.029-0.206-2.566-0.385-4.422-0.117
				c-1.843,0.262-4.017,1.014-5.916,2.59c-1.897,1.547-3.52,3.881-4.168,6.641l-0.02,0.073l-0.253,0.984l-0.378-0.933
				c-1.063-2.625-2.949-4.718-4.997-6.054c-2.053-1.36-4.263-1.934-6.115-2.076c-3.762-0.256-5.963,0.918-5.989,0.761
				c-0.015-0.032,0.501-0.33,1.521-0.661c1.017-0.327,2.564-0.657,4.498-0.568c1.918,0.086,4.245,0.634,6.416,2.031
				c2.163,1.371,4.16,3.552,5.281,6.319l-0.631,0.05l0.021-0.078c0.687-2.922,2.414-5.365,4.429-6.965
				c2.021-1.631,4.323-2.37,6.24-2.58c1.934-0.217,3.509,0.043,4.541,0.33C470.175,75.111,470.702,75.398,470.688,75.429z"/>
		</g>
	</g>
	<g>
		<polygon fill="#FFFFFF" stroke="#E0E0E0" stroke-miterlimit="10" points="33.364,161.435 69.162,355.788 143.632,369.293 
			210.348,326.357 281.713,343.588 355.708,296.111 319.481,111.736 245.804,148.474 182.241,134.666 113.038,171.309 		"/>
		<polygon fill="#EBEBEB" points="41.054,167.643 74.859,351.959 143.126,362.289 209.661,318.118 279.525,334.746 348.742,292.924 
			316.137,119.452 246.978,154.783 182.181,143.555 111.424,178.089 79.765,173.389 		"/>
		<polygon fill="#FAFAFA" points="92.158,174.371 92.359,243.683 330.921,304.922 319.036,312.762 93.909,254.251 91.963,354.547 
			77.448,352.351 79.765,173.389 		"/>
		<polygon fill="#FAFAFA" points="44.776,184.129 80.615,192.183 79.374,203.567 46.061,194.941 		"/>
		<polygon fill="#FAFAFA" points="53.373,234.81 79.042,229.152 78.874,242.195 55.231,247.489 		"/>
		<polygon fill="#FAFAFA" points="62.825,286.344 78.285,287.7 78.188,295.164 64.05,294.706 		"/>
		<polygon fill="#E0E0E0" points="91.963,354.547 111.741,357.541 116.309,317.637 147.366,320.8 150.345,357.497 163.477,348.779 
			163.205,272.262 93.909,254.251 		"/>
		<polygon fill="#FAFAFA" points="171.143,274.325 170.758,315.429 170.49,344.123 163.477,348.779 162.757,269.208 		"/>
		<polygon fill="#FAFAFA" points="203.265,322.364 170.758,315.429 170.668,325.056 193.043,329.15 		"/>
		<polygon fill="#FAFAFA" points="128.752,169.632 123.506,251.678 135.29,254.704 141.926,163.202 		"/>
		<path fill="#FAFAFA" d="M164.123,262.105l1.991-102.449l7.088,2.832l-0.549,35.642l73.688,21.339l17.508-70.792l13.484-7.536
			l-21.573,80.529l-16.699,62.81c0,0-9.73-2.261-9.386-3.86c0.344-1.599,13.325-48.227,13.325-48.227l-71.477-23.177l-1.29,58.897
			L164.123,262.105z"/>
		<polygon fill="#FAFAFA" points="248.935,231.521 298.465,246.002 321.467,147.808 317.124,126.173 291.545,232.937 
			250.844,220.445 		"/>
		<polygon fill="#FAFAFA" points="221.421,321.662 229.674,280.619 239.465,282.957 230.76,324.476 		"/>
		<polygon fill="#E0E0E0" points="323.433,220.598 303.19,320.447 321.097,309.16 338.726,242.99 336.19,225.694 		"/>
		<polygon opacity="0.1" points="111.424,178.089 143.126,362.289 74.859,351.959 41.054,167.643 		"/>
		<polygon fill="#E0E0E0" points="156.809,155.938 163.799,158.731 336.487,227.721 331.433,200.833 182.181,143.555 		"/>
		<polygon opacity="0.1" points="182.181,143.555 209.661,318.118 279.525,334.746 246.978,154.783 		"/>
	</g>
	<polygon fill="#E0E0E0" points="453.103,429.131 357.601,429.131 362.979,423.821 456.247,423.821 	"/>
</g>
<g id="Background_Simple" display="none">
	<g display="inline">
		<path fill="#F5F5F5" d="M445.917,90.738l-2.434-4.01c-20.516-33.809-57.608-54.188-96.717-51.715
			c-5.027,0.318-10.033,0.999-14.972,2.056c-35.558,7.611-66.496,34.5-79.32,68.937c-7.542,20.253-9.649,43.571-23.962,59.647
			c-18.627,20.922-50.251,21.579-78.055,20.712c-27.804-0.867-59.449-0.127-77.985,20.877
			c-11.609,13.154-15.298,31.861-14.362,49.478c2.479,46.642,34.979,88.346,76.311,109.074
			c41.333,20.729,89.996,22.586,135.231,13.467c63.37-12.773,123.634-47.854,159.857-102.038
			C465.731,223.039,474.899,149.219,445.917,90.738z"/>
	</g>
</g>
<g id="Floor">
	<g>
		<g>
			<g>
				<path fill="#263238" d="M461.622,467.157c0,0.144-96.992,0.261-216.611,0.261c-119.661,0-216.632-0.117-216.632-0.261
					s96.972-0.261,216.632-0.261C364.629,466.896,461.622,467.013,461.622,467.157z"/>
			</g>
		</g>
	</g>
</g>
<g id="Birds">
	<g>
		<g>
			<g>
				<path fill="#263238" d="M150.194,115.433c-0.023,0.065-1.146-0.396-3.268-0.867c-2.11-0.464-5.279-0.874-9.121-0.352
					c-3.814,0.51-8.334,2.044-12.29,5.301c-3.948,3.197-7.326,8.035-8.675,13.774c-0.013,0.052-0.027,0.104-0.039,0.153
					l-0.253,0.984l-0.378-0.934c-2.208-5.453-6.131-9.786-10.387-12.542c-4.267-2.805-8.856-3.967-12.685-4.229
					c-3.853-0.269-6.979,0.285-9.063,0.83c-2.092,0.552-3.197,1.038-3.222,0.975c-0.009-0.021,0.262-0.151,0.789-0.38
					c0.524-0.232,1.317-0.535,2.365-0.844c2.082-0.626,5.238-1.261,9.161-1.048c3.895,0.206,8.602,1.342,12.986,4.184
					c4.371,2.789,8.404,7.211,10.67,12.806l-0.63,0.05c0.013-0.049,0.026-0.103,0.04-0.157c1.388-5.901,4.871-10.849,8.937-14.098
					c4.077-3.313,8.725-4.833,12.614-5.291c3.92-0.471,7.126,0.02,9.24,0.565c1.063,0.268,1.871,0.544,2.405,0.761
					C149.926,115.29,150.203,115.412,150.194,115.433z"/>
			</g>
		</g>
		<g>
			<g>
				<path fill="#263238" d="M248.583,79.935c-0.021,0.055-0.645-0.18-1.811-0.42c-1.16-0.236-2.894-0.443-4.99-0.145
					c-2.082,0.292-4.539,1.139-6.687,2.918c-2.145,1.746-3.979,4.383-4.712,7.503l-0.021,0.083l-0.253,0.984l-0.378-0.933
					c-1.202-2.967-3.334-5.331-5.649-6.839c-2.32-1.535-4.818-2.179-6.909-2.336c-2.104-0.161-3.816,0.125-4.962,0.407
					c-1.151,0.285-1.766,0.534-1.788,0.481c-0.009-0.021,0.136-0.102,0.423-0.237c0.286-0.137,0.72-0.313,1.296-0.492
					c1.145-0.363,2.888-0.73,5.061-0.626c2.157,0.1,4.772,0.72,7.21,2.291c2.43,1.542,4.673,3.994,5.933,7.103l-0.631,0.051
					l0.022-0.087c0.772-3.282,2.711-6.028,4.974-7.827c2.27-1.834,4.855-2.667,7.011-2.908c2.174-0.248,3.946,0.041,5.109,0.359
					c0.585,0.157,1.028,0.318,1.319,0.447C248.443,79.837,248.591,79.914,248.583,79.935z"/>
			</g>
		</g>
		<g>
			<g>
				<path fill="#263238" d="M181.763,44.912c0.041,0.042-0.624,0.715-1.753,1.988c-1.13,1.271-2.672,3.202-4.279,5.778
					c-3.233,5.085-6.467,13.19-6.356,22.489c-0.001,0.097-0.001,0.194-0.002,0.283l-0.659,0.055
					c-0.687-4.537-2.201-8.701-4.112-12.18c-1.906-3.49-4.145-6.324-6.26-8.458c-2.113-2.14-4.04-3.649-5.427-4.602
					c-1.385-0.958-2.188-1.44-2.157-1.492c0.011-0.02,0.222,0.082,0.614,0.294c0.384,0.224,0.983,0.509,1.686,0.984
					c1.441,0.895,3.433,2.361,5.615,4.486c2.185,2.118,4.497,4.963,6.464,8.493c1.972,3.519,3.533,7.753,4.234,12.378l-0.66,0.054
					c0-0.091,0.001-0.189,0.002-0.288c-0.114-9.461,3.252-17.672,6.622-22.748c1.677-2.573,3.289-4.476,4.485-5.701
					c0.577-0.633,1.09-1.062,1.414-1.375C181.565,45.047,181.748,44.896,181.763,44.912z"/>
			</g>
		</g>
	</g>
</g>
<g id="Buildings">
	<g>
		<rect x="217.034" y="375.559" fill="#E0E0E0" width="268.58" height="6.221"/>
		<g>
			<g>
				<path fill="#263238" d="M219.739,381.904c0,0-0.014-0.117-0.021-0.357c-0.005-0.259-0.012-0.616-0.021-1.093
					c-0.009-1.001-0.022-2.488-0.04-4.518l0-0.081h0.082c15.844-0.121,68.071-0.21,129.947-0.21
					c37.532,0.033,71.506,0.063,96.119,0.086c12.283,0.038,22.23,0.07,29.128,0.092c3.423,0.023,6.088,0.042,7.919,0.055
					c0.891,0.012,1.575,0.021,2.06,0.028c0.464,0.01,0.702,0.03,0.702,0.03s-0.238,0.02-0.702,0.029
					c-0.484,0.007-1.169,0.017-2.06,0.029c-1.831,0.012-4.496,0.03-7.919,0.054c-6.897,0.022-16.844,0.054-29.128,0.093
					c-24.613,0.021-58.587,0.052-96.119,0.085c-61.876,0-114.103-0.089-129.947-0.209l0.081-0.081
					c-0.018,2.029-0.031,3.517-0.04,4.518c-0.009,0.477-0.016,0.834-0.021,1.093C219.753,381.787,219.739,381.904,219.739,381.904z"
					/>
			</g>
			<g>
				<ellipse fill="#263238" cx="251.723" cy="378.961" rx="0.29" ry="2.954"/>
			</g>
			<g>
				<ellipse fill="#263238" cx="286.942" cy="378.961" rx="0.291" ry="2.954"/>
			</g>
			<g>
				<ellipse fill="#263238" cx="322.162" cy="378.961" rx="0.29" ry="2.954"/>
			</g>
			<g>
				<ellipse fill="#263238" cx="357.38" cy="378.961" rx="0.29" ry="2.954"/>
			</g>
			<g>
				<ellipse fill="#263238" cx="392.599" cy="378.961" rx="0.29" ry="2.954"/>
			</g>
			<g>
				<ellipse fill="#263238" cx="427.819" cy="378.961" rx="0.29" ry="2.954"/>
			</g>
			<g>
				<ellipse fill="#263238" cx="463.038" cy="378.961" rx="0.29" ry="2.954"/>
			</g>
		</g>
	</g>
	<g>
		<g>
			<rect x="264.361" y="74.286" fill="#455A64" width="71.17" height="300.967"/>
		</g>
		<g>
			<g>
				<rect x="277.541" y="89.311" fill="#FFFFFF" width="21.631" height="41.685"/>
			</g>
			<g>
				<g>
					<ellipse fill="#263238" cx="288.965" cy="110.153" rx="0.289" ry="20.842"/>
				</g>
			</g>
			<g>
				<g>
					<ellipse fill="#263238" cx="288.356" cy="103.793" rx="10.815" ry="0.289"/>
				</g>
			</g>
			<g>
				<g>
					<ellipse fill="#263238" cx="288.381" cy="118.701" rx="10.905" ry="0.29"/>
				</g>
			</g>
		</g>
		<g>
			<g>
				<rect x="277.625" y="144.309" fill="#FFFFFF" width="21.631" height="41.684"/>
			</g>
			<g>
				<g>
					<ellipse fill="#263238" cx="289.05" cy="165.151" rx="0.289" ry="20.842"/>
				</g>
			</g>
			<g>
				<g>
					<ellipse fill="#263238" cx="288.441" cy="158.791" rx="10.815" ry="0.289"/>
				</g>
			</g>
			<g>
				<g>
					<ellipse fill="#263238" cx="288.466" cy="173.698" rx="10.905" ry="0.289"/>
				</g>
			</g>
		</g>
		<g>
			<g>
				<rect x="277.625" y="198.831" fill="#FFFFFF" width="21.631" height="41.685"/>
			</g>
			<g>
				<g>
					<ellipse fill="#263238" cx="289.05" cy="219.673" rx="0.289" ry="20.842"/>
				</g>
			</g>
			<g>
				<g>
					<ellipse fill="#263238" cx="288.441" cy="213.313" rx="10.815" ry="0.29"/>
				</g>
			</g>
			<g>
				<g>
					<ellipse fill="#263238" cx="288.466" cy="228.22" rx="10.905" ry="0.29"/>
				</g>
			</g>
		</g>
		<g>
			<g>
				<rect x="277.625" y="254.923" fill="#FFFFFF" width="21.631" height="41.684"/>
			</g>
			<g>
				<g>
					<ellipse fill="#263238" cx="289.05" cy="275.765" rx="0.289" ry="20.842"/>
				</g>
			</g>
			<g>
				<g>
					<ellipse fill="#263238" cx="288.441" cy="269.405" rx="10.815" ry="0.289"/>
				</g>
			</g>
			<g>
				<g>
					<ellipse fill="#263238" cx="288.466" cy="284.313" rx="10.905" ry="0.289"/>
				</g>
			</g>
		</g>
		<g>
			<rect x="313.942" y="74.286" fill="#455A64" width="51.855" height="300.967"/>
		</g>
		<g opacity="0.3">
			<rect x="313.942" y="74.286" width="51.855" height="300.967"/>
		</g>
		<g>
			<g>
				<rect x="328.662" y="89.311" fill="#FFFFFF" width="21.631" height="41.685"/>
			</g>
			<g>
				<g>
					<ellipse fill="#263238" cx="340.086" cy="110.153" rx="0.289" ry="20.842"/>
				</g>
			</g>
			<g>
				<g>
					<ellipse fill="#263238" cx="339.477" cy="103.793" rx="10.815" ry="0.289"/>
				</g>
			</g>
			<g>
				<g>
					<ellipse fill="#263238" cx="339.502" cy="118.701" rx="10.905" ry="0.29"/>
				</g>
			</g>
		</g>
		<g>
			<g>
				<rect x="328.746" y="145.881" fill="#FFFFFF" width="21.632" height="41.685"/>
			</g>
			<g>
				<g>
					<ellipse fill="#263238" cx="340.171" cy="166.724" rx="0.289" ry="20.842"/>
				</g>
			</g>
			<g>
				<g>
					<ellipse fill="#263238" cx="339.562" cy="160.363" rx="10.816" ry="0.289"/>
				</g>
			</g>
			<g>
				<g>
					<ellipse fill="#263238" cx="339.587" cy="175.271" rx="10.905" ry="0.29"/>
				</g>
			</g>
		</g>
		<g>
			<g>
				<rect x="328.746" y="198.831" fill="#FFFFFF" width="21.632" height="41.685"/>
			</g>
			<g>
				<g>
					<ellipse fill="#263238" cx="340.171" cy="219.673" rx="0.289" ry="20.842"/>
				</g>
			</g>
			<g>
				<g>
					<ellipse fill="#263238" cx="339.562" cy="213.313" rx="10.816" ry="0.29"/>
				</g>
			</g>
			<g>
				<g>
					<ellipse fill="#263238" cx="339.587" cy="228.22" rx="10.905" ry="0.29"/>
				</g>
			</g>
		</g>
		<g>
			<g>
				<rect x="329.629" y="255.827" fill="#FFFFFF" width="21.632" height="41.685"/>
			</g>
			<g>
				<g>
					<ellipse fill="#263238" cx="341.054" cy="276.669" rx="0.289" ry="20.842"/>
				</g>
			</g>
			<g>
				<g>
					<ellipse fill="#263238" cx="340.445" cy="270.308" rx="10.816" ry="0.29"/>
				</g>
			</g>
			<g>
				<g>
					<ellipse fill="#263238" cx="340.47" cy="285.216" rx="10.904" ry="0.289"/>
				</g>
			</g>
		</g>
		<g>
			<g>
				<rect x="277.625" y="312.341" fill="#FFFFFF" width="21.631" height="41.684"/>
			</g>
			<g>
				<g>
					<ellipse fill="#263238" cx="289.05" cy="333.183" rx="0.289" ry="20.842"/>
				</g>
			</g>
			<g>
				<g>
					<ellipse fill="#263238" cx="288.441" cy="326.823" rx="10.815" ry="0.289"/>
				</g>
			</g>
			<g>
				<g>
					<ellipse fill="#263238" cx="288.466" cy="341.731" rx="10.905" ry="0.289"/>
				</g>
			</g>
		</g>
		<g>
			<g>
				<rect x="328.746" y="314.127" fill="#FFFFFF" width="21.632" height="41.685"/>
			</g>
			<g>
				<g>
					<path fill="#263238" d="M340.171,355.812c-0.16,0-0.289-9.332-0.289-20.841c0-11.514,0.129-20.844,0.289-20.844
						c0.159,0,0.289,9.33,0.289,20.844C340.46,346.48,340.331,355.812,340.171,355.812z"/>
				</g>
			</g>
			<g>
				<g>
					<ellipse fill="#263238" cx="339.562" cy="328.61" rx="10.816" ry="0.289"/>
				</g>
			</g>
			<g>
				<g>
					<ellipse fill="#263238" cx="339.587" cy="343.517" rx="10.905" ry="0.29"/>
				</g>
			</g>
		</g>
	</g>
	<g>
		<g>
			<g>
				<rect x="401.214" y="204.828" fill="#FF725E" width="25.223" height="36.454"/>
			</g>
			<g opacity="0.3">
				<rect x="401.214" y="204.828" width="25.223" height="36.454"/>
			</g>
			<g>
				<rect x="378.524" y="204.828" fill="#FF725E" width="25.223" height="36.454"/>
			</g>
			<g>
				<g>
					<path fill="#263238" d="M384.552,233.924c-0.006,0.006-0.013-0.121-0.02-0.374c-0.006-0.283-0.013-0.656-0.021-1.125
						c-0.011-1.025-0.026-2.467-0.046-4.271c-0.021-3.718-0.049-8.92-0.082-15.003l-0.001-0.169h0.171
						c3.53-0.003,7.4-0.007,11.444-0.012c-0.036-0.041,0.345,0.346,0.184,0.186v0.006v0.012v0.023v0.046v0.093v0.186v0.372
						l-0.001,0.74c0,0.492,0,0.981,0,1.467c-0.001,0.972-0.002,1.931-0.002,2.875c-0.003,1.889-0.006,3.718-0.009,5.473
						c-0.012,3.503-0.022,6.704-0.032,9.475v0.139L396,234.062c-3.515-0.031-6.382-0.056-8.406-0.073
						c-0.96-0.015-1.719-0.026-2.27-0.035c-0.236-0.006-0.428-0.011-0.582-0.015C384.612,233.934,384.548,233.929,384.552,233.924
						c0.006-0.005,0.079-0.01,0.218-0.015c0.161-0.004,0.361-0.009,0.608-0.016c0.558-0.008,1.327-0.02,2.3-0.035
						c2.004-0.018,4.842-0.042,8.321-0.073l-0.138,0.138c-0.01-2.771-0.021-5.972-0.032-9.475c-0.003-1.754-0.006-3.584-0.009-5.473
						c0-0.944-0.001-1.904-0.002-2.875c0-0.486,0-0.975,0-1.467l-0.001-0.74v-0.372v-0.186v-0.093v-0.046v-0.023v-0.012v-0.006
						c-0.162-0.164,0.223,0.215,0.18,0.177c-4.044-0.004-7.914-0.008-11.444-0.012l0.169-0.169
						c-0.033,6.037-0.062,11.201-0.082,14.891c-0.02,1.82-0.035,3.275-0.046,4.31c-0.009,0.483-0.016,0.868-0.021,1.159
						C384.566,233.776,384.56,233.917,384.552,233.924z"/>
				</g>
			</g>
			<g>
				<g>
					<path fill="#263238" d="M386.844,224.657c-0.006-0.048,0.271-0.044,0.415,0.292c0.062,0.155,0.088,0.39-0.062,0.61
						c-0.15,0.228-0.486,0.302-0.743,0.204c-0.261-0.084-0.476-0.353-0.45-0.625c0.021-0.266,0.189-0.431,0.334-0.514
						C386.662,224.452,386.879,224.623,386.844,224.657c-0.017,0.05-0.191,0.02-0.36,0.178c-0.184,0.154-0.229,0.477,0.092,0.585
						c0.316,0.116,0.484-0.164,0.438-0.399C386.982,224.792,386.827,224.707,386.844,224.657z"/>
				</g>
			</g>
		</g>
		<g>
			<g>
				<rect x="352.837" y="234.525" fill="#FF725E" width="104.588" height="140.966"/>
			</g>
			<g>
				<polygon fill="#FF725E" points="415.542,375.492 471.637,375.559 471.637,234.525 415.542,234.525 				"/>
			</g>
			<g opacity="0.3">
				<polygon points="415.542,375.492 471.637,375.559 471.637,234.525 415.542,234.525 				"/>
			</g>
			<g>
				<g>
					<rect x="360.51" y="311.008" fill="#EBEBEB" width="19.131" height="19.131"/>
				</g>
				<g>
					<g>
						<ellipse fill="#455A64" cx="369.342" cy="321.018" rx="0.181" ry="11.04"/>
					</g>
				</g>
				<g>
					<g>
						<ellipse fill="#455A64" cx="369.343" cy="317.422" rx="12.425" ry="0.181"/>
					</g>
				</g>
			</g>
			<g>
				<g>
					<rect x="387.792" y="311.008" fill="#EBEBEB" width="19.132" height="19.131"/>
				</g>
				<g>
					<g>
						<ellipse fill="#455A64" cx="396.625" cy="321.018" rx="0.182" ry="11.04"/>
					</g>
				</g>
				<g>
					<g>
						<ellipse fill="#455A64" cx="396.625" cy="317.422" rx="12.425" ry="0.181"/>
					</g>
				</g>
			</g>
			<g>
				<g>
					<rect x="360.51" y="280.788" fill="#EBEBEB" width="19.131" height="19.131"/>
				</g>
				<g>
					<g>
						<ellipse fill="#455A64" cx="369.342" cy="290.797" rx="0.181" ry="11.04"/>
					</g>
				</g>
				<g>
					<g>
						<ellipse fill="#455A64" cx="369.343" cy="287.203" rx="12.425" ry="0.182"/>
					</g>
				</g>
			</g>
			<g>
				<g>
					<rect x="387.792" y="280.788" fill="#EBEBEB" width="19.132" height="19.131"/>
				</g>
				<g>
					<g>
						<ellipse fill="#455A64" cx="396.625" cy="290.797" rx="0.182" ry="11.04"/>
					</g>
				</g>
				<g>
					<g>
						<ellipse fill="#455A64" cx="396.625" cy="287.203" rx="12.425" ry="0.182"/>
					</g>
				</g>
			</g>
			<g>
				<g>
					<rect x="360.51" y="250.497" fill="#EBEBEB" width="19.131" height="19.131"/>
				</g>
				<g>
					<g>
						<ellipse fill="#455A64" cx="369.342" cy="260.507" rx="0.181" ry="11.04"/>
					</g>
				</g>
				<g>
					<g>
						<ellipse fill="#455A64" cx="369.343" cy="256.912" rx="12.425" ry="0.181"/>
					</g>
				</g>
			</g>
			<g>
				<g>
					<rect x="387.792" y="250.497" fill="#EBEBEB" width="19.132" height="19.131"/>
				</g>
				<g>
					<g>
						<ellipse fill="#455A64" cx="396.625" cy="260.507" rx="0.182" ry="11.04"/>
					</g>
				</g>
				<g>
					<g>
						<ellipse fill="#455A64" cx="396.625" cy="256.912" rx="12.425" ry="0.181"/>
					</g>
				</g>
			</g>
			<g>
				<g opacity="0.7">
					<rect x="434.756" y="250.497" fill="#FFFFFF" width="19.131" height="19.131"/>
				</g>
				<g>
					<g>
						<ellipse fill="#263238" cx="444.322" cy="260.507" rx="0.181" ry="11.04"/>
					</g>
				</g>
				<g>
					<g>
						<ellipse fill="#263238" cx="443.589" cy="256.912" rx="12.425" ry="0.181"/>
					</g>
				</g>
			</g>
			<g>
				<g opacity="0.7">
					<rect x="434.756" y="281.086" fill="#FFFFFF" width="19.131" height="19.131"/>
				</g>
				<g>
					<g>
						<ellipse fill="#263238" cx="444.322" cy="291.095" rx="0.181" ry="11.04"/>
					</g>
				</g>
				<g>
					<g>
						<ellipse fill="#263238" cx="443.589" cy="287.5" rx="12.425" ry="0.182"/>
					</g>
				</g>
			</g>
			<g>
				<g opacity="0.7">
					<rect x="434.756" y="311.674" fill="#FFFFFF" width="19.131" height="19.132"/>
				</g>
				<g>
					<g>
						<ellipse fill="#263238" cx="444.322" cy="321.685" rx="0.181" ry="11.041"/>
					</g>
				</g>
				<g>
					<g>
						<ellipse fill="#263238" cx="443.589" cy="318.089" rx="12.425" ry="0.181"/>
					</g>
				</g>
			</g>
		</g>
		<g>
			<g>
				<path fill="#263238" d="M374.49,374.858c-0.006,0-0.011-0.058-0.017-0.171c-0.004-0.132-0.009-0.298-0.016-0.505
					c-0.007-0.469-0.017-1.121-0.029-1.954c-0.013-1.727-0.03-4.199-0.053-7.281c-0.016-6.223-0.037-14.906-0.063-24.854
					l-0.001-0.177h0.178c3.18-0.001,6.525-0.003,9.961-0.004c3.319,0.001,6.554,0.003,9.644,0.004h0.178l-0.001,0.177
					c-0.025,10.028-0.047,18.793-0.063,25.076c-0.022,3.113-0.04,5.61-0.053,7.354c-0.013,0.843-0.022,1.502-0.03,1.975
					c-0.006,0.21-0.012,0.378-0.016,0.511c-0.005,0.114-0.011,0.173-0.016,0.173c-0.006,0-0.011-0.059-0.017-0.173
					c-0.004-0.133-0.009-0.301-0.016-0.511c-0.007-0.473-0.017-1.132-0.029-1.975c-0.013-1.744-0.03-4.241-0.053-7.354
					c-0.016-6.283-0.038-15.048-0.063-25.076l0.177,0.177c-3.09,0.002-6.324,0.003-9.644,0.005
					c-3.436-0.002-6.781-0.003-9.961-0.005l0.177-0.177c-0.025,9.948-0.048,18.632-0.063,24.854
					c-0.022,3.082-0.04,5.555-0.053,7.281c-0.012,0.833-0.022,1.485-0.029,1.954c-0.007,0.207-0.012,0.373-0.016,0.505
					C374.5,374.8,374.495,374.858,374.49,374.858z"/>
			</g>
		</g>
		<g>
			<rect x="384.945" y="342.157" fill="#E0E0E0" width="6.683" height="15.994"/>
			<path fill="#263238" d="M391.645,358.168h-6.718v-16.03h6.718V358.168z M384.962,358.133h6.647v-15.959h-6.647V358.133z"/>
		</g>
		<g>
			<rect x="376.957" y="342.157" fill="#E0E0E0" width="6.682" height="15.994"/>
			<path fill="#263238" d="M383.656,358.168h-6.717v-16.03h6.717V358.168z M376.974,358.133h6.646v-15.959h-6.646V358.133z"/>
		</g>
		<g>
			<g>
				<path fill="#263238" d="M376.82,359.805c0.012,0.057-0.326,0.053-0.483,0.432c-0.07,0.175-0.11,0.449,0.004,0.643
					c0.11,0.204,0.39,0.37,0.64,0.318c0.253-0.05,0.449-0.305,0.483-0.539c0.043-0.237-0.076-0.449-0.227-0.577
					c-0.313-0.267-0.622-0.199-0.627-0.254c-0.033-0.031,0.31-0.236,0.78,0.048c0.218,0.131,0.448,0.442,0.404,0.824
					c-0.035,0.359-0.295,0.754-0.743,0.854c-0.456,0.082-0.848-0.191-1.008-0.521c-0.164-0.361-0.058-0.688,0.065-0.913
					c0.136-0.231,0.353-0.341,0.494-0.354C376.748,359.748,376.821,359.784,376.82,359.805z"/>
			</g>
		</g>
		<g>
			<g>
				<path fill="#263238" d="M356.255,340.09c0,0-0.006-0.073-0.009-0.224c-0.004-0.19-0.008-0.41-0.012-0.669
					c-0.007-0.653-0.016-1.504-0.025-2.545l-0.001-0.046h0.048c2.718-0.007,6.7-0.016,11.161-0.026
					c0.032,0.032-0.072-0.072,0.073,0.073l0,0v0.002v0.004v0.007v0.014v0.028v0.056v0.111v0.222v0.441
					c-0.001,0.293-0.001,0.583-0.001,0.87c0,0.574-0.001,1.136-0.001,1.682l-0.001,0.071l-0.07-0.001
					c-3.176-0.013-5.951-0.023-8.01-0.032c-0.944-0.008-1.724-0.015-2.326-0.02c-0.237-0.004-0.44-0.007-0.618-0.01
					C356.324,340.096,356.252,340.093,356.255,340.09c0,0,0.08-0.006,0.226-0.009c0.182-0.003,0.39-0.006,0.633-0.009
					c0.607-0.006,1.391-0.012,2.342-0.021c2.047-0.008,4.806-0.02,7.962-0.032l-0.07,0.07c0-0.546-0.001-1.107-0.001-1.682
					c-0.001-0.287-0.001-0.577-0.001-0.87v-0.441v-0.222v-0.111v-0.056v-0.028v-0.014v-0.007v-0.004v-0.002l0,0
					c0.146,0.144,0.04,0.04,0.072,0.072c-4.461-0.011-8.443-0.021-11.161-0.026l0.046-0.047c-0.011,1.03-0.02,1.871-0.025,2.517
					c-0.005,0.264-0.009,0.486-0.012,0.68C356.262,340.004,356.255,340.09,356.255,340.09z"/>
			</g>
		</g>
		<g>
			<g>
				<path fill="#263238" d="M399.677,332.975c0,0-0.006-0.073-0.01-0.224c-0.003-0.19-0.007-0.41-0.011-0.669
					c-0.007-0.653-0.016-1.504-0.025-2.544l-0.001-0.047h0.047c2.719-0.007,6.701-0.016,11.161-0.026
					c0.033,0.033-0.071-0.072,0.073,0.073v0.001v0.001v0.004v0.007v0.014v0.028v0.056v0.111v0.222v0.441c0,0.293,0,0.583,0,0.87
					c-0.001,0.574-0.001,1.136-0.002,1.682v0.071h-0.07c-3.176-0.014-5.951-0.024-8.01-0.033c-0.945-0.008-1.724-0.015-2.326-0.02
					c-0.238-0.004-0.44-0.007-0.618-0.009C399.746,332.982,399.674,332.978,399.677,332.975c0,0,0.08-0.006,0.226-0.009
					c0.182-0.003,0.39-0.006,0.633-0.009c0.607-0.005,1.391-0.012,2.342-0.021c2.047-0.008,4.806-0.02,7.962-0.032l-0.07,0.07
					c-0.001-0.546-0.001-1.107-0.002-1.682c0-0.287,0-0.577,0-0.87v-0.441v-0.222v-0.111v-0.056v-0.028v-0.014v-0.007v-0.004v-0.001
					v-0.001c0.145,0.145,0.04,0.04,0.071,0.072c-4.46-0.011-8.442-0.02-11.161-0.026l0.047-0.046
					c-0.011,1.029-0.02,1.87-0.026,2.517c-0.004,0.263-0.008,0.485-0.011,0.679C399.683,332.89,399.677,332.975,399.677,332.975z"/>
			</g>
		</g>
		<g>
			<g>
				<path fill="#263238" d="M406.643,305.002c0,0-0.006-0.073-0.01-0.225c-0.003-0.19-0.007-0.409-0.011-0.669
					c-0.007-0.652-0.016-1.503-0.025-2.544l-0.001-0.047h0.047c2.719-0.006,6.701-0.016,11.162-0.025
					c0.032,0.032-0.072-0.073,0.073,0.072v0.001v0.002v0.003v0.007v0.015v0.027v0.056v0.111v0.223v0.44
					c-0.001,0.293-0.001,0.584-0.001,0.871c0,0.573-0.001,1.136-0.002,1.682v0.07h-0.07c-3.176-0.013-5.951-0.024-8.01-0.032
					c-0.945-0.009-1.723-0.015-2.326-0.021c-0.237-0.003-0.44-0.006-0.618-0.009C406.711,305.008,406.64,305.005,406.643,305.002
					c0,0,0.08-0.006,0.226-0.009c0.182-0.003,0.39-0.006,0.633-0.01c0.607-0.005,1.391-0.012,2.343-0.02
					c2.046-0.009,4.805-0.02,7.961-0.032l-0.07,0.07c0-0.546-0.001-1.108-0.001-1.682c-0.001-0.287-0.001-0.578-0.001-0.871v-0.44
					v-0.223v-0.111v-0.056v-0.027v-0.015v-0.007v-0.003v-0.002v-0.001c0.146,0.145,0.04,0.04,0.072,0.072
					c-4.461-0.011-8.443-0.02-11.162-0.026l0.047-0.046c-0.011,1.029-0.02,1.871-0.025,2.517c-0.005,0.263-0.009,0.486-0.012,0.68
					C406.65,304.917,406.643,305.002,406.643,305.002z"/>
			</g>
		</g>
		<g>
			<g>
				<path fill="#263238" d="M366.514,274.895c0,0-0.006-0.073-0.01-0.224c-0.003-0.19-0.007-0.41-0.011-0.669
					c-0.007-0.653-0.016-1.503-0.025-2.545l-0.001-0.046h0.047c2.719-0.007,6.701-0.016,11.162-0.026
					c0.032,0.032-0.072-0.072,0.073,0.073l0,0v0.002v0.004v0.007v0.014v0.028v0.056v0.111v0.222l-0.001,0.441
					c0,0.293,0,0.583,0,0.87c0,0.574-0.001,1.136-0.001,1.682l-0.001,0.071l-0.07-0.001c-3.176-0.013-5.951-0.023-8.01-0.032
					c-0.945-0.008-1.723-0.015-2.326-0.02c-0.237-0.004-0.44-0.007-0.618-0.009C366.583,274.901,366.511,274.898,366.514,274.895
					c0,0,0.08-0.006,0.226-0.009c0.182-0.003,0.39-0.006,0.633-0.009c0.607-0.006,1.391-0.012,2.343-0.021
					c2.046-0.008,4.805-0.02,7.961-0.032l-0.07,0.07c0-0.546-0.001-1.107-0.001-1.682c-0.001-0.287-0.001-0.577-0.001-0.87v-0.441
					v-0.222v-0.111v-0.056v-0.028v-0.014v-0.007v-0.004v-0.002l0,0c0.146,0.145,0.04,0.04,0.072,0.072
					c-4.461-0.011-8.443-0.02-11.162-0.026l0.047-0.047c-0.011,1.03-0.02,1.871-0.025,2.518c-0.005,0.263-0.009,0.485-0.012,0.679
					C366.521,274.809,366.514,274.895,366.514,274.895z"/>
			</g>
		</g>
		<g>
			<g>
				<path fill="#263238" d="M398.278,242.762c0,0-0.006-0.074-0.01-0.224c-0.003-0.19-0.007-0.41-0.011-0.669
					c-0.007-0.653-0.016-1.503-0.026-2.544v-0.046h0.047c2.719-0.006,6.701-0.016,11.161-0.026c0.033,0.032-0.071-0.073,0.073,0.072
					v0.001v0.001v0.004v0.007v0.014v0.028v0.056v0.111v0.222v0.441c0,0.292,0,0.583,0,0.87c-0.001,0.574-0.001,1.136-0.002,1.682
					v0.071h-0.07c-3.176-0.013-5.951-0.024-8.011-0.032c-0.944-0.008-1.723-0.015-2.325-0.02c-0.238-0.004-0.44-0.007-0.618-0.009
					C398.346,242.768,398.275,242.765,398.278,242.762c0,0,0.08-0.006,0.226-0.009c0.182-0.002,0.39-0.005,0.633-0.009
					c0.607-0.005,1.391-0.012,2.342-0.02c2.047-0.009,4.806-0.02,7.962-0.033l-0.07,0.07c0-0.546-0.001-1.107-0.002-1.682
					c0-0.287,0-0.578,0-0.87v-0.441v-0.222v-0.111v-0.056v-0.028v-0.014v-0.007v-0.004v-0.001v-0.001
					c0.145,0.145,0.039,0.04,0.071,0.072c-4.461-0.01-8.442-0.02-11.161-0.026l0.047-0.046c-0.011,1.029-0.02,1.871-0.025,2.517
					c-0.005,0.263-0.009,0.486-0.012,0.679C398.284,242.676,398.278,242.762,398.278,242.762z"/>
			</g>
		</g>
		<g>
			<g>
				<path fill="#263238" d="M359.75,278.224c0,0-0.006-0.073-0.01-0.224c-0.003-0.19-0.007-0.41-0.011-0.67
					c-0.007-0.652-0.016-1.503-0.025-2.544l-0.001-0.046h0.047c2.719-0.007,6.701-0.017,11.162-0.026
					c0.032,0.032-0.072-0.073,0.073,0.072v0.001v0.002v0.003v0.008v0.014v0.027v0.056v0.111v0.223l-0.001,0.441
					c0,0.292,0,0.583,0,0.87c-0.001,0.574-0.001,1.136-0.002,1.682v0.07h-0.07c-3.176-0.013-5.951-0.024-8.01-0.032
					c-0.945-0.009-1.724-0.015-2.326-0.02c-0.237-0.004-0.44-0.007-0.618-0.01C359.819,278.23,359.748,278.227,359.75,278.224
					c0,0,0.08-0.006,0.226-0.009c0.182-0.003,0.39-0.006,0.633-0.01c0.607-0.005,1.392-0.012,2.342-0.02
					c2.047-0.009,4.806-0.02,7.962-0.032l-0.07,0.07c0-0.546-0.001-1.107-0.001-1.682c0-0.287-0.001-0.578-0.001-0.87v-0.441v-0.223
					v-0.111v-0.056v-0.027V274.8v-0.008v-0.003v-0.002v-0.001c0.146,0.145,0.04,0.04,0.072,0.072
					c-4.461-0.01-8.443-0.02-11.162-0.025l0.047-0.047c-0.011,1.029-0.02,1.871-0.025,2.517c-0.005,0.263-0.009,0.486-0.012,0.68
					C359.757,278.138,359.75,278.224,359.75,278.224z"/>
			</g>
		</g>
		<g>
			<g>
				<path fill="#263238" d="M411.432,308.37c0,0-0.007-0.073-0.01-0.224c-0.003-0.19-0.007-0.41-0.012-0.669
					c-0.006-0.653-0.015-1.504-0.025-2.545v-0.046h0.047c2.719-0.007,6.7-0.016,11.161-0.026c0.033,0.032-0.071-0.072,0.073,0.072
					v0.001v0.002v0.004v0.007v0.014v0.028v0.056v0.111v0.222v0.441c0,0.293,0,0.583,0,0.87c-0.001,0.574-0.002,1.136-0.002,1.682
					v0.071l-0.07-0.001c-3.176-0.013-5.951-0.023-8.011-0.032c-0.944-0.008-1.723-0.015-2.325-0.02
					c-0.238-0.004-0.441-0.007-0.618-0.01C411.5,308.375,411.429,308.373,411.432,308.37c0,0,0.08-0.006,0.226-0.009
					c0.182-0.003,0.39-0.006,0.633-0.009c0.607-0.006,1.391-0.012,2.342-0.021c2.047-0.008,4.806-0.02,7.962-0.032l-0.07,0.07
					c-0.001-0.546-0.001-1.107-0.002-1.682c0-0.287,0-0.577,0-0.87v-0.441v-0.222v-0.111v-0.056v-0.028v-0.014v-0.007v-0.004v-0.002
					v-0.001c0.145,0.146,0.039,0.04,0.071,0.073c-4.461-0.011-8.442-0.021-11.161-0.026l0.046-0.047
					c-0.01,1.03-0.019,1.871-0.025,2.517c-0.004,0.264-0.008,0.486-0.011,0.68C411.438,308.285,411.432,308.37,411.432,308.37z"/>
			</g>
		</g>
		<g>
			<g>
				<path fill="#263238" d="M406.643,246.199c0,0-0.006-0.073-0.01-0.224c-0.003-0.19-0.007-0.41-0.011-0.669
					c-0.007-0.653-0.016-1.504-0.025-2.544l-0.001-0.047h0.047c2.719-0.006,6.701-0.016,11.162-0.026
					c0.032,0.032-0.072-0.073,0.073,0.073v0.001v0.001v0.003v0.007v0.014v0.028v0.056v0.111v0.222v0.441
					c-0.001,0.293-0.001,0.583-0.001,0.871c0,0.574-0.001,1.136-0.002,1.682v0.071h-0.07c-3.176-0.013-5.951-0.024-8.01-0.033
					c-0.945-0.008-1.723-0.015-2.326-0.02c-0.237-0.003-0.44-0.006-0.618-0.009C406.711,246.205,406.64,246.202,406.643,246.199
					c0,0,0.08-0.006,0.226-0.009c0.182-0.002,0.39-0.006,0.633-0.009c0.607-0.005,1.391-0.012,2.343-0.02
					c2.046-0.009,4.805-0.02,7.961-0.033l-0.07,0.07c0-0.546-0.001-1.108-0.001-1.682c-0.001-0.287-0.001-0.578-0.001-0.871v-0.441
					v-0.222v-0.111v-0.056v-0.028v-0.014v-0.007v-0.003v-0.001v-0.001c0.146,0.145,0.04,0.04,0.072,0.072
					c-4.461-0.01-8.443-0.02-11.162-0.026l0.047-0.046c-0.011,1.029-0.02,1.871-0.025,2.517c-0.005,0.263-0.009,0.486-0.012,0.679
					C406.65,246.114,406.643,246.199,406.643,246.199z"/>
			</g>
		</g>
		<g>
			<g>
				<path fill="#263238" d="M352.635,343.532c0,0-0.007-0.073-0.01-0.224c-0.003-0.19-0.007-0.41-0.012-0.669
					c-0.006-0.653-0.015-1.504-0.025-2.545v-0.046h0.047c2.719-0.007,6.7-0.016,11.161-0.026c0.032,0.032-0.071-0.072,0.073,0.072
					v0.001v0.002v0.004v0.007v0.014v0.028v0.056v0.111v0.222v0.441c0,0.292,0,0.583,0,0.87c-0.001,0.574-0.002,1.136-0.002,1.682
					v0.07h-0.07c-3.176-0.013-5.951-0.023-8.011-0.032c-0.944-0.008-1.723-0.015-2.325-0.02c-0.238-0.004-0.441-0.007-0.618-0.01
					C352.704,343.538,352.632,343.535,352.635,343.532c0,0,0.08-0.006,0.225-0.009c0.183-0.003,0.39-0.006,0.634-0.009
					c0.606-0.006,1.391-0.013,2.342-0.021c2.047-0.008,4.806-0.02,7.962-0.032l-0.07,0.07c-0.001-0.546-0.001-1.107-0.002-1.682
					c0-0.287,0-0.578,0-0.87v-0.441v-0.222v-0.111v-0.056v-0.028v-0.014v-0.007v-0.004v-0.002v-0.001
					c0.145,0.145,0.039,0.04,0.071,0.072c-4.461-0.01-8.442-0.02-11.161-0.025l0.046-0.047c-0.01,1.03-0.019,1.871-0.025,2.517
					c-0.004,0.264-0.008,0.486-0.011,0.68C352.641,343.446,352.635,343.532,352.635,343.532z"/>
			</g>
		</g>
	</g>
</g>
<g id="Address">
	<g>
		<g>
			<polygon fill="#FFFFFF" points="449.403,114.298 353.026,114.298 353.026,181.376 389.073,181.376 401.371,194.748 
				413.606,181.376 449.403,181.376 			"/>
			<g>
				<g>
					<path fill="#263238" d="M449.403,114.298c0,0,0.016,0.394,0.022,1.181c0.006,0.804,0.014,1.974,0.023,3.5
						c0.012,3.099,0.03,7.632,0.053,13.438c0.026,11.68,0.063,28.466,0.108,48.958l0.001,0.207h-0.208
						c-10.791,0.01-22.875,0.021-35.797,0.033l0.176-0.078c-3.869,4.234-7.996,8.75-12.228,13.378l-0.184,0.201l-0.185-0.2
						c-3.902-4.24-8.062-8.759-12.302-13.367l0.188,0.083c-9.714,0.001-19.829,0.003-30.16,0.004c-1.976,0-3.944,0-5.887,0h-0.261
						v-0.26c0.009-24.085,0.018-46.856,0.025-67.078v-0.235l0.235,0c28.598,0.048,52.712,0.088,69.695,0.117
						c8.455,0.027,15.131,0.048,19.709,0.063c2.266,0.012,4.009,0.021,5.202,0.028c0.577,0.006,1.019,0.01,1.33,0.014
						C449.259,114.289,449.403,114.298,449.403,114.298s-0.162,0.009-0.468,0.014c-0.317,0.003-0.768,0.008-1.355,0.014
						c-1.204,0.006-2.963,0.016-5.249,0.028c-4.591,0.015-11.284,0.036-19.763,0.063c-16.945,0.029-41.008,0.069-69.542,0.117
						l0.234-0.235c0.008,20.222,0.017,42.993,0.025,67.078l-0.26-0.26c1.942,0,3.911,0,5.887,0
						c10.331,0.001,20.446,0.003,30.16,0.004h0.112l0.076,0.083c4.237,4.611,8.394,9.133,12.292,13.376l-0.367,0
						c4.236-4.624,8.368-9.135,12.243-13.364l0.071-0.078h0.105c12.922,0.012,25.006,0.022,35.797,0.032l-0.207,0.207
						c0.046-20.438,0.083-37.18,0.109-48.829c0.022-5.826,0.04-10.375,0.053-13.485c0.01-1.543,0.018-2.726,0.023-3.539
						C449.388,114.722,449.403,114.298,449.403,114.298z"/>
				</g>
			</g>
		</g>
		<g>
			<g>
				<path fill="#FF725E" d="M400.828,72.459c-10.891,0.253-19.771,9.129-20.03,20.019c-0.11,4.664,1.34,8.982,3.858,12.479
					l-0.005,0.001l0.199,0.272c0.01,0.013,0.02,0.026,0.028,0.039l14.532,19.766c1.279,1.74,3.897,1.685,5.103-0.107l13.135-19.527
					c2.486-3.791,4.19-7.753,4.19-12.424C421.838,81.48,412.385,72.191,400.828,72.459z M401.315,107.902
					c-8.521,0-15.43-6.908-15.43-15.43c0-8.522,6.908-15.43,15.43-15.43s15.43,6.908,15.43,15.43
					C416.745,100.994,409.836,107.902,401.315,107.902z"/>
			</g>
			<g opacity="0.3">
				<path d="M400.828,72.459c-10.891,0.253-19.771,9.129-20.03,20.019c-0.11,4.664,1.34,8.982,3.858,12.479l-0.005,0.001
					l0.199,0.272c0.01,0.013,0.02,0.026,0.028,0.039l14.532,19.766c1.279,1.74,3.897,1.685,5.103-0.107l13.135-19.527
					c2.486-3.791,4.19-7.753,4.19-12.424C421.838,81.48,412.385,72.191,400.828,72.459z M401.315,107.902
					c-8.521,0-15.43-6.908-15.43-15.43c0-8.522,6.908-15.43,15.43-15.43s15.43,6.908,15.43,15.43
					C416.745,100.994,409.836,107.902,401.315,107.902z"/>
			</g>
			<g>
				<path fill="#FF725E" d="M399.611,72.459c-10.891,0.253-19.771,9.129-20.029,20.019c-0.111,4.664,1.339,8.982,3.858,12.479
					l-0.006,0.001l0.2,0.272c0.009,0.013,0.019,0.026,0.028,0.039l14.532,19.766c1.279,1.74,3.896,1.685,5.102-0.107l13.136-19.527
					c2.485-3.791,4.19-7.753,4.19-12.424C420.623,81.48,411.168,72.191,399.611,72.459z M400.099,105.121
					c-6.454,0-11.687-5.232-11.687-11.686c0-6.454,5.232-11.686,11.687-11.686c6.453,0,11.686,5.231,11.686,11.686
					C411.785,99.889,406.552,105.121,400.099,105.121z"/>
			</g>
		</g>
		<text transform="matrix(1 0 0 1 362.104 145.3726)" fill="#263238" font-family="'Montserrat-ExtraBold'" font-size="5.0607">ADDRESS:</text>
		<text transform="matrix(1 0 0 1 362.104 170.3008)" fill="#263238" font-family="'Montserrat-ExtraBold'" font-size="5.0607">POST CODE :</text>
		<text transform="matrix(1 0 0 1 362.104 153.0635)" fill="#263238" font-family="'Montserrat-ExtraBold'" font-size="5.0607">CITY:</text>
		<text transform="matrix(1 0 0 1 363.3716 133.9502)" fill="#263238" font-family="'Montserrat-ExtraBold'" font-size="7.0045">DELIVERY ADDRESS</text>
		<g>
			<g>
				<g>
					<ellipse cx="414.219" cy="142.667" rx="21.274" ry="0.261"/>
				</g>
			</g>
		</g>
		<g>
			<g>
				<g>
					<ellipse cx="397.983" cy="151.19" rx="17.573" ry="0.261"/>
				</g>
			</g>
		</g>
		<text transform="matrix(1 0 0 1 362.104 161.3398)" fill="#263238" font-family="'Montserrat-ExtraBold'" font-size="5.0607">COUNTRY:</text>
		<g>
			<g>
				<g>
					<ellipse cx="406.009" cy="160.054" rx="13.064" ry="0.26"/>
				</g>
			</g>
		</g>
		<g>
			<g>
				<g>
					<ellipse cx="419.074" cy="170.302" rx="20.11" ry="0.26"/>
				</g>
			</g>
		</g>
	</g>
</g>
<g id="Character_1_">
	<polygon fill="#E0E0E0" points="106.629,431.776 9.218,431.776 14.704,426.36 109.835,426.36 	"/>
	<g>
		<path fill="#263238" d="M188.445,317.616c0.034,0.047,0.698-0.36,1.746-1.056c1.047-0.696,2.478-1.681,4.043-2.789
			c0.271-0.192,0.537-0.382,0.792-0.563l-0.299-0.066c0.839,1.468,1.597,2.755,2.157,3.669c0.56,0.913,0.921,1.454,0.966,1.428
			c0.046-0.025-0.232-0.613-0.728-1.563s-1.209-2.262-2.037-3.736l-0.111-0.199l-0.188,0.132c-0.255,0.18-0.522,0.368-0.793,0.56
			c-1.565,1.108-2.969,2.131-3.973,2.889C189.016,317.077,188.412,317.569,188.445,317.616z"/>
		<g>
			<g>
				<g>
					<g>
						<g>
							<g>
								<g>
									<g>
										<circle fill="#263238" cx="269.521" cy="425.788" r="32.709"/>
									</g>
								</g>
							</g>
						</g>
					</g>
				</g>
				<g>
					<g>
						<g>
							<g>
								<g>
									<g>
										<path fill="#263238" d="M236.821,425.232c-0.001,0.028-0.005,0.056-0.006,0.084c-0.26,18.063,14.171,32.917,32.234,33.178
											c18.063,0.261,32.917-14.171,33.178-32.233c0-0.028-0.004-0.057-0.003-0.085L236.821,425.232z"/>
									</g>
								</g>
							</g>
						</g>
					</g>
				</g>
				<g>
					<g>
						<g>
							<g>
								<g>
									<g>
										<circle fill="#FAFAFA" cx="269.521" cy="425.789" r="22.964"/>
									</g>
								</g>
							</g>
						</g>
					</g>
				</g>
				<g>
					<g>
						<g>
							<g>
								<g>
									<g>
										<path fill="#E0E0E0" d="M269.852,402.827c-12.682-0.184-23.11,9.949-23.292,22.631l45.923,0.662
											C292.666,413.438,282.534,403.009,269.852,402.827z"/>
									</g>
								</g>
							</g>
						</g>
					</g>
				</g>
				<g>
					<g>
						<g>
							<g>
								<g>
									<g>
										<circle fill="#263238" cx="269.521" cy="425.788" r="13.989"/>
									</g>
								</g>
							</g>
						</g>
					</g>
				</g>
			</g>
			<g>
				<g>
					<path fill="#455A64" d="M253.995,377.828c0,0,33.489-10.129,47.34,26.254l-70.079,21.706L253.995,377.828z"/>
				</g>
			</g>
			<g>
				<g>
					<g>
						<g>
							<g>
								<g>
									<g>
										<circle fill="#263238" cx="67.701" cy="425.788" r="32.709"/>
									</g>
								</g>
							</g>
						</g>
					</g>
				</g>
				<g>
					<g>
						<g>
							<g>
								<g>
									<g>
										<path fill="#263238" d="M35.001,425.232c-0.001,0.028-0.005,0.056-0.006,0.084c-0.261,18.063,14.171,32.917,32.234,33.178
											s32.917-14.171,33.178-32.233c0-0.028-0.003-0.057-0.003-0.085L35.001,425.232z"/>
									</g>
								</g>
							</g>
						</g>
					</g>
				</g>
				<g>
					<g>
						<g>
							<g>
								<g>
									<g>
										<circle fill="#FAFAFA" cx="67.701" cy="425.789" r="22.964"/>
									</g>
								</g>
							</g>
						</g>
					</g>
				</g>
				<g>
					<g>
						<g>
							<g>
								<g>
									<g>
										<path fill="#E0E0E0" d="M68.032,402.827c-12.681-0.184-23.109,9.949-23.292,22.631l45.923,0.662
											C90.846,413.438,80.714,403.009,68.032,402.827z"/>
									</g>
								</g>
							</g>
						</g>
					</g>
				</g>
				<g>
					<g>
						<g>
							<g>
								<g>
									<g>
										<circle fill="#263238" cx="67.702" cy="425.788" r="13.989"/>
									</g>
								</g>
							</g>
						</g>
					</g>
				</g>
			</g>
			<g>
				<g>
					<path fill="#455A64" d="M114.226,412.657c-0.182,0.093-17.213-2.633-17.213-2.633l0,0c-1.866,2.432-4.708,3.92-7.77,4.066
						c-7.356,0.353-14.551,0.677-20.779,0.955c-5.812,0.26-10.313,5.174-10.068,10.986l0,0.008
						c0.232,5.494,4.641,9.891,10.135,10.107l36.222,1.426c5.956,0.234,13.875-3.387,17.593-8.044l0,0L114.226,412.657z"/>
				</g>
			</g>
			<g>
				<g>
					<path fill="#455A64" d="M25.237,398.182c0,0-1.558-31.877,28.399-38.519v-4.087h104.946v9.746c0,0-15.403,18.547-10.374,33.95
						c5.029,15.404,6.601,16.976,6.601,16.976h59.729c0,0,7.23-9.116,7.545-22.634s-5.303-36.633-9.495-51.407
						c-3.812-13.435-6.223-24.668-6.223-24.668l17.919-5.973c0,0,33.156,43.352,34.509,45.789c1.354,2.438,5.96,8.126,4.876,20.586
						c-1.083,12.46-30.878,50.923-38.733,55.256c-7.855,4.334-14.897,4.605-21.94,5.688c-6.113,0.94-51.331,0.318-63.158,0.138
						c-4.108-0.063-8.165-1.112-11.677-3.242c-3.537-2.145-6.197-5.693-9.133-11.521l-6.23-12.189L25.237,398.182z"/>
				</g>
			</g>
			<g>
				<g>
					<path fill="#455A64" d="M33.269,395.964l-13.22,20.704c-1.692,2.65,1.045,5.986,3.931,4.736
						c1.399-0.606,2.906-1.555,4.434-3.008c6.046-5.752,16.822-20.902,16.822-20.902L33.269,395.964z"/>
				</g>
			</g>
			<g>
				<g>
					<g>
						<path fill="#263238" d="M128.056,399.693c-0.007-0.002,0.02-0.104,0.077-0.302c0.066-0.215,0.154-0.503,0.266-0.869
							c0.225-0.766,0.496-1.915,0.692-3.416c0.337-2.98,0.184-7.532-2.045-12.495c-1.086-2.475-2.695-5.003-4.87-7.322
							c-2.185-2.304-4.883-4.433-8.033-6.129c-3.14-1.707-6.684-3.049-10.483-3.901c-3.8-0.853-7.839-1.236-11.972-1.237
							c-4.137-0.001-8.171,0.367-12.041,0.883c-3.871,0.522-7.587,1.164-11.084,1.962c-7,1.573-13.09,3.902-17.801,6.587
							c-4.728,2.667-8.08,5.576-10.173,7.762c-1.056,1.09-1.812,1.995-2.318,2.613c-0.239,0.3-0.427,0.534-0.568,0.711
							c-0.13,0.158-0.199,0.237-0.205,0.233c0,0,0.893-1.44,2.974-3.669c2.066-2.229,5.408-5.191,10.145-7.906
							c4.72-2.733,10.837-5.105,17.861-6.705c3.509-0.812,7.235-1.463,11.116-1.992c3.881-0.523,7.933-0.896,12.095-0.895
							c4.159,0,8.229,0.39,12.063,1.256c3.833,0.866,7.409,2.228,10.577,3.963c3.178,1.723,5.901,3.887,8.102,6.229
							c2.189,2.358,3.806,4.931,4.886,7.44c2.219,5.033,2.327,9.637,1.937,12.633c-0.222,1.511-0.521,2.66-0.773,3.421
							c-0.129,0.362-0.23,0.646-0.306,0.859C128.103,399.598,128.063,399.696,128.056,399.693z"/>
					</g>
				</g>
			</g>
			<g>
				<g>
					<g>
						<path fill="#F5F5F5" d="M122.01,392.536c-0.045-0.018,0.175-0.503,0.396-1.419c0.246-0.91,0.351-2.297,0.119-3.963
							c-0.229-1.669-0.871-3.604-1.95-5.557c-0.528-0.982-1.179-1.962-1.934-2.91c-0.744-0.958-1.62-1.868-2.601-2.693
							c-1.973-1.656-4.171-2.822-6.242-3.651c-2.086-0.806-4.055-1.289-5.727-1.564c-1.672-0.278-3.044-0.396-3.993-0.453
							c-0.949-0.059-1.476-0.081-1.476-0.113c0-0.015,0.132-0.027,0.383-0.036c0.251-0.006,0.622-0.027,1.099-0.014
							c0.955,0.008,2.339,0.081,4.033,0.325c1.693,0.241,3.694,0.699,5.82,1.498c2.111,0.822,4.353,1.997,6.37,3.689
							c1.007,0.847,1.898,1.779,2.653,2.76c0.767,0.971,1.422,1.974,1.952,2.979c1.081,2.001,1.708,3.988,1.904,5.701
							c0.2,1.71,0.045,3.128-0.254,4.042c-0.094,0.474-0.298,0.8-0.38,1.036C122.082,392.424,122.023,392.542,122.01,392.536z"/>
					</g>
				</g>
			</g>
			<g opacity="0.4">
				<g>
					<g>
						<path d="M101.458,364.609c5.866,1.119,10.992,3.223,15.803,6.434s8.492,7.757,10.586,13.149
							c2.094,5.392,1.78,12.532-0.423,16.999l7.415,0.613c2.497-8.324-0.222-18.542-6.221-25.061
							C121.58,369.097,111.899,364.609,101.458,364.609"/>
					</g>
				</g>
			</g>
			<g>
				<g>
					<g>
						<path fill="#263238" d="M158.531,359.291c0,0.114-23.587,0.208-52.676,0.208c-29.1,0-52.681-0.094-52.681-0.208
							c0-0.115,23.582-0.209,52.681-0.209C134.944,359.082,158.531,359.175,158.531,359.291z"/>
					</g>
				</g>
			</g>
			<g>
				<g>
					<path fill="#455A64" d="M158.583,355.577c0,0,1.731-2.064,1.896-4.701c0.166-2.636-1.036-5.931-3.872-5.931h-36.239
						c-5.872,0-10.632,4.76-10.632,10.632l0,0H158.583z"/>
				</g>
			</g>
			<g>
				<g>
					<path fill="#455A64" d="M206.365,317.54l-6.302-13.144c-1.723-3.737-0.349-8.172,3.186-10.28l18.844-11.24
						c0.985-0.588,2.112-0.898,3.259-0.898h4.072l1.631,26.565l-6.283,2.403l3.976,6.467L206.365,317.54z"/>
				</g>
			</g>
			<g>
				<g>
					<g>
						<path fill="#FFFFFF" d="M229.484,282.941c0,0,6.448,1.479,7.259,11.419s-5.687,13.033-5.687,13.033L229.484,282.941z"/>
						<g>
							<g>
								<path fill="#263238" d="M229.484,282.941c0.011,0.014,0.033,0.193,0.064,0.525c0.033,0.385,0.074,0.858,0.124,1.435
									c0.103,1.302,0.241,3.063,0.411,5.22c0.339,4.402,0.79,10.454,1.231,17.256l-0.37-0.217c0.639-0.34,1.304-0.84,1.887-1.404
									c1.308-1.265,2.268-2.812,2.843-4.433c0.58-1.618,0.86-3.282,0.883-4.874c0.059-3.182-0.546-6.072-1.587-8.233
									c-1.042-2.18-2.508-3.566-3.627-4.301C230.216,283.166,229.469,282.982,229.484,282.941
									c-0.012-0.016,0.204,0.007,0.539,0.123c0.339,0.122,0.844,0.314,1.429,0.68c1.178,0.697,2.734,2.085,3.849,4.308
									c1.115,2.209,1.77,5.15,1.737,8.409c-0.011,1.632-0.288,3.354-0.884,5.038c-0.591,1.687-1.589,3.308-2.962,4.633
									c-0.621,0.597-1.288,1.107-2.024,1.496l-0.345,0.183l-0.025-0.4c-0.441-6.925-0.776-13.1-1.002-17.491
									c-0.106-2.129-0.192-3.87-0.256-5.156c-0.022-0.551-0.041-1.003-0.056-1.37
									C229.473,283.083,229.473,282.928,229.484,282.941z"/>
							</g>
						</g>
					</g>
				</g>
			</g>
			<g>
				<g>
					<path fill="#263238" d="M206.272,299.572c0,0-17.172,8.137-19.267,9.473c-1.453,0.926-2.702,2.549-1.562,5.402
						c1.945,4.864,9.975,0.288,9.975,0.288l15.98-7.989c0,0,6.146-2.901,3.877-6.53
						C212.735,296.153,206.272,299.572,206.272,299.572z"/>
				</g>
			</g>
			<g>
				<g>
					<ellipse fill="#263238" cx="204.096" cy="279.943" rx="5.09" ry="8.974"/>
				</g>
			</g>
			<g>
				<g>
					<path fill="#263238" d="M204.932,286.113l2.795,9.688c1.249-0.634,1.509-1.878,1.301-2.86
						c-0.701-3.318-1.097-5.683-1.868-8.588C207.067,284.058,204.932,286.113,204.932,286.113"/>
				</g>
			</g>
			<g opacity="0.3">
				<g>
					<path d="M149.589,403.414c-0.277-0.799-0.559-1.616-0.826-2.455c-0.249-0.781-0.542-1.592-0.756-2.369
						c-0.383-1.391-0.605-2.824-0.699-3.651c-4.718,19.213,2.485,32.742,14.858,33.693c18.074,1.39,40.11,2.4,49.025,0.061
						c16.247-4.265,22.209-17.811,23.631-20.044c1.421-2.234,14.347-25.854,6.426-48.601c-7.92-22.745-21.724-46.894-21.724-46.895
						l-13.16,4.387c0,0,2.411,11.233,6.223,24.668c4.192,14.774,9.81,37.89,9.495,51.407s-7.545,22.634-7.545,22.634H154.81
						C154.81,416.249,153.531,414.965,149.589,403.414"/>
				</g>
			</g>
			<g>
				<g>
					<path fill="#455A64" d="M22.849,393.182l0.421-4.558l109.02,12.56c6.152,0.723,10.429,6.474,9.349,12.573l-0.489,2.764
						L28.318,400.125C24.938,399.633,22.535,396.583,22.849,393.182z"/>
				</g>
			</g>
			<g opacity="0.3">
				<g>
					<path d="M22.849,393.182l0.421-4.558l109.02,12.56c6.152,0.723,10.429,6.474,9.349,12.573l-0.489,2.764L28.318,400.125
						C24.938,399.633,22.535,396.583,22.849,393.182z"/>
				</g>
			</g>
			<g opacity="0.3">
				<g>
					<g>
						<path d="M234.823,423.681c0,0,24-26.396,28.947-47.149c1.662-0.017,5.537,0.152,7.434,0.551
							C271.204,377.083,257.011,415.661,234.823,423.681z"/>
					</g>
				</g>
			</g>
			<g>
				<g>
					<g>
						<path fill="#263238" d="M263.421,367.23c0.015-0.003,0.059,0.227,0.131,0.666c0.063,0.441,0.192,1.088,0.273,1.932
							c0.155,1.684,0.258,4.156-0.187,7.165c-0.432,3.005-1.46,6.512-3.166,10.143c-1.668,3.652-3.964,7.42-6.354,11.358
							c-4.808,7.909-10.159,14.378-14.048,18.997c-1.956,2.306-3.567,4.146-4.687,5.413c-0.544,0.607-0.977,1.091-1.299,1.449
							c-0.3,0.329-0.463,0.497-0.475,0.487c-0.011-0.01,0.131-0.195,0.411-0.542c0.307-0.372,0.72-0.872,1.239-1.501
							c1.108-1.329,2.668-3.198,4.584-5.496c3.829-4.664,9.13-11.147,13.917-19.023c2.391-3.94,4.688-7.688,6.362-11.304
							c1.712-3.597,2.758-7.056,3.223-10.027c0.478-2.973,0.421-5.426,0.315-7.105c-0.056-0.841-0.159-1.489-0.194-1.933
							C263.424,367.466,263.408,367.232,263.421,367.23z"/>
					</g>
				</g>
			</g>
			<g>
				<g>
					<g>
						
							<ellipse transform="matrix(0.7145 0.6996 -0.6996 0.7145 356.0332 -32.8221)" fill="#263238" cx="218.237" cy="419.869" rx="5.175" ry="0.208"/>
					</g>
				</g>
			</g>
			<g>
				<g>
					<g>
						<path fill="#263238" d="M150.711,422.676c-0.099-0.044,0.559-1.652,1.76-3.416c1.195-1.768,2.446-2.974,2.523-2.898
							c0.09,0.082-1.004,1.394-2.179,3.133C151.635,421.228,150.82,422.73,150.711,422.676z"/>
					</g>
				</g>
			</g>
			<g>
				<g>
					<g>
						<path fill="#263238" d="M104.599,437.917c-0.097-0.081,1.722-1.239,3.274-4.158c0.774-1.44,1.411-3.321,1.604-5.476
							c0.199-2.146-0.113-4.573-1.165-6.83c-1.092-2.238-2.784-4.009-4.576-5.204c-1.796-1.206-3.659-1.895-5.266-2.199
							c-3.245-0.631-5.29,0.055-5.292-0.072c-0.003-0.014,0.12-0.051,0.357-0.107c0.24-0.045,0.587-0.162,1.051-0.204
							c0.92-0.144,2.288-0.187,3.938,0.095c1.648,0.274,3.568,0.948,5.424,2.169c1.853,1.21,3.609,3.026,4.739,5.344
							c1.089,2.336,1.396,4.844,1.171,7.045c-0.219,2.211-0.903,4.127-1.727,5.58c-0.82,1.459-1.714,2.495-2.404,3.12
							c-0.325,0.334-0.634,0.531-0.82,0.688C104.714,437.856,104.608,437.928,104.599,437.917z"/>
					</g>
				</g>
			</g>
			<g>
				<g>
					<g>
						
							<ellipse transform="matrix(0.0476 0.9989 -0.9989 0.0476 486.7557 340.921)" fill="#263238" cx="64.606" cy="425.705" rx="3.859" ry="0.208"/>
					</g>
				</g>
			</g>
			<g>
				<g>
					<g>
						
							<ellipse transform="matrix(0.1267 0.9919 -0.9919 0.1267 480.9456 305.1124)" fill="#263238" cx="67.188" cy="425.704" rx="3.894" ry="0.208"/>
					</g>
				</g>
			</g>
			<g>
				<g>
					<g>
						<path fill="#263238" d="M112.641,355.577c0,0.115-13.255,0.209-29.602,0.209c-16.353,0-29.605-0.094-29.605-0.209
							c0-0.114,13.252-0.208,29.605-0.208C99.386,355.369,112.641,355.462,112.641,355.577z"/>
					</g>
				</g>
			</g>
		</g>
		<g>
			<g>
				<g>
					<g>
						<path fill="#455A64" d="M43.242,447.994c-0.011,0.01-0.131-0.111-0.351-0.353c-0.214-0.245-0.554-0.588-0.934-1.077
							c-0.791-0.954-1.851-2.41-2.952-4.338c-2.212-3.817-4.404-9.78-4.377-16.605c0.029-6.828,2.271-12.773,4.515-16.572
							c1.117-1.918,2.189-3.366,2.987-4.313c0.384-0.486,0.727-0.826,0.943-1.07c0.222-0.238,0.343-0.359,0.354-0.35
							s-0.09,0.149-0.291,0.405c-0.194,0.261-0.516,0.616-0.879,1.115c-0.756,0.974-1.783,2.438-2.858,4.357
							c-2.159,3.804-4.325,9.689-4.354,16.428c-0.026,6.736,2.09,12.64,4.218,16.461c1.059,1.93,2.074,3.401,2.822,4.381
							c0.358,0.503,0.677,0.861,0.87,1.124C43.154,447.844,43.253,447.985,43.242,447.994z"/>
					</g>
				</g>
			</g>
		</g>
		<g>
			<path fill="none" stroke="#263238" stroke-width="0.05" stroke-miterlimit="10" d="M148.874,351.036"/>
		</g>
		<path fill="#263238" d="M118.068,318.91"/>
		<g>
			<g>
				<g>
					<g>
						<path fill="#FFBE9D" d="M155,434.973c0,0,0.917,21.389,0.935,22.421l4.542,3.437l10.895-2.713l-0.947-23.634L155,434.973z"/>
					</g>
				</g>
			</g>
		</g>
		<g>
			<g>
				<path fill="#FFBE9D" d="M184.977,246.796l11.394,6.092l19.066-13.923l5.545,9.561c0,0-11.602,11.194-15.719,15.02
					c-4.117,3.824-6.825,5.831-9.83,5.241c-3.004-0.591-19.775-9.897-19.775-9.897S180.54,247.018,184.977,246.796z"/>
				<g>
					<g>
						<g>
							<path fill="#EB996E" d="M196.452,257.131c0.036-0.001,0.071,0.066,0.104,0.189l0.024,0.103l0.003,0.015l0.001,0.007l0,0.004
								c-0.114,0.006,0.257-0.013-0.258,0.001v0.004v0.001l0-0.001l-0.006-0.03l-0.012-0.063c-0.015-0.104-0.029-0.204-0.043-0.298
								c-0.054-0.441-0.094-1.051-0.106-1.726c-0.023-1.35,0.067-2.444,0.21-2.448c0.145-0.005,0.288,1.089,0.311,2.438
								c0.012,0.675-0.007,1.286-0.046,1.729c-0.011,0.095-0.022,0.194-0.034,0.299l-0.01,0.064l-0.005,0.03l0,0.001l0,0v0.002
								c-0.515,0.014-0.143-0.005-0.258,0.001l0.001-0.004l0.001-0.008l0.002-0.014l0.021-0.104
								C196.382,257.201,196.416,257.131,196.452,257.131z"/>
						</g>
					</g>
				</g>
				<g>
					<g>
						<g>
							<path fill="#FFBE9D" d="M217.813,251.163c0.375,0.116,3.924-3.709,3.924-3.709s6.649-0.125,8.239-1.034
								c1.591-0.908,3.962-4.16,3.962-4.16l-3.211-9.779c0,0-6.733,0.503-8.85,1.098c-2.117,0.594-7.192,5.9-7.192,5.9l-2.172,3.393
								C212.514,242.871,211.865,249.329,217.813,251.163z"/>
						</g>
					</g>
					<g>
						<g>
							<g>
								<path fill="#FFBE9D" d="M229.045,246.992c0,0,0.864-0.039,2.431-0.308c1.601-0.274,3.255-0.412,3.203-2.047
									c-0.03-0.962-0.609-1.393-0.609-1.393s1.178-0.497,1.171-1.386c-0.007-0.889-0.688-1.314-0.688-1.314
									s1.625-0.757,1.677-2.076c0.064-1.654-1.42-2.369-1.42-2.369s5.013-1.426,5.401-1.585c1.421-0.584,4.133-1.87,3.008-2.937
									c-0.412-0.391-0.573-0.822-3.432-0.472c-2.595,0.318-6.686,1.279-6.686,1.279s-3.506,0.164-5.342,0.355
									s-5.881,0.838-6.793,1.259c-2.358,1.089-4.417,4.194-4.417,4.194l5.189,9.26
									C221.738,247.453,228.206,247.05,229.045,246.992z"/>
							</g>
						</g>
						<g>
							<g>
								<g>
									<path fill="#EB996E" d="M233.675,243.249c0-0.031-0.538-0.057-1.406-0.075c-0.456-0.006-0.968-0.013-1.525-0.02
										c-0.286-0.001-0.594-0.007-0.917,0.045c-0.317,0.05-0.665,0.177-0.919,0.439c-0.255,0.247-0.406,0.639-0.301,0.986
										c0.096,0.35,0.364,0.578,0.61,0.737c0.252,0.162,0.514,0.267,0.75,0.361c0.238,0.095,0.462,0.178,0.667,0.25
										c0.412,0.145,0.75,0.247,0.985,0.309c0.236,0.063,0.369,0.087,0.373,0.072c0.01-0.032-0.499-0.204-1.302-0.528
										c-0.393-0.172-0.896-0.341-1.361-0.636c-0.226-0.151-0.444-0.355-0.511-0.621c-0.078-0.264,0.033-0.562,0.248-0.774
										c0.212-0.219,0.503-0.33,0.797-0.381c0.295-0.051,0.593-0.051,0.88-0.055c0.557-0.01,1.07-0.02,1.525-0.028
										C233.138,243.309,233.675,243.28,233.675,243.249z"/>
								</g>
							</g>
						</g>
						<g>
							<g>
								<g>
									<path fill="#EB996E" d="M228.216,236.424c0.029,0.049,0.699-0.316,1.343-0.991c0.648-0.671,0.986-1.355,0.936-1.382
										c-0.056-0.034-0.468,0.579-1.096,1.228C228.776,235.932,228.18,236.369,228.216,236.424z"/>
								</g>
							</g>
						</g>
						<g>
							<g>
								<g>
									<path fill="#FFBE9D" d="M224.038,234.109c1.323,0.278,2.515,1.031,3.468,1.99c0.953,0.959,1.683,2.118,2.305,3.318
										c0.498,0.961,0.926,2.148,0.377,3.082c-0.564,0.96-1.97,1.137-2.966,0.639c-0.997-0.498-1.652-1.482-2.165-2.471
										c-0.513-0.989-0.941-2.043-1.678-2.878"/>
								</g>
							</g>
							<g>
								<g>
									<g>
										<path fill="#EB996E" d="M223.379,237.788c-0.015,0.012,0.185,0.236,0.469,0.692c0.29,0.454,0.623,1.157,1.042,2.03
											c0.214,0.435,0.464,0.908,0.8,1.376c0.336,0.464,0.764,0.936,1.339,1.263c0.573,0.333,1.307,0.462,2.014,0.287
											c0.354-0.083,0.695-0.264,0.97-0.53c0.266-0.274,0.453-0.635,0.511-1.02c0.122-0.78-0.146-1.508-0.431-2.143
											c-0.305-0.634-0.637-1.218-0.982-1.762c-0.688-1.086-1.475-1.963-2.244-2.564c-0.767-0.605-1.493-0.944-2.008-1.116
											c-0.258-0.088-0.463-0.137-0.604-0.165c-0.141-0.025-0.215-0.035-0.217-0.027c-0.005,0.021,0.291,0.077,0.791,0.273
											c0.499,0.194,1.199,0.548,1.939,1.157c0.742,0.604,1.5,1.474,2.169,2.551c0.334,0.537,0.663,1.124,0.958,1.743
											c0.277,0.617,0.521,1.317,0.409,2.014c-0.051,0.345-0.218,0.66-0.448,0.901c-0.241,0.233-0.544,0.399-0.867,0.476
											c-0.646,0.163-1.328,0.05-1.859-0.254c-0.542-0.302-0.958-0.746-1.291-1.193c-0.333-0.451-0.587-0.912-0.809-1.338
											c-0.435-0.859-0.794-1.562-1.109-2.006c-0.154-0.224-0.29-0.386-0.384-0.494
											C223.439,237.835,223.384,237.783,223.379,237.788z"/>
									</g>
								</g>
							</g>
						</g>
						<g>
							<g>
								<g>
									<path fill="#FFBE9D" d="M233.531,243.249c-2.027-0.027-4.125,0.146-6.145,0.321c-0.588,0.051-1.209,0.105-1.74-0.151
										c-0.425-0.206-0.583-1.288-0.695-1.747l7.518-1.172"/>
								</g>
							</g>
							<g>
								<g>
									<g>
										<path fill="#EB996E" d="M232.47,240.5c-0.002-0.014-0.209,0.005-0.584,0.051c-0.412,0.055-0.947,0.127-1.594,0.214
											c-1.352,0.191-3.233,0.471-5.357,0.798l-0.117,0.018l0.027,0.117c0.079,0.342,0.145,0.722,0.27,1.096
											c0.051,0.147,0.109,0.293,0.193,0.432c0.042,0.069,0.09,0.138,0.157,0.197c0.063,0.063,0.155,0.106,0.22,0.133
											c0.29,0.121,0.596,0.159,0.888,0.164c0.585,0,1.123-0.081,1.645-0.119c1.04-0.094,1.976-0.169,2.763-0.218
											c0.787-0.051,1.425-0.077,1.866-0.093c0.441-0.017,0.686-0.025,0.686-0.042c0-0.014-0.244-0.035-0.686-0.045
											s-1.083-0.008-1.873,0.022c-0.791,0.029-1.731,0.088-2.772,0.171c-0.52,0.033-1.072,0.108-1.624,0.105
											c-0.275-0.006-0.553-0.043-0.806-0.15c-0.236-0.078-0.348-0.359-0.445-0.629c-0.119-0.354-0.183-0.722-0.266-1.077
											l-0.09,0.135c2.123-0.334,4-0.641,5.346-0.871c0.643-0.114,1.174-0.208,1.584-0.281
											C232.27,240.56,232.472,240.514,232.47,240.5z"/>
									</g>
								</g>
							</g>
						</g>
						<g>
							<g>
								<g>
									<path fill="#FFBE9D" d="M234.658,240.081c-2.609,0.5-5.218,1-7.828,1.5c-0.554,0.106-1.121,0.213-1.679,0.131
										c-0.558-0.082-1.116-0.389-1.346-0.903c-0.317-0.71,0.099-1.573,0.732-2.024s1.428-0.594,2.191-0.745
										c2.372-0.468,4.707-1.12,6.978-1.948"/>
								</g>
							</g>
							<g>
								<g>
									<g>
										<path fill="#EB996E" d="M233.706,236.092c-0.002-0.007-0.082,0.013-0.23,0.059c-0.171,0.054-0.385,0.122-0.646,0.205
											c-0.561,0.177-1.372,0.433-2.385,0.709c-1.013,0.278-2.228,0.577-3.59,0.844c-0.674,0.139-1.423,0.239-2.117,0.62
											c-0.344,0.186-0.66,0.469-0.871,0.821c-0.212,0.349-0.34,0.782-0.254,1.216c0.083,0.436,0.394,0.791,0.752,0.991
											c0.359,0.208,0.771,0.292,1.161,0.292c0.787-0.007,1.491-0.215,2.176-0.331c1.357-0.269,2.584-0.513,3.625-0.719
											c1.008-0.208,1.833-0.378,2.441-0.504c0.267-0.06,0.486-0.109,0.662-0.148c0.15-0.036,0.229-0.059,0.228-0.066
											c-0.001-0.008-0.083,0-0.236,0.022c-0.177,0.028-0.399,0.063-0.669,0.107c-0.611,0.108-1.441,0.255-2.454,0.434
											c-1.044,0.193-2.274,0.42-3.635,0.672c-0.685,0.111-1.402,0.313-2.135,0.314c-0.365-0.002-0.733-0.08-1.053-0.266
											c-0.319-0.18-0.576-0.48-0.645-0.843c-0.073-0.361,0.035-0.743,0.225-1.058c0.192-0.319,0.468-0.57,0.788-0.746
											c0.642-0.358,1.373-0.465,2.051-0.609c1.366-0.28,2.582-0.596,3.593-0.894c1.011-0.297,1.817-0.576,2.371-0.779
											c0.276-0.103,0.489-0.185,0.632-0.245C233.635,236.134,233.709,236.099,233.706,236.092z"/>
									</g>
								</g>
							</g>
						</g>
					</g>
					<g>
						<g>
							<g>
								<path fill="#EB996E" d="M218.969,242.015c-0.02,0.016,0.112,0.228,0.413,0.491c0.298,0.263,0.783,0.558,1.375,0.717
									c0.594,0.157,1.161,0.142,1.55,0.062c0.392-0.079,0.611-0.197,0.602-0.221c-0.012-0.069-0.959,0.258-2.095-0.056
									C219.674,242.716,219.014,241.961,218.969,242.015z"/>
							</g>
						</g>
					</g>
				</g>
			</g>
			<path fill="#FFBE9D" d="M176.631,297.397c0,0,18.951,3.511,20.319,3.875c1.369,0.365,6.75,2.919,7.024,4.562
				c0.273,1.642,0,6.477,0,6.477s-0.972,0.793-1.581-0.79c-0.609-1.582-0.518-4.711-0.518-4.711l-3.01-1.158l1.642,2.919
				l0.273,6.841c0,0-2.103-0.191-2.511-1.829c-0.408-1.637-0.401-3.461-0.401-3.461l-2.196-1.86l1.642,2.225l0.554,4.926
				c0,0-1.602,0.519-2.106-0.575c-0.504-1.093-0.545-4.351-0.545-4.351l-6.192-2.163l-4.102,2.284l-4.454-2.44
				c-1.263-0.692-2.15-1.912-2.42-3.327L176.631,297.397z"/>
			<g>
				<g>
					<g>
						<g>
							<g>
								<g>
									<g>
										<g>
											<g>
												<g>
													<g>
														<g>
															<g>
																<g>
																	<g>
																		<g>
																			<path fill="#FFBE9D" d="M138.693,202.956l0.622,33.155c0.102,5.414,4.372,9.826,9.778,10.106l0,0
																				c5.953,0.308,10.929-4.481,10.845-10.441c-0.044-3.155-0.097-5.74-0.097-5.74s8.062-0.83,8.574-8.82
																				c0.296-4.615,0.042-15.136-0.226-23.201c-0.181-5.451-4.508-9.853-9.956-10.135l-4.831-0.25
																				C145.06,187.686,138.407,194.617,138.693,202.956z"/>
																		</g>
																	</g>
																</g>
															</g>
														</g>
													</g>
												</g>
											</g>
										</g>
									</g>
									<g>
										<g>
											<g>
												<g>
													<g>
														<g>
															<g>
																<g>
																	<g>
																		<g>
																			<path fill="#EB996E" d="M159.842,230.036c0,0-5.056,0.035-10.252-3.617c0,0,2.274,5.95,10.29,5.643
																				L159.842,230.036z"/>
																		</g>
																	</g>
																</g>
															</g>
														</g>
													</g>
												</g>
											</g>
										</g>
									</g>
								</g>
							</g>
						</g>
						<g>
							<g>
								<g>
									<g>
										<g>
											<g>
												<g>
													<g>
														<g>
															<g>
																<g>
																	<g>
																		<g>
																			<g>
																				<g>
																					<g>
																						<g>
																							<path fill="#263238" d="M166.294,205.574c-0.149,0.142-0.981-0.543-2.21-0.604
																								c-1.227-0.078-2.161,0.508-2.286,0.351c-0.063-0.07,0.096-0.332,0.503-0.597
																								c0.401-0.265,1.075-0.507,1.84-0.464c0.765,0.044,1.395,0.359,1.75,0.667
																								C166.253,205.235,166.368,205.511,166.294,205.574z"/>
																						</g>
																					</g>
																				</g>
																			</g>
																		</g>
																	</g>
																</g>
															</g>
														</g>
													</g>
												</g>
											</g>
											<g>
												<g>
													<g>
														<g>
															<g>
																<g>
																	<g>
																		<g>
																			<g>
																				<g>
																					<g>
																						<path fill="#263238" d="M154.459,208.204c-0.01,0.604-0.529,1.094-1.161,1.095
																							c-0.629,0.001-1.133-0.486-1.124-1.09s0.53-1.095,1.16-1.096C153.965,207.111,154.469,207.6,154.459,208.204z
																							"/>
																					</g>
																				</g>
																			</g>
																		</g>
																	</g>
																</g>
															</g>
														</g>
													</g>
												</g>
												<g>
													<g>
														<g>
															<g>
																<g>
																	<g>
																		<g>
																			<g>
																				<g>
																					<g>
																						<path fill="#263238" d="M165.649,208.204c-0.01,0.604-0.529,1.094-1.161,1.095
																							c-0.629,0.001-1.133-0.486-1.124-1.09s0.529-1.095,1.16-1.096C165.155,207.111,165.659,207.6,165.649,208.204
																							z"/>
																					</g>
																				</g>
																			</g>
																		</g>
																	</g>
																</g>
															</g>
														</g>
													</g>
												</g>
												<g>
													<g>
														<g>
															<g>
																<g>
																	<g>
																		<g>
																			<g>
																				<g>
																					<g>
																						<g>
																							<path fill="#263238" d="M154.419,205.126c-0.149,0.142-0.983-0.543-2.21-0.604
																								c-1.227-0.078-2.161,0.507-2.287,0.35c-0.062-0.07,0.095-0.331,0.504-0.596
																								c0.401-0.265,1.075-0.507,1.84-0.465c0.766,0.044,1.395,0.359,1.75,0.667
																								C154.377,204.787,154.492,205.063,154.419,205.126z"/>
																						</g>
																					</g>
																				</g>
																			</g>
																		</g>
																	</g>
																</g>
															</g>
														</g>
													</g>
												</g>
											</g>
											<g>
												<g>
													<g>
														<g>
															<g>
																<g>
																	<g>
																		<g>
																			<g>
																				<g>
																					<g>
																						<path fill="#263238" d="M158.295,214.91c-0.002-0.07,0.769-0.163,2.014-0.257
																							c0.315-0.016,0.616-0.063,0.68-0.274c0.086-0.223-0.028-0.568-0.161-0.941
																							c-0.256-0.774-0.523-1.586-0.804-2.437c-1.113-3.469-1.901-6.314-1.761-6.358
																							c0.14-0.043,1.156,2.732,2.268,6.201c0.267,0.855,0.522,1.669,0.765,2.449c0.1,0.363,0.284,0.778,0.099,1.24
																							c-0.096,0.23-0.335,0.388-0.54,0.432c-0.204,0.051-0.381,0.045-0.537,0.046
																							C159.069,215.015,158.296,214.98,158.295,214.91z"/>
																					</g>
																				</g>
																			</g>
																		</g>
																	</g>
																</g>
															</g>
														</g>
													</g>
												</g>
											</g>
											<g>
												<g>
													<g>
														<g>
															<g>
																<g>
																	<g>
																		<g>
																			<g>
																				<g>
																					<g>
																						<path fill="#263238" d="M154.635,215.573c0.201-0.001,0.134,1.333,1.227,2.338
																							c1.09,1.009,2.52,0.933,2.521,1.12c0.014,0.085-0.33,0.243-0.931,0.228c-0.59-0.01-1.439-0.244-2.108-0.859
																							c-0.666-0.617-0.925-1.407-0.943-1.957C154.378,215.883,154.544,215.561,154.635,215.573z"/>
																					</g>
																				</g>
																			</g>
																		</g>
																	</g>
																</g>
															</g>
														</g>
													</g>
												</g>
											</g>
										</g>
									</g>
								</g>
								<g>
									<g>
										<g>
											<g>
												<g>
													<g>
														<g>
															<g>
																<g>
																	<g>
																		<path fill="#263238" d="M154.572,200.667c-0.138,0.328-1.357,0.106-2.808,0.206
																			c-1.453,0.07-2.637,0.432-2.813,0.122c-0.078-0.148,0.141-0.452,0.628-0.75c0.483-0.299,1.242-0.567,2.112-0.619
																			c0.871-0.05,1.656,0.129,2.17,0.37C154.38,200.234,154.632,200.511,154.572,200.667z"/>
																	</g>
																</g>
															</g>
														</g>
													</g>
												</g>
											</g>
										</g>
									</g>
								</g>
								<g>
									<g>
										<g>
											<g>
												<g>
													<g>
														<g>
															<g>
																<g>
																	<g>
																		<path fill="#263238" d="M165.918,201.129c-0.231,0.268-1.062-0.065-2.08-0.132
																			c-1.015-0.102-1.889,0.09-2.073-0.212c-0.08-0.146,0.071-0.418,0.461-0.664c0.385-0.244,1.017-0.427,1.715-0.37
																			c0.698,0.058,1.292,0.343,1.631,0.647C165.917,200.704,166.021,200.998,165.918,201.129z"/>
																	</g>
																</g>
															</g>
														</g>
													</g>
												</g>
											</g>
										</g>
									</g>
								</g>
							</g>
						</g>
						<g>
							<g>
								<g>
									<g>
										<g>
											<g>
												<g>
													<g>
														<g>
															<g>
																<g>
																	<path fill="#FFBE9D" d="M141.079,209.097c-0.133-0.066-5.41-1.909-5.518,3.566
																		c-0.108,5.475,5.411,4.455,5.424,4.298C140.997,216.805,141.079,209.097,141.079,209.097z"/>
																</g>
															</g>
														</g>
													</g>
												</g>
											</g>
										</g>
									</g>
								</g>
							</g>
							<g>
								<g>
									<g>
										<g>
											<g>
												<g>
													<g>
														<g>
															<g>
																<g>
																	<g>
																		<path fill="#EB996E" d="M139.353,214.854c-0.023-0.018-0.097,0.065-0.259,0.135
																			c-0.159,0.069-0.43,0.113-0.713,0.001c-0.574-0.224-1.043-1.152-1.05-2.139c-0.004-0.499,0.109-0.971,0.294-1.36
																			c0.175-0.397,0.439-0.672,0.732-0.718c0.291-0.062,0.494,0.117,0.558,0.272c0.07,0.155,0.033,0.263,0.062,0.273
																			c0.015,0.014,0.12-0.089,0.08-0.316c-0.021-0.109-0.082-0.239-0.208-0.347c-0.129-0.109-0.322-0.167-0.525-0.15
																			c-0.423,0.021-0.811,0.402-1.013,0.83c-0.226,0.429-0.366,0.959-0.361,1.52c0.013,1.104,0.558,2.147,1.345,2.392
																			c0.383,0.108,0.707-0.002,0.875-0.127C139.34,214.986,139.372,214.864,139.353,214.854z"/>
																	</g>
																</g>
															</g>
														</g>
													</g>
												</g>
											</g>
										</g>
									</g>
								</g>
							</g>
						</g>
					</g>
				</g>
				<g>
					<g>
						<g>
							<g>
								<g>
									<g>
										<path fill="#263238" d="M138.047,208.754c0.844-0.159,2.247,0.686,2.562,1.485c0.315,0.799,0.348,1.688,0.662,2.487
											c0.314,0.8,1.079,1.547,1.924,1.393c0.583-0.106,1.022-0.625,1.204-1.188s0.151-1.171,0.107-1.762
											c-0.19-2.569-0.596-5.129-0.565-7.706c0.031-2.576,0.535-5.229,1.999-7.349s4.026-3.603,6.581-3.264
											c1.692,0.225,3.204,1.191,4.88,1.515c1.987,0.384,4.139-0.213,5.644-1.565c0.193-0.173,1.076-0.691,1.076-0.691
											c0.007-0.133-0.059-1.281-0.488-1.72c-3.188-3.27-9.177-4.447-13.658-3.563s-8.788,3.792-10.906,7.839
											S137.215,204.506,138.047,208.754"/>
									</g>
								</g>
							</g>
						</g>
					</g>
				</g>
				<path fill="#263238" d="M161.608,191.229c-3.029,0.113-8.804,1.231-11.199,3.089c-0.284,0.22-0.59,0.586-0.401,0.891
					c0.143,0.23,0.468,0.237,0.739,0.23c1.811-0.046,6.48,0.751,8.221,1.254c1.74,0.502,3.537,0.979,5.339,0.804
					c1.803-0.174,3.637-1.133,4.363-2.792l0.769,0.287C167.812,192.434,164.637,191.117,161.608,191.229z"/>
				<g>
					<path fill="#455A64" d="M167.882,194.91c0,0-2.324-2.396-5.95-2.723c-6.921-0.625-18.286,1.45-24.305,13.346
						c0,0-1.227-3.907-1.215-6.345c0.008-1.628,1.029-11.32,11.021-14.322C147.432,184.866,162.491,179.201,167.882,194.91z"/>
				</g>
				<g opacity="0.3">
					<path d="M167.882,194.91c0,0-2.377-2.855-6.665-3.065c-6.195-0.304-17.918,2.477-23.591,13.688c0,0-1.227-3.907-1.215-6.345
						c0.008-1.628,1.029-11.32,11.021-14.322C147.432,184.866,162.491,179.201,167.882,194.91z"/>
				</g>
				<path fill="#455A64" d="M138.568,203.837c3.016-5.014,7.506-8.45,12.349-11.442c4.843-2.993,12.841-5.938,18.351-7.372
					c1.654-0.431,3.378-0.806,5.061-0.506s3.326,1.429,3.736,3.088c0.513,2.077-3.184,5.26-4.92,6.51c-1.736,1.25-5,2.937-5,2.937
					s-0.207-3.719-6.363-4.527C153.39,191.423,138.312,204.051,138.568,203.837z"/>
				<path fill="#FFFFFF" d="M149.982,188.491c0.061,0.123,2.415-1.329,5.702-1.949c3.28-0.656,6.007-0.192,6.017-0.329
					c0.008-0.048-0.658-0.228-1.766-0.325c-1.105-0.099-2.658-0.077-4.331,0.246c-1.671,0.327-3.119,0.889-4.107,1.395
					C150.507,188.033,149.957,188.449,149.982,188.491z"/>
			</g>
			<g>
				<g>
					<g>
						<g>
							<g>
								<g>
									<g>
										<g>
											<g>
												<g>
													<g>
														<g>
															<g>
																<g>
																	<path fill="#455A64" d="M171.507,456.817l0.066,0.938c0,0,17.003,5.671,17.382,8.681l-32.924,1.263l-0.2-10.529
																		C160.86,459.157,165.999,459.206,171.507,456.817z"/>
																</g>
															</g>
														</g>
													</g>
												</g>
											</g>
										</g>
									</g>
								</g>
							</g>
						</g>
						<g opacity="0.6">
							<g>
								<g>
									<g>
										<g>
											<g>
												<g>
													<g>
														<g>
															<g>
																<g>
																	<path fill="#FFFFFF" d="M156.031,467.699l-0.048-2.532l31.573-0.283c0,0,1.504,0.556,1.399,1.553L156.031,467.699z
																		"/>
																</g>
															</g>
														</g>
													</g>
												</g>
											</g>
										</g>
									</g>
								</g>
							</g>
						</g>
						<g>
							<g>
								<g>
									<g>
										<g>
											<g>
												<g>
													<g>
														<g>
															<g>
																<g>
																	<g>
																		<path fill="#263238" d="M171.694,457.839c0.004,0.154-0.795,0.255-1.556,0.781
																			c-0.775,0.507-1.142,1.191-1.293,1.136c-0.15-0.024,0.033-0.956,0.966-1.577
																			C170.737,457.549,171.72,457.697,171.694,457.839z"/>
																	</g>
																</g>
															</g>
														</g>
													</g>
												</g>
											</g>
										</g>
									</g>
								</g>
							</g>
						</g>
						<g>
							<g>
								<g>
									<g>
										<g>
											<g>
												<g>
													<g>
														<g>
															<g>
																<g>
																	<g>
																		<path fill="#263238" d="M175.232,459.078c0.046,0.147-0.634,0.437-1.14,1.11
																			c-0.527,0.658-0.621,1.369-0.781,1.368c-0.15,0.03-0.317-0.869,0.329-1.694
																			C174.277,459.031,175.219,458.93,175.232,459.078z"/>
																	</g>
																</g>
															</g>
														</g>
													</g>
												</g>
											</g>
										</g>
									</g>
								</g>
							</g>
						</g>
						<g>
							<g>
								<g>
									<g>
										<g>
											<g>
												<g>
													<g>
														<g>
															<g>
																<g>
																	<g>
																		<path fill="#263238" d="M177.438,462.967c-0.144,0.039-0.416-0.724-0.054-1.584
																			c0.354-0.863,1.092-1.226,1.168-1.1c0.098,0.123-0.362,0.595-0.647,1.307
																			C177.602,462.293,177.596,462.946,177.438,462.967z"/>
																	</g>
																</g>
															</g>
														</g>
													</g>
												</g>
											</g>
										</g>
									</g>
								</g>
							</g>
						</g>
					</g>
				</g>
				<path fill="#263238" d="M174.152,383.207l-5.581-18.598l-7.436-23.68l0.409-12.188l-12.436-8.57
					c-8.126,0.142-31.815-1.261-31.815-1.261s0.606,12.36,1.829,21.263c0.242,1.765,0.899,3.444,1.907,4.914l10.909,15.911
					l18.763,34.967c0,0,1.25,12.496,1.77,23.296C153.055,431.363,155,453.29,155,453.29l19.301,0.457l1.207-48.472
					C176.003,397.987,176.54,390.11,174.152,383.207z"/>
				<g>
					<g>
						<g>
							<g>
								<path fill="#FFBE9D" d="M186.102,382.619c2.222,1.806,4.212,26.272,0.545,24.491l4.352,4.113l11.641-2.012l1.608-25.707
									L186.102,382.619z"/>
							</g>
						</g>
					</g>
				</g>
				<g>
					<g>
						<g>
							<path fill="#263238" d="M153.201,309.487c0,0,48.222,13.121,53.219,23.498c0,0,2.993,4.312,2.7,11.279
								c-0.292,6.969-4.266,57.329-4.266,57.329l-18.211-1.205l-1.749-18.568l-0.31-28.107l1.272-3.203c0,0-2.151,0.561-4.225-0.049
								c-2.073-0.609-33.495-10.122-33.495-10.122l-12.265-19.321L153.201,309.487z"/>
						</g>
					</g>
				</g>
				<g>
					<g>
						<g>
							<g>
								<g>
									<g>
										<g>
											<g>
												<g>
													<g>
														<g>
															<g>
																<g>
																	<g>
																		<path fill="#455A64" d="M202.923,407.813l-0.033,1.023c0,0,17.081,7.6,17.145,10.896l-34.418-1.44l0.947-11.434
																			C191.582,409.442,196.926,409.933,202.923,407.813z"/>
																	</g>
																</g>
															</g>
														</g>
													</g>
												</g>
											</g>
										</g>
									</g>
								</g>
							</g>
							<g opacity="0.6">
								<g>
									<g>
										<g>
											<g>
												<g>
													<g>
														<g>
															<g>
																<g>
																	<g>
																		<path fill="#FFFFFF" d="M185.616,418.292l0.228-2.75l32.905,2.388c0,0,1.504,0.73,1.286,1.803L185.616,418.292z"
																			/>
																	</g>
																</g>
															</g>
														</g>
													</g>
												</g>
											</g>
										</g>
									</g>
								</g>
							</g>
							<g>
								<g>
									<g>
										<g>
											<g>
												<g>
													<g>
														<g>
															<g>
																<g>
																	<g>
																		<g>
																			<path fill="#263238" d="M203.006,408.937c-0.012,0.168-0.856,0.209-1.706,0.715
																				c-0.862,0.483-1.319,1.194-1.471,1.121c-0.154-0.039,0.139-1.033,1.178-1.628
																				C202.042,408.542,203.049,408.785,203.006,408.937z"/>
																		</g>
																	</g>
																</g>
															</g>
														</g>
													</g>
												</g>
											</g>
										</g>
									</g>
								</g>
							</g>
							<g>
								<g>
									<g>
										<g>
											<g>
												<g>
													<g>
														<g>
															<g>
																<g>
																	<g>
																		<g>
																			<path fill="#263238" d="M206.554,410.582c0.032,0.165-0.708,0.42-1.309,1.106
																				c-0.621,0.67-0.797,1.433-0.963,1.418c-0.159,0.02-0.234-0.97,0.529-1.81
																				C205.565,410.45,206.557,410.421,206.554,410.582z"/>
																		</g>
																	</g>
																</g>
															</g>
														</g>
													</g>
												</g>
											</g>
										</g>
									</g>
								</g>
							</g>
							<g>
								<g>
									<g>
										<g>
											<g>
												<g>
													<g>
														<g>
															<g>
																<g>
																	<g>
																		<g>
																			<path fill="#263238" d="M208.423,414.988c-0.154,0.03-0.353-0.819,0.117-1.722
																				c0.464-0.906,1.271-1.236,1.336-1.094c0.089,0.143-0.442,0.615-0.816,1.362
																				C208.668,414.272,208.591,414.978,208.423,414.988z"/>
																		</g>
																	</g>
																</g>
															</g>
														</g>
													</g>
												</g>
											</g>
										</g>
									</g>
								</g>
							</g>
						</g>
					</g>
				</g>
				<g>
					<g>
						<g>
							<g>
								<path fill="#455A64" d="M193.556,341.172c-0.028-0.042-0.662,0.317-1.58,1.051c-0.918,0.73-2.099,1.863-3.184,3.295
									c-1.083,1.437-1.85,2.882-2.303,3.964c-0.455,1.083-0.627,1.791-0.58,1.807c0.127,0.055,1.071-2.702,3.219-5.516
									C191.248,342.941,193.643,341.28,193.556,341.172z"/>
							</g>
						</g>
					</g>
				</g>
				<g>
					<g>
						<g>
							<g>
								<path fill="#455A64" d="M189.647,337.352c-0.043-0.025-0.505,0.643-1.096,1.812c-0.592,1.167-1.283,2.853-1.783,4.792
									c-0.496,1.942-0.701,3.752-0.745,5.061c-0.045,1.31,0.039,2.116,0.089,2.115c0.066-0.001,0.089-0.807,0.209-2.096
									c0.119-1.29,0.368-3.063,0.855-4.975c0.493-1.91,1.128-3.584,1.645-4.771C189.336,338.101,189.705,337.384,189.647,337.352z
									"/>
							</g>
						</g>
					</g>
				</g>
				<g>
					<g>
						<g>
							
								<ellipse transform="matrix(-0.324 -0.9461 0.9461 -0.324 -110.7117 608.2838)" fill="#455A64" cx="161.965" cy="343.696" rx="14.253" ry="0.26"/>
						</g>
					</g>
				</g>
			</g>
			<g>
				<polygon fill="#455A64" points="164.699,241.72 172.566,238.564 193.096,249.705 184.721,268.888 166.654,259.918 				"/>
				<path fill="#455A64" d="M172.566,238.564l-12.476-4.722c0,0-2.729,5.771-8.698,4c-5.97-1.77-12.554-7.096-12.554-7.096
					s-11.353,4.5-14.809,6.557c-3.456,2.057-5.334,55.241-5.334,55.241l-0.938,20.58c0,0-0.169,1.188-0.555,3.887
					s-0.37,5.599-0.37,5.599c21.15,4.752,42.057-0.275,53.27-6.501c0,0,1.478-1.163,0.835-3.805s-2.007-3.117-2.007-3.117
					l0.277-23.256l2.081-23.794L172.566,238.564z"/>
				<path fill="#FFBE9D" d="M183.744,298.722l-28.088-11.626l-17.395-38.529l-15.485,6.502c0,0,16.628,41.78,23.075,45.253
					c6.446,3.474,33.046,5.065,33.046,5.065L183.744,298.722z"/>
				<path fill="#455A64" d="M124.029,237.304c0,0-5.85,2.927-5.842,14.131c0.007,9.729,2.868,25.236,2.868,25.236l27.57-9.593
					c0,0-6.918-16.063-8.527-19.802C138.07,242.562,133.635,233.878,124.029,237.304z"/>
				<g>
					<g>
						<g>
							<path fill="#263238" d="M124.214,275.572c-0.005-0.014,0.151-0.084,0.457-0.206c0.352-0.134,0.798-0.304,1.35-0.514
								c1.24-0.451,2.951-1.072,5.07-1.843c4.391-1.552,10.463-3.698,17.451-6.168l-0.157,0.315
								c-0.861-2.62-1.812-5.414-2.859-8.271c-1.639-4.483-3.344-8.701-5.096-12.443c-0.871-1.873-1.74-3.633-2.813-5.102
								c-1.072-1.463-2.298-2.68-3.727-3.272c-2.836-1.237-5.448-1.408-7.151-1.21c-0.86,0.11-1.499,0.331-1.911,0.524
								c-0.399,0.214-0.599,0.355-0.614,0.335c-0.006-0.007,0.039-0.047,0.132-0.122c0.097-0.068,0.228-0.195,0.433-0.306
								c0.406-0.229,1.055-0.489,1.932-0.632c1.742-0.262,4.389-0.153,7.332,1.076c1.501,0.597,2.82,1.869,3.923,3.352
								c1.118,1.499,2.014,3.282,2.899,5.153c1.784,3.748,3.508,7.975,5.151,12.469c1.049,2.863,1.997,5.665,2.849,8.293
								l0.077,0.236l-0.233,0.08c-7.012,2.4-13.105,4.487-17.512,5.995c-2.139,0.712-3.866,1.286-5.118,1.703
								c-0.563,0.178-1.019,0.321-1.377,0.435C124.385,275.544,124.219,275.586,124.214,275.572z"/>
						</g>
					</g>
				</g>
				<g>
					<g>
						<g>
							<path fill="#263238" d="M167.679,309.951c0.022,0.028-0.466,0.416-1.371,1.096c-0.447,0.346-1.007,0.754-1.691,1.175
								c-0.68,0.428-1.433,0.952-2.332,1.42c-0.881,0.498-1.854,1.033-2.941,1.52c-1.064,0.537-2.256,0.987-3.499,1.486
								c-2.516,0.917-5.354,1.738-8.4,2.289c-3.052,0.519-6.001,0.712-8.68,0.706c-1.339-0.046-2.612-0.063-3.796-0.207
								c-1.188-0.087-2.285-0.26-3.283-0.428c-1.004-0.134-1.891-0.371-2.675-0.542c-0.787-0.163-1.452-0.355-1.99-0.529
								c-1.082-0.331-1.672-0.529-1.662-0.563c0.011-0.035,0.622,0.099,1.714,0.367c0.544,0.143,1.212,0.307,2,0.441
								c0.785,0.143,1.67,0.353,2.67,0.463c0.994,0.143,2.083,0.293,3.263,0.36c1.175,0.124,2.437,0.125,3.762,0.158
								c2.652-0.021,5.568-0.227,8.587-0.74c3.013-0.545,5.824-1.343,8.324-2.226c1.235-0.482,2.421-0.912,3.483-1.429
								c1.086-0.465,2.059-0.977,2.945-1.449c0.903-0.443,1.663-0.942,2.354-1.344c0.695-0.396,1.268-0.776,1.731-1.096
								C167.128,310.254,167.657,309.921,167.679,309.951z"/>
						</g>
					</g>
				</g>
				<rect x="160.09" y="261.026" fill="#FFFFFF" width="7.713" height="3.654"/>
				<g>
					<g>
						<g>
							
								<ellipse transform="matrix(0.0709 -0.9975 0.9975 0.0709 -102.4452 414.5075)" fill="#263238" cx="171.281" cy="262.245" rx="12.572" ry="0.26"/>
						</g>
					</g>
				</g>
			</g>
		</g>
		<g>
			<rect x="33.01" y="275.572" fill="#FF725E" width="72.842" height="15.91"/>
			<g>
				<g>
					<rect x="28.147" y="291.655" fill="#FF725E" width="82.607" height="63.714"/>
					<g>
						<path fill="#263238" d="M90.058,354.918c-0.09,0-0.164-14.201-0.164-31.717c0-17.521,0.074-31.72,0.164-31.72
							s0.164,14.199,0.164,31.72C90.222,340.717,90.148,354.918,90.058,354.918z"/>
					</g>
					<rect x="97.417" y="340.867" fill="#F5F5F5" width="10.464" height="10.464"/>
					<rect x="53.296" y="291.655" opacity="0.3" fill="#FFFFFF" width="9.383" height="13.595"/>
					<rect x="53.349" y="341.774" opacity="0.3" fill="#FFFFFF" width="9.383" height="13.595"/>
				</g>
			</g>
			<rect x="90.058" y="291.482" opacity="0.3" width="20.697" height="64.058"/>
			<g>
				<g>
					<g>
						<path fill="#263238" d="M110.477,291.655c0,0.144-18.399,0.26-41.09,0.26c-22.699,0-41.094-0.116-41.094-0.26
							s18.395-0.261,41.094-0.261C92.078,291.394,110.477,291.511,110.477,291.655z"/>
					</g>
				</g>
			</g>
			<rect x="85.459" y="275.572" opacity="0.3" width="20.393" height="15.798"/>
			<g>
				<g>
					<g>
						<ellipse fill="#263238" cx="85.304" cy="283.58" rx="0.26" ry="7.687"/>
					</g>
				</g>
			</g>
			<rect x="54.402" y="275.572" fill="#FFFFFF" width="10.249" height="4.825"/>
			<g>
				<g>
					<g>
						<path fill="#263238" d="M68.746,275.88c-0.009-0.001-0.006-0.08,0.007-0.234c0.02-0.185,0.043-0.408,0.072-0.682
							c0.074-0.599,0.209-1.478,0.441-2.601c0.5-2.219,1.362-5.507,3.618-8.979c0.56-0.864,1.207-1.733,1.961-2.57
							c0.757-0.82,1.539-1.725,2.644-2.342c0.544-0.296,1.192-0.533,1.89-0.44c0.701,0.082,1.319,0.595,1.61,1.229
							c0.574,1.297,0.351,2.702,0.089,4.035c-0.624,2.701-2.245,5.227-4.389,7.282c-2.146,2.073-4.771,3.707-7.442,5.306
							c-0.125,0.075-0.251,0.15-0.367,0.22l-0.149,0.089l-0.14-0.103c-2.494-1.838-4.893-3.709-6.976-5.784
							c-2.084-2.063-3.833-4.359-4.988-6.817c-0.3-0.604-0.566-1.233-0.709-1.905c-0.144-0.664-0.126-1.403,0.173-2.033
							c0.276-0.624,0.848-1.165,1.55-1.277c0.701-0.115,1.356,0.164,1.866,0.502c0.519,0.345,0.955,0.771,1.343,1.195
							c0.402,0.416,0.774,0.846,1.135,1.269c0.707,0.857,1.359,1.703,1.92,2.552c2.286,3.374,3.493,6.479,4.135,8.646
							c0.314,1.091,0.495,1.953,0.595,2.541c0.039,0.269,0.07,0.489,0.096,0.671C68.749,275.801,68.754,275.879,68.746,275.88
							c-0.009,0.002-0.032-0.074-0.068-0.223c-0.04-0.179-0.087-0.396-0.146-0.659c-0.132-0.579-0.343-1.429-0.685-2.502
							c-0.696-2.134-1.945-5.188-4.245-8.499c-0.564-0.833-1.218-1.66-1.923-2.5c-0.36-0.414-0.73-0.833-1.129-1.24
							c-0.389-0.419-0.802-0.812-1.278-1.122c-0.47-0.308-1.022-0.52-1.555-0.425c-0.532,0.089-0.978,0.502-1.211,1.03
							c-0.502,1.08-0.031,2.386,0.553,3.542c1.139,2.391,2.855,4.633,4.916,6.662c2.059,2.04,4.439,3.894,6.926,5.726l-0.288-0.014
							c0.115-0.069,0.241-0.145,0.366-0.22c2.669-1.596,5.258-3.207,7.357-5.227c2.094-1.997,3.667-4.44,4.275-7.022
							c0.266-1.273,0.454-2.642-0.035-3.729c-0.243-0.526-0.713-0.914-1.262-0.985c-0.546-0.079-1.116,0.109-1.618,0.379
							c-1.014,0.551-1.799,1.428-2.551,2.231c-0.748,0.813-1.392,1.66-1.953,2.504c-2.258,3.389-3.171,6.629-3.728,8.821
							c-0.261,1.109-0.428,1.979-0.535,2.571c-0.049,0.27-0.09,0.491-0.124,0.673C68.774,275.804,68.754,275.881,68.746,275.88z"/>
					</g>
				</g>
			</g>
			<g>
				<g>
					<g>
						<path fill="#263238" d="M110.985,319.816c0,0.144-18.513,0.261-41.344,0.261c-22.839,0-41.348-0.117-41.348-0.261
							s18.509-0.261,41.348-0.261C92.472,319.555,110.985,319.672,110.985,319.816z"/>
					</g>
				</g>
			</g>
			<g>
				<g>
					<g>
						<path fill="#263238" d="M68.912,356.394c-0.144,0-0.261-18.222-0.261-40.694c0-22.48,0.117-40.699,0.261-40.699
							c0.144,0,0.26,18.219,0.26,40.699C69.172,338.172,69.056,356.394,68.912,356.394z"/>
					</g>
				</g>
			</g>
		</g>
	</g>
</g>
</svg>
