<?xml version="1.0" encoding="utf-8"?>
<!-- Generator: Adobe Illustrator 16.0.0, SVG Export Plug-In . SVG Version: 6.00 Build 0)  -->
<!DOCTYPE svg PUBLIC "-//W3C//DTD SVG 1.1//EN" "http://www.w3.org/Graphics/SVG/1.1/DTD/svg11.dtd">
<svg version="1.1" xmlns="http://www.w3.org/2000/svg" xmlns:xlink="http://www.w3.org/1999/xlink" x="0px" y="0px" width="500px"
	 height="500px" viewBox="0 0 500 500" enable-background="new 0 0 500 500" xml:space="preserve">
<g id="BACKGROUND">
	<g opacity="0.85">
		<g>
			<g opacity="0.41">
				<g>
					<g>
						<path fill="#BFDDE8" d="M478.851,296.7c0.428-7.37,0.236-14.775-0.595-22.107c-3.902-34.45-21.576-66.936-47.589-89.856
							c-9.281-8.177-19.84-15.503-25.88-26.297c-10.171-18.178-9.4-39.069-22.023-57.018
							c-12.639-17.969-31.056-31.982-51.824-39.179c-61.927-21.458-148.625,13.48-140.819,88.091
							c0.028,0.268,0.059,0.657,0.092,1.149c1.038,15.498-11.126,28.528-26.607,28.896c-57.135,1.355-106.316,45.407-116.84,101.206
							c-6.768,35.886,4.313,75.219,30.564,100.604c19.595,18.95,45.885,29.36,72.188,36.514
							c52.738,14.343,108.236,17.349,162.615,11.865c50.901-5.134,104.594-19.768,137.513-58.929
							C467.207,350.75,477.268,323.96,478.851,296.7z"/>
					</g>
				</g>
			</g>
			<g opacity="0.31">
				<circle fill="#BFDDE8" cx="217.158" cy="43.609" r="13.293"/>
			</g>
			<g opacity="0.31">
				<circle fill="#BFDDE8" cx="396.781" cy="35.502" r="6.858"/>
			</g>
			<g opacity="0.31">
				<circle fill="#BFDDE8" cx="154.659" cy="73.367" r="9.19"/>
			</g>
		</g>
	</g>
	<g opacity="0.85">
		<g>
			<g>
				<g opacity="0.47">
					<path fill="#BFDDE8" d="M22.739,81.951c-5.966-11.62-1.382-25.876,10.239-31.842c11.62-5.965,33.95-5.526,39.915,6.094
						c5.966,11.621-11.919,21.593-19.211,32.43C43.512,103.747,28.705,93.571,22.739,81.951z"/>
				</g>
				<g opacity="0.47">
					<path fill="#BFDDE8" d="M77.546,443.175c-9.654,6.233-22.534,3.46-28.768-6.195c-6.232-9.654-7.79-29.242,1.865-35.476
						c9.654-6.232,19.94,8.558,30.062,14C94.821,423.094,87.201,436.941,77.546,443.175z"/>
				</g>
			</g>
			<g>
				<g opacity="0.47">
					<path fill="#BFDDE8" d="M467.691,128.462c8.244,17.898,10.496,38.532,6.54,57.822c-4.65,22.678-18.769,40.101-13.87,64.294
						c2.984,14.736,3.731,28.387,5.244,42.967c3.107,29.94-16.332,56.321-40.447,70.567c-19.587,11.57-42.55,15.911-65.069,15.602
						c-20.268-0.277-40.5-4.021-60.14-9.053c-18.927-4.85-37.432-11.24-57.271-9.224c-16.499,1.676-31.36,8.81-46.726,14.128
						c-36.686,12.699-81.125,14.49-114.671-4.841c-21.529-12.407-36.598-32.555-43.281-54.218
						c-5.341-17.312-6.019-33.501-2.016-51.175c4.11-18.147,11.051-36.44,8.896-55.348c-1.502-13.176-7.528-25.893-6.425-39.108
						c0.734-8.78,4.601-17.019,9.328-24.455c17.262-27.149,46.166-45.325,76.739-55.341c28.772-9.425,58.446-16.25,88.402-13.983
						c61.937,4.688,74.563-5.149,137.858-18.688c40.863-8.74,86.572,22.416,110.484,58.508
						C463.707,120.6,465.85,124.463,467.691,128.462z"/>
				</g>
				<g>
					<g opacity="0.81">
						<path fill="#BFDDE8" d="M425.079,156.355c1.271,14.292-3.55,29.02,0.479,43.174c4.824,16.946,18.788,29.638,24.479,46.275
							c8.411,24.583,8.007,52.131-2.207,76.086c-4.923,11.546-12.114,22.274-21.935,29.695
							c-15.139,11.438-34.975,13.947-53.63,12.496c-27.764-2.159-57.061-14.179-84.975-10.9
							c-15.404,1.809-20.108,18.481-28.063,29.479c-8.998,12.438-21.252,22.209-34.799,28.712
							c-24.952,11.979-54.898,13.112-80.4,2.251c-27.227-11.596-50.958-39.913-49.397-71.938c0.722-14.815,6.652-29.53,3.906-44.088
							c-3.445-18.269-17.211-34.917-27.186-49.802c-11.017-16.439-17.686-36.043-18.993-56.043c-0.015-0.227-0.029-0.454-0.043-0.68
							c-2.045-34.503,19.718-65.971,52.551-76.769c0,0,69.859-22.976,69.861-22.976C245.615,68.015,316.44,68.786,381.617,103
							c14.104,7.404,37.068,29.463,41.799,44.674C424.309,150.544,424.82,153.441,425.079,156.355z"/>
					</g>
				</g>
			</g>
		</g>
	</g>
	<circle opacity="0.58" fill="#2F4770" cx="467.651" cy="388.579" r="4.5"/>
	<circle opacity="0.58" fill="#3D85FD" cx="319.066" cy="33.395" r="4.751"/>
	<circle opacity="0.58" fill="#2F4770" cx="105.515" cy="441.078" r="4.5"/>
	<circle opacity="0.58" fill="#FFB44F" cx="381.238" cy="442.001" r="3.5"/>
	<circle opacity="0.58" fill="#FFB44F" cx="98.74" cy="64.177" r="3.5"/>
	<circle opacity="0.58" fill="#3D85FD" cx="70.812" cy="102.769" r="1.5"/>
	<circle opacity="0.58" fill="#3D85FD" cx="134.398" cy="30.316" r="2.119"/>
	<circle opacity="0.58" fill="#FFB44F" cx="476.129" cy="225.476" r="2.119"/>
	<circle opacity="0.58" fill="#2F4770" cx="455.991" cy="96.504" r="1.801"/>
	<circle opacity="0.58" fill="#FFB44F" cx="431.69" cy="49.397" r="6.862"/>
	<circle opacity="0.47" fill="#BFDDE8" cx="24.633" cy="260.547" r="5.486"/>
	<g>
		<g opacity="0.86">
			<g>
				<g opacity="0.44">
					<path fill="#F2F9FF" d="M252.328,372.908L252.328,372.908c-68.822,0-124.614-55.791-124.614-124.614v0
						c0-68.822,55.792-124.614,124.614-124.614l0,0c68.823,0,124.615,55.792,124.615,124.614v0
						C376.943,317.117,321.151,372.908,252.328,372.908z"/>
				</g>
				<g opacity="0.86">
					<path fill="#F2F9FF" d="M252.328,372.908L252.328,372.908c-68.822,0-124.614-55.791-124.614-124.614v0
						c0-68.822,55.792-124.614,124.614-124.614l0,0c68.823,0,124.615,55.792,124.615,124.614v0
						C376.943,317.117,321.151,372.908,252.328,372.908z"/>
				</g>
				
					<path fill="none" stroke="#F2F9FF" stroke-width="3" stroke-linecap="round" stroke-linejoin="round" stroke-miterlimit="10" d="
					M134.397,180.84c0,0,12.849-29.368,49.559-49.559"/>
				
					<path fill="none" stroke="#F2F9FF" stroke-width="3" stroke-linecap="round" stroke-linejoin="round" stroke-miterlimit="10" d="
					M292.25,376.32c0,0,55.065-14.685,75.256-59.654"/>
				<g opacity="0.86">
					
						<path fill="none" stroke="#F2F9FF" stroke-width="3" stroke-linecap="round" stroke-linejoin="round" stroke-miterlimit="10" d="
						M323.913,137.247c0,0,29.368,12.849,49.559,49.559"/>
				</g>
				<g opacity="0.86">
					
						<path fill="none" stroke="#F2F9FF" stroke-width="3" stroke-linecap="round" stroke-linejoin="round" stroke-miterlimit="10" d="
						M128.433,295.1c0,0,14.684,55.064,59.653,75.255"/>
				</g>
			</g>
		</g>
	</g>
</g>
<g id="OBJECTS">
	<g>
		<g>
			<path fill="#233863" d="M239.392,358.499l3.252,1.015c4.453,1.391,9.234-1.116,10.624-5.568l74.186-237.65
				c1.391-4.453-1.115-9.234-5.568-10.624l-3.252-1.015c-4.453-1.39-9.234,1.116-10.624,5.569l-74.187,237.65
				C232.433,352.328,234.938,357.108,239.392,358.499z"/>
			<path fill="#233863" d="M245.165,361.4c-0.995,0-1.994-0.15-2.969-0.455l-3.252-1.015l0,0c-2.536-0.792-4.616-2.531-5.856-4.898
				c-1.241-2.368-1.488-5.068-0.696-7.604l74.186-237.65c0.791-2.536,2.531-4.617,4.898-5.857c2.367-1.24,5.067-1.489,7.604-0.696
				l3.252,1.015c5.253,1.64,8.193,7.249,6.554,12.502l-74.187,237.651c-0.791,2.535-2.531,4.615-4.898,5.856
				C248.343,361.014,246.759,361.4,245.165,361.4z"/>
		</g>
		<g>
			<path fill="#2F4770" d="M367.132,414.055l-109.886-34.303c-11.852-3.699-18.46-16.306-14.761-28.157l73.641-235.902
				c3.7-11.851,16.306-18.459,28.157-14.76l109.886,34.302c11.851,3.7,18.459,16.306,14.76,28.157l-73.641,235.903
				C391.589,411.146,378.982,417.754,367.132,414.055z"/>
			<path fill="#233863" d="M373.815,416.578c-2.361,0-4.76-0.352-7.131-1.092l0,0l-109.886-34.303
				c-6.114-1.908-11.119-6.084-14.093-11.757s-3.561-12.165-1.651-18.279l73.64-235.901c3.94-12.621,17.409-19.686,30.036-15.745
				l109.886,34.302c12.621,3.94,19.685,17.414,15.744,30.035L396.72,399.742C393.52,409.993,384.029,416.578,373.815,416.578z
				 M367.579,412.623c5.349,1.669,11.027,1.156,15.991-1.445c4.963-2.602,8.616-6.98,10.286-12.33l73.641-235.902
				c3.446-11.043-2.732-22.831-13.775-26.278l-109.886-34.302c-11.044-3.447-22.83,2.732-26.278,13.775l-73.64,235.902
				c-1.67,5.35-1.157,11.028,1.445,15.992c2.602,4.963,6.98,8.616,12.33,10.286L367.579,412.623z"/>
		</g>
		<g>
			
				<rect x="309.557" y="140.861" transform="matrix(0.9546 0.298 -0.298 0.9546 73.7601 -103.6266)" fill="#FFFFFF" width="134.377" height="98.475"/>
			<path fill="#233863" d="M426.21,258.62c-0.147,0-0.298-0.021-0.447-0.068L297.49,218.51c-0.38-0.118-0.696-0.383-0.881-0.735
				c-0.186-0.352-0.223-0.764-0.104-1.143l29.344-94.001c0.118-0.38,0.383-0.697,0.735-0.882c0.353-0.185,0.764-0.222,1.144-0.103
				l128.272,40.042c0.38,0.118,0.696,0.383,0.881,0.735c0.186,0.352,0.223,0.764,0.104,1.143l-29.344,94.001
				C427.441,258.209,426.85,258.62,426.21,258.62z M299.816,216.094l125.408,39.147l28.45-91.137l-125.408-39.148L299.816,216.094z"
				/>
		</g>
		<path fill="#FFFFFF" d="M440.089,145.569c-0.099,0-0.199-0.015-0.298-0.046l-89.536-27.95c-0.527-0.165-0.821-0.726-0.656-1.252
			c0.163-0.528,0.726-0.821,1.252-0.657l89.536,27.95c0.527,0.165,0.821,0.726,0.656,1.252
			C440.91,145.295,440.515,145.569,440.089,145.569z"/>
		<g>
			<path fill="#FFB44F" d="M350.167,148.212l-19.969-6.234c-0.623-0.194-0.971-0.857-0.776-1.48l1.155-3.699
				c0.194-0.623,0.856-0.971,1.479-0.776l19.97,6.233c0.623,0.195,0.97,0.857,0.775,1.48l-1.154,3.699
				C351.453,148.06,350.79,148.407,350.167,148.212z"/>
			<path fill="#233863" d="M350.521,149.267c-0.218,0-0.438-0.033-0.652-0.1l0,0l-19.969-6.234
				c-1.148-0.358-1.791-1.584-1.434-2.732l1.156-3.7c0.173-0.556,0.553-1.011,1.068-1.282c0.517-0.271,1.106-0.324,1.664-0.15
				l19.969,6.233c0.557,0.174,1.012,0.554,1.282,1.07c0.271,0.517,0.324,1.107,0.149,1.664l-1.153,3.698
				c-0.174,0.556-0.554,1.012-1.07,1.282C351.215,149.183,350.87,149.267,350.521,149.267z M350.465,147.258
				c0.095,0.026,0.198-0.023,0.228-0.119l1.154-3.699c0.026-0.083-0.037-0.203-0.119-0.228l-19.969-6.233
				c-0.08-0.023-0.201,0.039-0.227,0.119l-1.156,3.7c-0.029,0.095,0.024,0.197,0.12,0.227L350.465,147.258z"/>
		</g>
		<g>
			<path fill="#FFB44F" d="M379.846,157.477l-19.97-6.234c-0.623-0.194-0.97-0.857-0.775-1.48l1.154-3.699
				c0.194-0.623,0.857-0.971,1.48-0.776l19.969,6.234c0.623,0.194,0.971,0.857,0.776,1.48l-1.155,3.7
				C381.131,157.324,380.469,157.671,379.846,157.477z"/>
			<path fill="#233863" d="M380.2,158.532c-0.219,0-0.438-0.033-0.652-0.1l0,0l-19.97-6.234c-1.147-0.358-1.79-1.584-1.433-2.732
				l1.154-3.699c0.358-1.148,1.584-1.793,2.733-1.433l19.969,6.234c0.557,0.173,1.012,0.553,1.282,1.069
				c0.271,0.517,0.324,1.107,0.15,1.663l-1.155,3.7c-0.173,0.556-0.553,1.012-1.068,1.282
				C380.894,158.447,380.549,158.532,380.2,158.532z M380.144,156.522c0.08,0.026,0.201-0.036,0.227-0.119l1.156-3.7
				c0.025-0.082-0.038-0.202-0.12-0.228l-19.969-6.234c-0.082-0.024-0.201,0.038-0.228,0.12l-1.154,3.699
				c-0.03,0.096,0.022,0.198,0.118,0.228L380.144,156.522z"/>
		</g>
		<g>
			<path fill="#FFB44F" d="M411.755,167.438l-19.97-6.234c-0.623-0.194-0.97-0.857-0.775-1.48l1.154-3.699
				c0.194-0.624,0.857-0.971,1.48-0.776l19.969,6.234c0.623,0.194,0.971,0.857,0.776,1.48l-1.155,3.7
				C413.04,167.285,412.378,167.632,411.755,167.438z"/>
			<path fill="#233863" d="M412.105,168.492c-0.215,0-0.433-0.032-0.648-0.099l0,0l-19.97-6.234
				c-1.147-0.358-1.79-1.584-1.433-2.732l1.154-3.699c0.174-0.556,0.554-1.012,1.07-1.283c0.518-0.27,1.106-0.324,1.663-0.15
				l19.969,6.234c1.148,0.358,1.791,1.584,1.434,2.732l-1.156,3.7C413.897,167.893,413.034,168.492,412.105,168.492z
				 M412.053,166.483c0.095,0.029,0.197-0.024,0.228-0.119l1.155-3.7c0.029-0.096-0.024-0.198-0.12-0.228l-19.969-6.234
				c-0.08-0.025-0.202,0.038-0.228,0.12l-1.154,3.699c-0.03,0.096,0.022,0.198,0.118,0.228L412.053,166.483z"/>
		</g>
		<g>
			<path fill="#FFB44F" d="M441.799,176.816l-19.97-6.233c-0.623-0.195-0.971-0.857-0.776-1.48l1.155-3.699
				c0.194-0.623,0.857-0.97,1.48-0.776l19.969,6.233c0.623,0.195,0.971,0.857,0.776,1.48l-1.155,3.699
				C443.084,176.664,442.422,177.011,441.799,176.816z"/>
			<path fill="#233863" d="M442.153,177.871c-0.219,0-0.438-0.033-0.652-0.1l0,0l-19.97-6.233c-0.557-0.174-1.012-0.554-1.282-1.07
				c-0.271-0.517-0.324-1.107-0.149-1.664l1.153-3.698c0.358-1.148,1.584-1.792,2.733-1.433l19.969,6.233
				c1.148,0.359,1.791,1.585,1.434,2.733l-1.156,3.7c-0.173,0.556-0.553,1.011-1.068,1.282
				C442.847,177.787,442.502,177.871,442.153,177.871z M442.097,175.862c0.095,0.029,0.198-0.024,0.227-0.119l1.156-3.7
				c0.029-0.095-0.024-0.198-0.121-0.228l-19.968-6.233c-0.097-0.031-0.198,0.022-0.228,0.119l-1.154,3.699
				c-0.026,0.083,0.037,0.203,0.119,0.228L442.097,175.862z"/>
		</g>
		<g>
			
				<rect x="291.245" y="242.523" transform="matrix(0.9546 0.298 -0.298 0.9546 92.0731 -94.6948)" fill="#233863" width="130.718" height="24.197"/>
			<path fill="#233863" d="M415.389,287.146c-0.15,0-0.301-0.022-0.447-0.068l-124.779-38.952c-0.79-0.247-1.231-1.088-0.984-1.878
				l7.21-23.098c0.118-0.38,0.383-0.697,0.735-0.882c0.353-0.186,0.763-0.223,1.144-0.103l124.779,38.951
				c0.79,0.247,1.231,1.088,0.984,1.879l-7.21,23.099c-0.118,0.38-0.383,0.696-0.735,0.881
				C415.868,287.089,415.629,287.146,415.389,287.146z M292.488,245.71l121.915,38.058l6.316-20.234l-121.915-38.058L292.488,245.71
				z"/>
		</g>
		<path fill="#FFFFFF" d="M332.573,252.709c-0.246,0-0.496-0.036-0.744-0.113l-22.138-6.912c-1.315-0.411-2.051-1.815-1.641-3.131
			l1.93-6.183c0.199-0.638,0.635-1.16,1.227-1.47c0.591-0.31,1.267-0.372,1.905-0.172l22.138,6.911
			c0.637,0.199,1.159,0.634,1.469,1.226c0.311,0.591,0.371,1.268,0.173,1.906l-1.93,6.183
			C334.628,252.022,333.639,252.709,332.573,252.709z M332.128,251.641c0.78,0.246,1.632-0.194,1.879-0.985l1.93-6.183
			c0.12-0.383,0.083-0.789-0.104-1.144c-0.186-0.355-0.499-0.616-0.882-0.735l-22.138-6.911c-0.379-0.119-0.788-0.083-1.143,0.104
			c-0.355,0.186-0.616,0.5-0.735,0.882l-1.93,6.183c-0.247,0.79,0.195,1.632,0.984,1.879L332.128,251.641z"/>
		<path fill="#FFFFFF" d="M366.797,263.392c-0.25,0-0.502-0.038-0.748-0.114l-22.138-6.91c-0.637-0.199-1.158-0.635-1.469-1.227
			s-0.371-1.269-0.172-1.906l1.93-6.182c0.199-0.638,0.635-1.16,1.227-1.47c0.592-0.311,1.268-0.372,1.905-0.172l22.138,6.911
			c0.637,0.199,1.159,0.635,1.469,1.226c0.311,0.592,0.371,1.269,0.173,1.906l-1.931,6.183c-0.199,0.637-0.635,1.159-1.226,1.469
			C367.592,263.295,367.196,263.392,366.797,263.392z M366.348,262.322c0.382,0.119,0.788,0.082,1.143-0.104
			c0.355-0.186,0.616-0.499,0.735-0.882l1.931-6.183c0.119-0.382,0.083-0.788-0.104-1.143c-0.186-0.355-0.499-0.616-0.882-0.735
			l-22.138-6.912c-0.382-0.119-0.787-0.083-1.143,0.104s-0.616,0.5-0.735,0.882l-1.93,6.183c-0.12,0.382-0.083,0.788,0.103,1.144
			c0.187,0.354,0.499,0.616,0.882,0.735L366.348,262.322z"/>
		<path fill="#FFFFFF" d="M401.396,274.192c-0.25,0-0.502-0.038-0.748-0.114l-22.138-6.91c-1.315-0.412-2.052-1.817-1.642-3.133
			l1.931-6.183c0.199-0.637,0.635-1.159,1.226-1.469s1.267-0.372,1.906-0.173l22.138,6.911c0.637,0.199,1.159,0.635,1.469,1.226
			c0.311,0.592,0.371,1.269,0.173,1.906l-1.931,6.183c-0.199,0.637-0.635,1.159-1.226,1.469
			C402.191,274.096,401.796,274.192,401.396,274.192z M400.947,273.123c0.383,0.118,0.788,0.083,1.143-0.104
			c0.355-0.186,0.616-0.499,0.735-0.882l1.931-6.183c0.119-0.382,0.083-0.788-0.104-1.143c-0.186-0.355-0.499-0.616-0.882-0.735
			l-22.138-6.911c-0.383-0.119-0.788-0.083-1.143,0.104c-0.355,0.186-0.616,0.499-0.735,0.882l-1.931,6.183
			c-0.246,0.789,0.195,1.632,0.985,1.879L400.947,273.123z"/>
		<g>
			<path fill="#5A6F8E" d="M305.185,294.713l-15.875-4.955c-4.453-1.391-6.959-6.171-5.569-10.624l2.874-9.207
				c1.391-4.453,6.171-6.96,10.624-5.569l15.875,4.956c4.453,1.39,6.959,6.17,5.569,10.623l-2.874,9.208
				C314.418,293.598,309.638,296.104,305.185,294.713z"/>
			<path fill="#233863" d="M307.706,296.6c-0.995,0-1.994-0.15-2.969-0.455l-15.875-4.955c-5.253-1.641-8.193-7.249-6.554-12.503
				l2.874-9.208c1.642-5.253,7.248-8.193,12.503-6.553l15.875,4.955c5.253,1.641,8.193,7.249,6.554,12.503l-2.874,9.208
				c-0.792,2.536-2.531,4.616-4.898,5.856C310.884,296.213,309.3,296.6,307.706,296.6z M294.715,265.472
				c-2.974,0-5.736,1.917-6.669,4.901l-2.874,9.208c-1.146,3.674,0.91,7.598,4.585,8.745l15.875,4.955l0,0
				c1.772,0.553,3.659,0.379,5.316-0.489c1.658-0.869,2.875-2.323,3.429-4.095l2.874-9.208c1.146-3.674-0.91-7.598-4.585-8.745
				l-15.875-4.955C296.102,265.574,295.402,265.472,294.715,265.472z"/>
		</g>
		<g>
			<path fill="#5A6F8E" d="M348.572,308.257l-15.876-4.955c-4.453-1.391-6.959-6.171-5.568-10.624l2.874-9.207
				c1.391-4.453,6.171-6.959,10.624-5.569l15.875,4.956c4.453,1.39,6.959,6.17,5.569,10.623l-2.875,9.208
				C357.806,307.142,353.024,309.647,348.572,308.257z"/>
			<path fill="#233863" d="M351.092,310.145c-0.994,0-1.992-0.15-2.967-0.455l0,0l-15.876-4.956
				c-5.254-1.641-8.193-7.249-6.553-12.503l2.874-9.207c0.791-2.536,2.531-4.616,4.898-5.857c2.368-1.24,5.067-1.489,7.604-0.696
				l15.875,4.956c5.253,1.64,8.193,7.247,6.554,12.502l-2.875,9.208c-0.791,2.536-2.531,4.616-4.898,5.857
				C354.271,309.757,352.687,310.145,351.092,310.145z M349.02,306.826c1.769,0.552,3.657,0.378,5.316-0.49
				c1.657-0.869,2.875-2.323,3.428-4.095l2.875-9.208c0.553-1.771,0.378-3.659-0.49-5.316c-0.869-1.657-2.323-2.875-4.095-3.428
				l-15.875-4.956c-1.77-0.552-3.659-0.377-5.317,0.49c-1.657,0.869-2.875,2.323-3.428,4.095l-2.874,9.207
				c-0.553,1.771-0.379,3.659,0.489,5.316c0.869,1.658,2.323,2.875,4.095,3.429L349.02,306.826z"/>
		</g>
		<g>
			<path fill="#5A6F8E" d="M391.308,321.598l-15.876-4.955c-4.452-1.391-6.959-6.171-5.568-10.624l2.874-9.208
				c1.391-4.453,6.171-6.959,10.624-5.568l15.875,4.955c4.453,1.391,6.959,6.171,5.569,10.624l-2.874,9.208
				C400.541,320.481,395.761,322.988,391.308,321.598z"/>
			<path fill="#233863" d="M393.829,323.484c-0.983,0-1.981-0.146-2.969-0.455l-15.875-4.955c-5.253-1.641-8.193-7.249-6.554-12.503
				l2.874-9.208c0.792-2.536,2.531-4.616,4.898-5.856c2.369-1.242,5.069-1.489,7.604-0.696l15.875,4.955
				c5.253,1.641,8.193,7.249,6.554,12.503l-2.874,9.208C402.03,320.743,398.08,323.483,393.829,323.484z M380.844,292.356
				c-1.116,0-2.225,0.271-3.246,0.807c-1.658,0.869-2.875,2.323-3.429,4.095l-2.874,9.208c-1.146,3.674,0.91,7.598,4.585,8.745
				l15.875,4.955l0,0c3.673,1.146,7.597-0.908,8.745-4.584l2.874-9.208c1.146-3.674-0.91-7.598-4.585-8.745l-15.875-4.955
				C382.234,292.462,381.538,292.356,380.844,292.356z"/>
		</g>
		<g>
			<path fill="#5A6F8E" d="M294.579,328.687l-15.875-4.956c-4.453-1.39-6.959-6.171-5.569-10.624l2.875-9.207
				c1.39-4.453,6.17-6.959,10.623-5.569l15.875,4.956c4.453,1.39,6.96,6.171,5.569,10.624l-2.874,9.207
				C303.813,327.57,299.032,330.076,294.579,328.687z"/>
			<path fill="#233863" d="M297.1,330.572c-0.982,0-1.981-0.146-2.968-0.454l0,0l-15.875-4.956
				c-2.536-0.791-4.616-2.531-5.857-4.898c-1.24-2.367-1.488-5.067-0.696-7.604l2.875-9.207c1.638-5.253,7.241-8.192,12.502-6.554
				l15.876,4.956c2.535,0.791,4.615,2.531,5.856,4.898s1.488,5.068,0.696,7.604l-2.874,9.207
				C305.303,327.831,301.352,330.572,297.1,330.572z M295.026,327.255c3.673,1.145,7.598-0.909,8.745-4.585l2.874-9.207
				c0.553-1.771,0.379-3.659-0.49-5.317c-0.869-1.657-2.322-2.875-4.094-3.428l-15.876-4.956c-1.77-0.553-3.659-0.378-5.316,0.49
				c-1.657,0.869-2.875,2.323-3.428,4.095l-2.875,9.207c-0.553,1.771-0.378,3.659,0.49,5.317c0.869,1.657,2.323,2.875,4.095,3.428
				L295.026,327.255z"/>
		</g>
		<g>
			<path fill="#5A6F8E" d="M337.967,342.23l-15.875-4.956c-4.453-1.39-6.959-6.171-5.569-10.624l2.874-9.207
				c1.391-4.453,6.171-6.959,10.624-5.569l15.875,4.956c4.453,1.39,6.959,6.171,5.569,10.624l-2.875,9.207
				C347.2,341.114,342.42,343.62,337.967,342.23z"/>
			<path fill="#233863" d="M340.487,344.116c-0.982,0-1.981-0.146-2.968-0.454l0,0l-15.875-4.956
				c-2.536-0.791-4.616-2.531-5.857-4.898c-1.24-2.367-1.488-5.067-0.696-7.604l2.874-9.207c1.64-5.253,7.246-8.192,12.503-6.554
				l15.875,4.956c2.536,0.791,4.616,2.531,5.857,4.898c1.24,2.367,1.488,5.067,0.696,7.604l-2.874,9.207
				C348.69,341.375,344.739,344.116,340.487,344.116z M338.414,340.799c3.674,1.146,7.597-0.91,8.745-4.585l2.874-9.207
				c0.553-1.771,0.378-3.659-0.49-5.317c-0.869-1.657-2.323-2.875-4.095-3.428l-15.875-4.956c-3.671-1.143-7.597,0.909-8.745,4.585
				l-2.874,9.207c-0.553,1.771-0.378,3.659,0.49,5.317c0.869,1.657,2.323,2.875,4.095,3.428L338.414,340.799z"/>
		</g>
		<g>
			<path fill="#5A6F8E" d="M380.702,355.57l-15.875-4.955c-4.453-1.391-6.959-6.171-5.569-10.624l2.875-9.207
				c1.39-4.453,6.17-6.96,10.623-5.569l15.875,4.956c4.453,1.39,6.959,6.17,5.569,10.623l-2.874,9.208
				C389.936,354.455,385.155,356.961,380.702,355.57z"/>
			<path fill="#233863" d="M383.223,357.457c-0.982,0-1.981-0.146-2.968-0.454l0,0l-15.875-4.956
				c-5.253-1.641-8.193-7.249-6.554-12.503l2.875-9.207c1.639-5.253,7.241-8.192,12.502-6.554l15.876,4.956
				c2.535,0.791,4.615,2.531,5.856,4.897c1.241,2.368,1.488,5.068,0.696,7.604l-2.874,9.208
				C391.426,354.716,387.475,357.457,383.223,357.457z M381.149,354.14c3.674,1.146,7.598-0.909,8.745-4.585l2.874-9.208
				c0.553-1.771,0.379-3.659-0.49-5.316c-0.868-1.657-2.322-2.875-4.094-3.428l-15.876-4.956c-1.771-0.552-3.659-0.377-5.316,0.49
				c-1.657,0.869-2.875,2.323-3.428,4.095l-2.875,9.207c-1.146,3.674,0.91,7.598,4.585,8.745L381.149,354.14z"/>
		</g>
		<g>
			<path fill="#3AAED5" d="M283.975,362.659l-15.876-4.956c-4.453-1.39-6.959-6.17-5.568-10.623l2.874-9.208
				c1.39-4.453,6.171-6.959,10.624-5.569l15.875,4.956c4.453,1.39,6.959,6.171,5.568,10.624l-2.874,9.207
				C293.208,361.543,288.427,364.049,283.975,362.659z"/>
			<path fill="#233863" d="M286.494,364.546c-0.995,0-1.993-0.15-2.968-0.455l0,0l-15.875-4.956
				c-2.536-0.791-4.616-2.531-5.856-4.898c-1.241-2.367-1.488-5.067-0.696-7.604l2.874-9.208c0.791-2.536,2.531-4.616,4.898-5.857
				c2.368-1.24,5.068-1.489,7.604-0.696l15.875,4.956c5.254,1.641,8.193,7.249,6.553,12.503l-2.874,9.207
				c-0.791,2.536-2.531,4.616-4.898,5.857C289.673,364.158,288.089,364.546,286.494,364.546z M284.421,361.228
				c1.771,0.552,3.659,0.378,5.317-0.49c1.657-0.869,2.875-2.323,3.428-4.095l2.874-9.207c0.553-1.771,0.379-3.659-0.489-5.316
				c-0.869-1.658-2.323-2.875-4.095-3.429l-15.875-4.956c-1.77-0.553-3.658-0.378-5.317,0.49c-1.657,0.869-2.875,2.323-3.428,4.095
				l-2.874,9.208c-0.553,1.771-0.379,3.659,0.489,5.316c0.869,1.657,2.323,2.875,4.095,3.428L284.421,361.228z"/>
		</g>
		<g>
			<path fill="#FFB44F" d="M327.361,376.203l-15.875-4.956c-4.453-1.39-6.959-6.17-5.569-10.623l2.875-9.208
				c1.39-4.453,6.171-6.959,10.623-5.568l15.876,4.955c4.452,1.391,6.959,6.171,5.568,10.624l-2.874,9.208
				C336.596,375.087,331.814,377.594,327.361,376.203z"/>
			<path fill="#233863" d="M329.882,378.09c-0.994,0-1.993-0.15-2.968-0.455l-15.875-4.956c-2.536-0.791-4.616-2.53-5.857-4.897
				c-1.24-2.367-1.488-5.067-0.696-7.604l2.875-9.208c0.791-2.536,2.531-4.616,4.898-5.856c2.366-1.242,5.067-1.488,7.604-0.696
				l15.876,4.955c5.254,1.641,8.193,7.25,6.553,12.503l-2.874,9.207c-0.792,2.536-2.531,4.616-4.898,5.857
				C333.061,377.702,331.477,378.09,329.882,378.09z M316.897,346.962c-1.116,0-2.225,0.271-3.246,0.807
				c-1.657,0.869-2.875,2.323-3.428,4.095l-2.875,9.208c-0.553,1.771-0.378,3.659,0.49,5.316c0.869,1.657,2.323,2.875,4.095,3.428
				l15.875,4.956l0,0c1.769,0.552,3.659,0.38,5.316-0.49c1.658-0.869,2.875-2.323,3.429-4.095l2.874-9.207
				c1.147-3.674-0.909-7.597-4.584-8.745l-15.876-4.955C318.288,347.067,317.592,346.962,316.897,346.962z"/>
		</g>
		<g>
			<path fill="#3D85FD" d="M370.097,389.544l-15.875-4.956c-4.453-1.39-6.959-6.171-5.569-10.624l2.875-9.207
				c1.39-4.453,6.171-6.959,10.624-5.569l15.875,4.956c4.453,1.39,6.959,6.171,5.569,10.624l-2.875,9.207
				C379.331,388.428,374.55,390.934,370.097,389.544z"/>
			<path fill="#233863" d="M372.617,391.431c-0.995,0-1.993-0.15-2.968-0.455l0,0l-15.875-4.956
				c-2.536-0.791-4.616-2.531-5.856-4.898c-1.241-2.367-1.488-5.068-0.696-7.604l2.874-9.207c0.791-2.536,2.531-4.616,4.898-5.857
				c2.368-1.24,5.068-1.489,7.604-0.696l15.875,4.956c2.536,0.791,4.616,2.531,5.856,4.898c1.241,2.367,1.488,5.068,0.696,7.604
				l-2.874,9.207c-0.791,2.536-2.531,4.616-4.898,5.857C375.796,391.043,374.212,391.431,372.617,391.431z M370.544,388.112
				c1.77,0.553,3.659,0.378,5.317-0.49c1.657-0.869,2.875-2.323,3.428-4.095l2.874-9.207c0.553-1.771,0.379-3.659-0.489-5.317
				c-0.869-1.657-2.323-2.875-4.095-3.428l-15.875-4.956c-1.77-0.552-3.659-0.377-5.317,0.49c-1.657,0.869-2.875,2.323-3.428,4.095
				l-2.874,9.207c-0.553,1.771-0.379,3.659,0.489,5.317c0.869,1.657,2.323,2.875,4.095,3.428L370.544,388.112z"/>
		</g>
		<g>
			<path fill="#233863" d="M365.395,419.262l-109.683-34.239c-3.536-1.104-5.526-4.9-4.423-8.437l0,0
				c1.104-3.536,4.9-5.526,8.437-4.423l109.684,34.239c3.536,1.104,5.526,4.9,4.422,8.437l0,0
				C372.728,418.375,368.931,420.365,365.395,419.262z"/>
			<path fill="#233863" d="M367.396,421.068c-0.811,0-1.635-0.121-2.449-0.375l0,0l-109.683-34.239
				c-4.334-1.353-6.761-5.979-5.407-10.315c1.354-4.334,5.978-6.761,10.315-5.407l109.684,34.239
				c2.093,0.653,3.809,2.089,4.832,4.042c1.024,1.953,1.228,4.181,0.574,6.273C374.164,418.807,370.904,421.068,367.396,421.068z
				 M365.842,417.83c2.752,0.859,5.697-0.682,6.558-3.438c0.414-1.327,0.284-2.743-0.367-3.986c-0.652-1.243-1.742-2.156-3.07-2.571
				l-109.684-34.239c-2.752-0.858-5.696,0.684-6.558,3.438c-0.859,2.756,0.683,5.697,3.438,6.558L365.842,417.83z"/>
		</g>
		<circle fill="#FFFFFF" cx="361.258" cy="366.62" r="2.384"/>
		<circle fill="#FFFFFF" cx="318.523" cy="353.57" r="2.384"/>
		<circle fill="#FFFFFF" cx="273.726" cy="339.259" r="2.384"/>
		<circle fill="#FFFFFF" cx="373.87" cy="384.004" r="1.237"/>
		<circle fill="#233863" cx="380.887" cy="296.69" r="1.593"/>
		<circle fill="#233863" cx="369.479" cy="332.37" r="1.593"/>
		<g>
			<circle fill="#2F4770" cx="417.617" cy="239.623" r="4.173"/>
			<path fill="#233863" d="M417.617,245.296c-3.129,0-5.674-2.545-5.674-5.673c0-3.128,2.545-5.673,5.674-5.673
				c3.128,0,5.673,2.545,5.673,5.673C423.29,242.751,420.745,245.296,417.617,245.296z M417.617,236.95
				c-1.475,0-2.674,1.199-2.674,2.673c0,1.474,1.199,2.673,2.674,2.673c1.474,0,2.673-1.199,2.673-2.673
				C420.29,238.149,419.091,236.95,417.617,236.95z"/>
		</g>
	</g>
	<g>
		<g>
			<g>
				<circle fill="#233863" cx="181.75" cy="373.005" r="50.247"/>
			</g>
			<g>
				<g>
					<circle fill="#233863" cx="176.913" cy="370.308" r="50.247"/>
					<g>
						<circle fill="#FFB44F" cx="176.913" cy="370.308" r="50.247"/>
						<path fill="#233863" d="M176.912,422.055c-28.533,0-51.746-23.214-51.746-51.747s23.213-51.747,51.746-51.747
							s51.747,23.214,51.747,51.747S205.445,422.055,176.912,422.055z M176.912,321.561c-26.879,0-48.746,21.868-48.746,48.747
							s21.867,48.747,48.746,48.747s48.747-21.868,48.747-48.747S203.791,321.561,176.912,321.561z"/>
					</g>
					<path fill="#FFFFFF" d="M176.912,411.776c-22.865,0-41.468-18.603-41.468-41.469s18.603-41.469,41.468-41.469
						c22.866,0,41.469,18.603,41.469,41.469S199.778,411.776,176.912,411.776z M176.912,330.839
						c-21.763,0-39.468,17.706-39.468,39.469s17.705,39.469,39.468,39.469s39.469-17.706,39.469-39.469
						S198.675,330.839,176.912,330.839z"/>
					<path fill="#FFFFFF" d="M176.451,407.288c-20.391,0-36.98-16.59-36.98-36.98s16.59-36.98,36.98-36.98s36.98,16.59,36.98,36.98
						S196.842,407.288,176.451,407.288z M176.451,335.327c-19.288,0-34.98,15.692-34.98,34.98s15.692,34.98,34.98,34.98
						s34.98-15.692,34.98-34.98S195.739,335.327,176.451,335.327z"/>
					<g>
						<path fill="#233863" d="M190.311,376.094c0,3.271-1.308,6.428-3.555,8.731c-1.508,1.594-3.328,2.702-5.404,3.3v2.39
							c0,1.137-0.427,2.218-1.194,3.015c-0.769,0.796-1.82,1.251-2.958,1.251c-1.224,0-2.275-0.455-3.072-1.251
							c-0.796-0.797-1.279-1.878-1.279-3.015v-1.935h-3.954c-1.792,0-3.271-0.569-4.295-1.508c-0.995-0.938-1.535-2.275-1.535-3.839
							c0-3.101,2.076-4.665,5.83-4.665h9.357c0.37,0,0.882-0.143,1.252-0.455c0.483-0.37,0.711-0.854,0.711-1.422
							c0-0.825-0.313-1.365-0.938-1.679c-0.313-0.142-0.512-0.199-0.654-0.228c-0.199-0.028-0.313-0.057-0.313-0.057h-4.466
							c-3.101-0.085-5.973-1.309-8.049-3.327c-2.076-2.049-3.3-4.779-3.3-7.879c0-3.214,1.365-6.314,3.641-8.59
							c1.82-1.82,4.181-3.043,6.713-3.47v-1.593c0-1.166,0.427-2.162,1.279-3.015c0.825-0.825,1.849-1.252,3.044-1.252
							c1.109,0,2.161,0.455,2.958,1.252c0.824,0.853,1.223,1.849,1.223,3.015v1.422h1.508c3.726,0,5.916,1.792,5.916,4.893
							c0,3.413-2.19,5.233-5.916,5.233h-8.732c-0.995,0-1.649,0.653-1.649,1.563c0,0.939,0.512,1.707,1.337,1.707h4.295
							c3.327,0,6.399,1.166,8.646,3.214C189.031,369.95,190.311,372.823,190.311,376.094z"/>
					</g>
				</g>
				<circle fill="#233863" cx="201.599" cy="371.858" r="3.626"/>
				<circle fill="#233863" cx="150.658" cy="371.858" r="3.626"/>
			</g>
		</g>
		<g>
			<g>
				<circle fill="#233863" cx="125.081" cy="307.487" r="18.149"/>
			</g>
			<g>
				<g>
					<circle fill="#233863" cx="123.589" cy="306.155" r="18.149"/>
					<g>
						<circle fill="#FFB44F" cx="123.589" cy="306.155" r="18.149"/>
						<path fill="#233863" d="M123.591,325.307c-1.381,0-2.781-0.15-4.184-0.465c-4.991-1.116-9.249-4.11-11.989-8.43
							c-2.739-4.319-3.633-9.447-2.516-14.438c1.116-4.991,4.11-9.249,8.43-11.988c4.318-2.739,9.443-3.636,14.438-2.517
							c4.991,1.116,9.249,4.11,11.988,8.43c2.74,4.319,3.634,9.446,2.517,14.438l0,0
							C140.283,319.237,132.354,325.307,123.591,325.307z M123.556,289c-3.216,0-6.371,0.909-9.152,2.674
							c-3.868,2.453-6.55,6.267-7.55,10.737c-1,4.47-0.2,9.062,2.254,12.93c2.453,3.868,6.267,6.55,10.737,7.55
							c9.224,2.06,18.413-3.763,20.479-12.991c1-4.47,0.199-9.062-2.254-12.93c-2.454-3.868-6.267-6.55-10.737-7.55
							C126.077,289.14,124.812,289,123.556,289z M141.3,310.118h0.01H141.3z"/>
					</g>
					<path fill="#FFFFFF" d="M123.606,321.151c-1.095,0-2.197-0.121-3.292-0.365l0,0c-8.066-1.806-13.161-9.838-11.356-17.905
						c0.873-3.901,3.219-7.232,6.604-9.38c3.385-2.146,7.395-2.849,11.301-1.977c8.067,1.807,13.162,9.838,11.356,17.904
						c-0.873,3.902-3.219,7.233-6.604,9.381C129.179,320.354,126.417,321.151,123.606,321.151z M120.479,320.054
						c3.707,0.829,7.519,0.163,10.734-1.877c3.217-2.04,5.444-5.205,6.273-8.912c1.716-7.662-3.124-15.292-10.788-17.008
						c-3.706-0.829-7.519-0.162-10.734,1.877c-3.217,2.04-5.444,5.205-6.273,8.911C107.976,310.708,112.815,318.339,120.479,320.054
						L120.479,320.054z"/>
					<path fill="#FFFFFF" d="M123.428,319.492c-0.965,0-1.942-0.105-2.922-0.324c-7.194-1.61-11.738-8.774-10.129-15.969
						c0.779-3.479,2.871-6.451,5.891-8.366c3.019-1.916,6.599-2.539,10.078-1.763c7.194,1.609,11.738,8.773,10.129,15.969
						C135.084,315.254,129.548,319.491,123.428,319.492z M123.41,293.494c-2.366,0-4.69,0.671-6.741,1.972
						c-2.85,1.809-4.824,4.612-5.56,7.897c-1.52,6.791,2.77,13.553,9.561,15.072c3.286,0.735,6.664,0.145,9.513-1.664
						c2.851-1.808,4.825-4.612,5.56-7.896c0.735-3.284,0.145-6.663-1.664-9.513c-1.808-2.851-4.612-4.825-7.896-5.56l0,0
						C125.261,293.597,124.332,293.494,123.41,293.494z"/>
					<g>
						<path fill="#233863" d="M127.851,309.253c-0.258,1.151-0.968,2.161-1.941,2.796c-0.656,0.442-1.385,0.689-2.164,0.736
							l-0.188,0.841c-0.09,0.401-0.325,0.748-0.658,0.969c-0.333,0.22-0.74,0.297-1.141,0.207c-0.431-0.096-0.767-0.339-0.983-0.682
							c-0.218-0.344-0.304-0.763-0.214-1.164l0.152-0.682l-1.394-0.312c-0.631-0.142-1.107-0.458-1.394-0.869
							c-0.277-0.409-0.361-0.923-0.238-1.475c0.244-1.092,1.1-1.479,2.422-1.184l3.298,0.737c0.13,0.029,0.321,0.02,0.477-0.062
							c0.198-0.092,0.317-0.244,0.362-0.445c0.065-0.289-0.003-0.505-0.198-0.665c-0.1-0.074-0.165-0.11-0.213-0.131
							c-0.068-0.026-0.106-0.045-0.106-0.045l-1.573-0.353c-1.085-0.274-2.001-0.932-2.573-1.807
							c-0.57-0.886-0.786-1.944-0.542-3.036c0.254-1.133,0.979-2.117,1.961-2.74c0.785-0.497,1.713-0.742,2.639-0.693l0.125-0.561
							c0.093-0.411,0.321-0.729,0.689-0.961c0.354-0.226,0.75-0.295,1.17-0.201c0.392,0.087,0.727,0.33,0.944,0.675
							c0.224,0.364,0.285,0.747,0.192,1.157l-0.111,0.501l0.531,0.119c1.313,0.294,1.943,1.098,1.699,2.19
							c-0.27,1.203-1.186,1.672-2.498,1.378l-3.076-0.688c-0.352-0.078-0.634,0.1-0.705,0.421c-0.074,0.331,0.047,0.642,0.336,0.706
							l1.514,0.339c1.173,0.263,2.163,0.916,2.794,1.814C127.884,306.986,128.108,308.1,127.851,309.253z"/>
					</g>
				</g>
				<circle fill="#233863" cx="132.168" cy="308.648" r="1.31"/>
				<circle fill="#233863" cx="114.212" cy="304.631" r="1.31"/>
			</g>
		</g>
		<g>
			<g>
				<circle fill="#233863" cx="93.901" cy="353.969" r="24.44"/>
			</g>
		</g>
		<g>
			<circle fill="#233863" cx="91.279" cy="353.348" r="24.44"/>
			<g>
				<circle fill="#FFB44F" cx="91.279" cy="353.348" r="24.44"/>
				<path fill="#233863" d="M91.289,379.291c-11.312,0-21.737-7.466-24.969-18.874c-3.897-13.763,4.129-28.13,17.891-32.028
					c13.77-3.896,28.131,4.13,32.027,17.891c3.897,13.763-4.128,28.13-17.89,32.027C95.994,378.973,93.623,379.291,91.289,379.291z
					 M91.313,330.396c-2.099,0-4.21,0.291-6.284,0.879c-12.171,3.447-19.269,16.153-15.822,28.323
					c3.447,12.171,16.152,19.267,28.323,15.821c5.896-1.669,10.789-5.535,13.776-10.885c2.988-5.349,3.715-11.542,2.045-17.438
					c-1.669-5.896-5.535-10.789-10.885-13.777C99,331.384,95.179,330.396,91.313,330.396z"/>
			</g>
			<path fill="#FFFFFF" d="M91.287,373.409c-8.747,0-16.809-5.772-19.308-14.595c-3.014-10.643,3.192-21.753,13.834-24.767
				c5.147-1.46,10.562-0.82,15.244,1.796s8.064,6.892,9.521,12.038c1.458,5.147,0.82,10.562-1.796,15.244
				c-2.615,4.683-6.891,8.064-12.037,9.521C94.926,373.163,93.091,373.409,91.287,373.409z M91.292,334.032
				c-1.763,0-3.533,0.244-5.273,0.736C75.774,337.671,69.8,348.365,72.7,358.609c2.903,10.245,13.604,16.215,23.841,13.317l0,0
				c4.954-1.403,9.069-4.658,11.588-9.167c2.519-4.508,3.133-9.719,1.729-14.673c-1.403-4.955-4.658-9.07-9.167-11.589
				C97.768,334.865,94.546,334.032,91.292,334.032z"/>
			<path fill="#FFFFFF" d="M91.051,371.291c-3.013,0-5.993-0.771-8.701-2.282c-4.173-2.332-7.187-6.142-8.485-10.729
				c-1.3-4.588-0.731-9.412,1.6-13.585c2.332-4.174,6.142-7.188,10.729-8.485l0,0c4.589-1.301,9.413-0.73,13.585,1.6
				c4.174,2.332,7.188,6.142,8.485,10.729c1.3,4.587,0.731,9.411-1.6,13.585c-2.332,4.173-6.142,7.187-10.729,8.485
				C94.323,371.065,92.683,371.291,91.051,371.291z M91.075,336.277c-1.563,0-3.134,0.217-4.678,0.653l0,0
				c-4.395,1.245-8.045,4.132-10.278,8.13c-2.233,3.999-2.778,8.621-1.534,13.015c1.245,4.395,4.133,8.045,8.131,10.278
				c3.999,2.234,8.623,2.776,13.014,1.534c4.395-1.245,8.045-4.133,10.278-8.131s2.778-8.62,1.534-13.014
				c-1.245-4.395-4.132-8.045-8.13-10.278C96.818,337.016,93.961,336.277,91.075,336.277z"/>
			<g>
				<path fill="#233863" d="M98.321,354.276c0.434,1.531,0.239,3.182-0.507,4.559c-0.495,0.946-1.2,1.707-2.093,2.262l0.316,1.119
					c0.151,0.532,0.095,1.094-0.16,1.569c-0.252,0.475-0.687,0.826-1.219,0.978c-0.572,0.162-1.125,0.089-1.604-0.179
					c-0.479-0.267-0.848-0.708-0.999-1.241l-0.257-0.906l-1.852,0.525c-0.838,0.237-1.606,0.167-2.21-0.137
					c-0.591-0.308-1.021-0.861-1.228-1.594c-0.412-1.451,0.353-2.459,2.11-2.957l4.382-1.24c0.173-0.049,0.394-0.184,0.525-0.379
					c0.177-0.237,0.219-0.494,0.144-0.762c-0.109-0.386-0.326-0.597-0.661-0.66c-0.165-0.025-0.266-0.025-0.336-0.02
					c-0.098,0.012-0.154,0.014-0.154,0.014l-2.091,0.592c-1.463,0.373-2.97,0.18-4.21-0.49c-1.243-0.683-2.179-1.8-2.59-3.25
					c-0.426-1.506-0.197-3.139,0.565-4.504c0.611-1.094,1.556-1.98,2.684-2.516l-0.211-0.746c-0.155-0.545-0.087-1.068,0.2-1.581
					c0.275-0.495,0.699-0.831,1.258-0.989c0.52-0.146,1.072-0.073,1.551,0.193c0.499,0.291,0.818,0.704,0.973,1.25l0.188,0.666
					l0.705-0.199c1.745-0.494,3.008,0.055,3.419,1.505c0.453,1.599-0.332,2.741-2.076,3.235l-4.088,1.157
					c-0.467,0.132-0.686,0.525-0.564,0.95c0.125,0.44,0.466,0.732,0.853,0.623l2.011-0.57c1.558-0.44,3.149-0.302,4.474,0.358
					C96.907,351.569,97.888,352.745,98.321,354.276z"/>
			</g>
		</g>
		<circle fill="#233863" cx="103.038" cy="350.802" r="1.764"/>
		<circle fill="#233863" cx="79.198" cy="357.554" r="1.763"/>
	</g>
	<g>
		<g>
			<path fill="#233863" d="M272.591,257.747l-104.073-5.188c-4.884-0.243-8.645-4.399-8.401-9.283l7.805-156.57
				c0.736-14.775,13.312-26.157,28.088-25.42l69.083,3.443c14.776,0.737,26.157,13.312,25.421,28.088l-7.764,155.737
				C282.482,253.896,277.935,258.013,272.591,257.747z"/>
			<g>
				<path fill="#FFFFFF" d="M265.896,257.747l-104.073-5.188c-4.883-0.243-8.645-4.399-8.401-9.283l7.805-156.57
					c0.737-14.775,13.312-26.157,28.088-25.42l69.083,3.443c14.776,0.737,26.157,13.312,25.421,28.088l-7.764,155.737
					C275.787,253.896,271.239,258.013,265.896,257.747z"/>
				<path fill="#233863" d="M266.383,259.259c-0.187,0-0.373-0.004-0.562-0.014l0,0l-104.073-5.188
					c-5.702-0.284-10.109-5.154-9.825-10.856l7.805-156.57c0.376-7.546,3.668-14.494,9.271-19.564
					c5.604-5.07,12.864-7.654,20.39-7.279l69.083,3.443c15.579,0.777,27.621,14.083,26.845,29.661l-7.764,155.737
					C277.254,254.601,272.299,259.259,266.383,259.259z M265.97,256.249c4.546,0.229,8.361-3.263,8.586-7.771l7.764-155.737
					c0.694-13.926-10.071-25.821-23.997-26.515l-69.083-3.443c-6.749-0.336-13.22,1.974-18.228,6.507
					c-5.009,4.533-7.952,10.744-8.288,17.49l-7.805,156.57c-0.201,4.05,2.929,7.509,6.978,7.71L265.97,256.249z"/>
			</g>
			<g>
				<g>
					<path fill="#FFFFFF" d="M257.152,64.699l0.002-0.032l-98.466-4.909c-11.333-0.565-20.998,8.562-21.587,20.384l-0.405,8.131
						l99.579,4.964l0.405-8.131C237.25,73.674,246.308,64.764,257.152,64.699z"/>
					<path fill="#233863" d="M236.275,94.738c-0.024,0-0.05,0-0.074-0.002l-99.579-4.964c-0.828-0.041-1.465-0.745-1.424-1.573
						l0.405-8.131c0.304-6.106,2.873-11.736,7.232-15.854c4.378-4.133,10.03-6.248,15.927-5.954l98.466,4.909
						c0.4,0.02,0.776,0.199,1.043,0.498c0.268,0.298,0.404,0.691,0.38,1.091c-0.048,0.788-0.7,1.437-1.49,1.441
						c-10.117,0.06-18.455,8.398-18.982,18.982l-0.405,8.131c-0.02,0.397-0.196,0.771-0.491,1.038
						C237.006,94.6,236.646,94.738,236.275,94.738z M138.27,86.851l96.582,4.814l0.331-6.633c0.423-8.496,5.25-15.733,12.107-19.354
						l-88.676-4.421c-5.076-0.248-9.94,1.572-13.719,5.139c-3.794,3.583-6.03,8.492-6.296,13.822L138.27,86.851z"/>
				</g>
			</g>
			<g opacity="0.11">
				<path fill="#233863" d="M257.152,64.699l0.002-0.032l-98.466-4.909c-11.333-0.565-20.998,8.562-21.587,20.384l-0.405,8.131
					l99.579,4.964l0.405-8.131C237.25,73.674,246.308,64.764,257.152,64.699z"/>
			</g>
			<g>
				<line fill="#FFFFFF" x1="183.827" y1="105.156" x2="208.926" y2="106.407"/>
				<path fill="#233863" d="M208.927,107.907c-0.025,0-0.05,0-0.075-0.002l-25.099-1.251c-0.828-0.041-1.465-0.745-1.424-1.573
					c0.041-0.827,0.769-1.465,1.572-1.423L209,104.909c0.828,0.041,1.465,0.745,1.424,1.573
					C210.384,107.284,209.721,107.907,208.927,107.907z"/>
			</g>
			<g>
				<line fill="#FFFFFF" x1="240.741" y1="108.719" x2="265.841" y2="109.97"/>
				<path fill="#233863" d="M265.842,111.47c-0.025,0-0.05,0-0.075-0.002l-25.1-1.251c-0.828-0.041-1.465-0.745-1.424-1.573
					c0.041-0.827,0.767-1.467,1.572-1.423l25.1,1.251c0.828,0.041,1.465,0.745,1.424,1.573
					C267.299,110.847,266.636,111.47,265.842,111.47z"/>
			</g>
			<g>
				<line fill="#FFFFFF" x1="182.352" y1="134.749" x2="232.203" y2="136.925"/>
				<path fill="#233863" d="M232.204,138.425c-0.021,0-0.044,0-0.066-0.001l-49.852-2.176c-0.827-0.036-1.47-0.736-1.434-1.564
					c0.036-0.827,0.704-1.475,1.564-1.433l49.852,2.176c0.827,0.036,1.47,0.736,1.434,1.564
					C233.667,137.796,233.003,138.425,232.204,138.425z"/>
			</g>
			<g>
				<line fill="#FFFFFF" x1="180.96" y1="151.053" x2="201.747" y2="152.215"/>
				<path fill="#233863" d="M201.748,153.715c-0.028,0-0.057-0.001-0.085-0.002l-20.787-1.162c-0.827-0.046-1.46-0.754-1.414-1.581
					c0.047-0.827,0.756-1.455,1.582-1.414l20.787,1.162c0.827,0.046,1.46,0.754,1.414,1.581
					C203.2,153.097,202.538,153.715,201.748,153.715z"/>
			</g>
			<g>
				<line fill="#FFFFFF" x1="183.089" y1="119.965" x2="218.881" y2="121.75"/>
				<path fill="#233863" d="M218.882,123.25c-0.025,0-0.05,0-0.075-0.002l-35.792-1.785c-0.828-0.041-1.465-0.745-1.424-1.573
					c0.042-0.828,0.75-1.463,1.572-1.423l35.792,1.785c0.828,0.041,1.465,0.745,1.424,1.573
					C220.339,122.626,219.676,123.25,218.882,123.25z"/>
			</g>
			<g>
				<line fill="#FFFFFF" x1="227.558" y1="122.182" x2="232.203" y2="122.414"/>
				<path fill="#233863" d="M232.204,123.914c-0.025,0-0.05,0-0.076-0.002l-4.646-0.232c-0.827-0.041-1.464-0.746-1.423-1.573
					c0.042-0.828,0.715-1.474,1.573-1.423l4.646,0.232c0.827,0.041,1.464,0.746,1.423,1.573
					C233.661,123.29,232.998,123.914,232.204,123.914z"/>
			</g>
			<g>
				<path fill="#233863" stroke="#FFFFFF" stroke-width="2" stroke-miterlimit="10" d="M266.433,147.839
					c-0.116,2.727-1.319,5.312-3.272,7.152c-1.313,1.273-2.87,2.134-4.622,2.558l-0.085,1.991c-0.04,0.948-0.434,1.834-1.103,2.47
					c-0.668,0.637-1.561,0.979-2.51,0.938c-1.02-0.043-1.881-0.459-2.516-1.152c-0.636-0.691-0.999-1.61-0.959-2.558l0.068-1.612
					l-3.296-0.14c-1.493-0.063-2.706-0.59-3.525-1.409c-0.797-0.817-1.2-1.951-1.146-3.255c0.11-2.583,1.897-3.814,5.026-3.681
					l7.8,0.332c0.308,0.013,0.739-0.087,1.059-0.334c0.416-0.291,0.622-0.686,0.643-1.161c0.029-0.687-0.212-1.149-0.722-1.432
					c-0.257-0.129-0.421-0.184-0.538-0.213c-0.164-0.031-0.258-0.059-0.258-0.059l-3.723-0.158c-2.581-0.182-4.931-1.302-6.591-3.06
					c-1.657-1.78-2.579-4.099-2.47-6.683c0.114-2.679,1.362-5.215,3.339-7.03c1.582-1.453,3.593-2.389,5.718-2.655l0.057-1.327
					c0.042-0.972,0.433-1.787,1.174-2.468c0.717-0.658,1.584-0.977,2.581-0.935c0.924,0.04,1.785,0.456,2.421,1.148
					c0.657,0.741,0.953,1.585,0.911,2.557l-0.05,1.186l1.257,0.054c3.105,0.132,4.868,1.703,4.758,4.287
					c-0.121,2.845-2.012,4.284-5.117,4.152l-7.277-0.31c-0.829-0.035-1.398,0.487-1.431,1.246c-0.033,0.782,0.366,1.44,1.054,1.47
					l3.58,0.152c2.772,0.118,5.292,1.199,7.092,2.985C265.584,142.673,266.549,145.113,266.433,147.839z"/>
			</g>
			
				<line fill="none" stroke="#233863" stroke-width="3" stroke-linecap="round" stroke-miterlimit="10" x1="138.6" y1="80.217" x2="159.912" y2="81.088"/>
		</g>
		<g>
			<g>
				<g>
					<polyline fill="#3AAED5" points="69.037,163.466 150.293,272.611 219.959,220.747 137.167,109.537 136.451,121.9 
						125.015,119.186 124.335,130.92 113.512,128.351 112.856,139.667 102.236,137.146 101.594,148.252 90.974,145.731 
						90.392,155.79 78.751,153.026 78.048,165.18 69.037,163.466 					"/>
					<path fill="#233863" d="M150.293,274.111c-0.072,0-0.145-0.005-0.218-0.016c-0.394-0.058-0.748-0.27-0.985-0.589
						L67.834,164.361c-0.369-0.496-0.396-1.167-0.068-1.691s0.944-0.792,1.552-0.678l7.332,1.395l0.604-10.448
						c0.025-0.443,0.245-0.852,0.602-1.117c0.354-0.265,0.807-0.359,1.242-0.256l9.899,2.351l0.479-8.272
						c0.025-0.443,0.245-0.852,0.602-1.117c0.354-0.265,0.808-0.36,1.242-0.256l8.879,2.108l0.54-9.32
						c0.025-0.443,0.245-0.852,0.602-1.117c0.354-0.265,0.807-0.359,1.242-0.256l8.879,2.108l0.553-9.53
						c0.025-0.443,0.245-0.852,0.602-1.116c0.354-0.265,0.809-0.359,1.242-0.256l9.082,2.156l0.577-9.949
						c0.025-0.443,0.245-0.852,0.602-1.116c0.354-0.265,0.809-0.359,1.242-0.256l9.695,2.302l0.613-10.578
						c0.036-0.629,0.463-1.169,1.066-1.35c0.604-0.181,1.257,0.035,1.634,0.542l82.792,111.209c0.495,0.664,0.357,1.604-0.308,2.099
						l-69.666,51.865C150.929,274.009,150.614,274.111,150.293,274.111z M72.54,165.659l78.061,104.854l67.26-50.074L138.426,113.74
						l-0.478,8.248c-0.025,0.443-0.245,0.852-0.602,1.116c-0.355,0.265-0.808,0.359-1.242,0.256l-9.695-2.302l-0.577,9.949
						c-0.025,0.443-0.245,0.852-0.602,1.116c-0.355,0.265-0.808,0.36-1.242,0.256l-9.082-2.156l-0.553,9.53
						c-0.025,0.443-0.245,0.852-0.602,1.116c-0.354,0.265-0.809,0.36-1.242,0.256l-8.879-2.108l-0.54,9.32
						c-0.025,0.443-0.245,0.852-0.602,1.117c-0.355,0.265-0.808,0.36-1.242,0.256l-8.879-2.108l-0.479,8.272
						c-0.025,0.443-0.245,0.852-0.602,1.117c-0.354,0.265-0.809,0.359-1.242,0.256l-9.899-2.351l-0.601,10.368
						c-0.024,0.431-0.234,0.831-0.574,1.096c-0.341,0.266-0.781,0.37-1.203,0.291L72.54,165.659z"/>
				</g>
				<g>
					<line fill="#FFFFFF" x1="93.9" y1="177.441" x2="115.32" y2="161.495"/>
					<path fill="#FFFFFF" d="M93.901,178.941c-0.458,0-0.91-0.209-1.204-0.604c-0.495-0.665-0.357-1.604,0.308-2.099l21.42-15.946
						c0.663-0.495,1.604-0.357,2.099,0.308c0.495,0.664,0.357,1.604-0.308,2.099l-21.42,15.946
						C94.527,178.844,94.213,178.941,93.901,178.941z"/>
				</g>
				<g>
					<line fill="#FFFFFF" x1="100.24" y1="185.956" x2="139.617" y2="156.642"/>
					<path fill="#233863" d="M100.241,187.456c-0.458,0-0.91-0.209-1.204-0.604c-0.495-0.664-0.357-1.604,0.308-2.099l39.377-29.314
						c0.663-0.495,1.604-0.357,2.099,0.308c0.495,0.664,0.357,1.604-0.308,2.099l-39.377,29.314
						C100.867,187.359,100.553,187.456,100.241,187.456z"/>
				</g>
				<g>
					<line fill="#FFFFFF" x1="143.876" y1="153.47" x2="149.15" y2="149.544"/>
					<path fill="#FFFFFF" d="M143.877,154.97c-0.458,0-0.91-0.209-1.204-0.604c-0.495-0.665-0.357-1.604,0.308-2.099l5.274-3.926
						c0.664-0.495,1.604-0.357,2.099,0.308c0.495,0.665,0.357,1.604-0.308,2.099l-5.274,3.926
						C144.503,154.874,144.188,154.97,143.877,154.97z"/>
				</g>
				<g>
					<line fill="#FFFFFF" x1="109.365" y1="198.213" x2="123.834" y2="187.441"/>
					<path fill="#233863" d="M109.366,199.713c-0.458,0-0.91-0.209-1.204-0.604c-0.495-0.664-0.357-1.604,0.308-2.099l14.469-10.771
						c0.663-0.494,1.605-0.356,2.099,0.308c0.495,0.664,0.357,1.604-0.308,2.099l-14.469,10.771
						C109.992,199.616,109.678,199.713,109.366,199.713z"/>
				</g>
				<g>
					<line fill="#FFFFFF" x1="130.081" y1="182.791" x2="158.274" y2="161.801"/>
					<path fill="#233863" d="M130.082,184.291c-0.458,0-0.91-0.208-1.204-0.604c-0.495-0.664-0.357-1.604,0.308-2.099l28.193-20.989
						c0.663-0.495,1.604-0.358,2.099,0.308c0.495,0.664,0.357,1.604-0.308,2.099l-28.193,20.989
						C130.708,184.194,130.394,184.291,130.082,184.291z"/>
				</g>
				<g>
					<line fill="#FFFFFF" x1="122.764" y1="216.211" x2="154.514" y2="192.574"/>
					<path fill="#FFFFFF" d="M122.765,217.711c-0.458,0-0.91-0.209-1.204-0.604c-0.495-0.664-0.357-1.604,0.308-2.099l31.751-23.637
						c0.663-0.495,1.604-0.357,2.099,0.308c0.495,0.664,0.357,1.604-0.308,2.099l-31.751,23.637
						C123.391,217.615,123.076,217.711,122.765,217.711z"/>
				</g>
				<g>
					<line fill="#FFFFFF" x1="169.853" y1="207.926" x2="184.497" y2="197.023"/>
					<path fill="#233863" d="M169.854,209.426c-0.458,0-0.91-0.209-1.204-0.604c-0.495-0.664-0.357-1.604,0.308-2.099l14.645-10.902
						c0.664-0.494,1.605-0.357,2.099,0.308c0.495,0.664,0.357,1.604-0.308,2.099l-14.645,10.902
						C170.479,209.329,170.165,209.426,169.854,209.426z"/>
				</g>
			</g>
		</g>
		<g>
			<g>
				<g>
					<polyline fill="#FFB44F" points="178.762,143.063 168.642,224.229 230.43,231.933 240.741,149.232 234.375,154.187 
						229.672,148.145 223.629,152.847 219.178,147.128 213.352,151.663 208.984,146.052 203.265,150.503 198.897,144.892 
						193.718,148.923 188.932,142.772 182.673,147.643 178.843,142.722 					"/>
					<path fill="#233863" d="M230.43,233.433c-0.062,0-0.124-0.004-0.186-0.012l-61.788-7.704c-0.822-0.103-1.405-0.852-1.303-1.674
						l10.12-81.165c0.015-0.115,0.041-0.226,0.079-0.331c0.046-0.385,0.239-0.752,0.569-1.009c0.651-0.51,1.595-0.392,2.104,0.262
						l2.909,3.737l5.075-3.949c0.313-0.244,0.713-0.353,1.106-0.305c0.395,0.049,0.754,0.253,0.998,0.567l3.865,4.967l3.996-3.109
						c0.652-0.51,1.595-0.392,2.104,0.262l3.446,4.427l4.536-3.529c0.652-0.51,1.595-0.392,2.104,0.262l3.445,4.427l4.644-3.613
						c0.652-0.51,1.595-0.392,2.104,0.262l3.53,4.535l4.859-3.781c0.652-0.511,1.595-0.391,2.104,0.262l3.782,4.859l5.183-4.033
						c0.478-0.373,1.134-0.421,1.662-0.121c0.527,0.3,0.822,0.888,0.747,1.49l-10.312,82.7c-0.049,0.395-0.253,0.754-0.567,0.998
						C231.086,233.322,230.762,233.433,230.43,233.433z M170.315,222.926l58.812,7.333l9.678-77.619l-3.509,2.73
						c-0.653,0.509-1.596,0.392-2.104-0.262l-3.782-4.859l-4.859,3.781c-0.653,0.509-1.596,0.391-2.104-0.262l-3.53-4.535
						l-4.644,3.613c-0.313,0.245-0.713,0.356-1.106,0.305c-0.395-0.049-0.754-0.253-0.998-0.567l-3.445-4.427l-4.536,3.529
						c-0.653,0.509-1.596,0.391-2.104-0.262l-3.446-4.427l-3.996,3.109c-0.313,0.244-0.712,0.357-1.106,0.305
						c-0.395-0.049-0.754-0.253-0.998-0.567l-3.865-4.967l-5.075,3.949c-0.653,0.509-1.597,0.391-2.104-0.262l-1.64-2.106
						L170.315,222.926z"/>
				</g>
				<path fill="#FFFFFF" d="M204.073,163.004c-0.041,0-0.083-0.002-0.125-0.008l-18.997-2.369c-0.548-0.068-0.937-0.568-0.868-1.116
					c0.067-0.548,0.565-0.941,1.116-0.869l18.997,2.369c0.548,0.068,0.937,0.568,0.868,1.116
					C205.002,162.634,204.57,163.004,204.073,163.004z"/>
				<g>
					<line fill="#FFFFFF" x1="184.285" y1="165.967" x2="219.209" y2="170.322"/>
					<path fill="#233863" d="M219.21,171.322c-0.041,0-0.083-0.002-0.125-0.008l-34.924-4.354c-0.548-0.068-0.937-0.568-0.868-1.116
						s0.561-0.938,1.116-0.869l34.924,4.354c0.548,0.068,0.937,0.568,0.868,1.116C220.139,170.952,219.707,171.322,219.21,171.322z"
						/>
				</g>
				<path fill="#FFFFFF" d="M227.665,172.376c-0.041,0-0.083-0.002-0.125-0.008l-4.677-0.583c-0.548-0.068-0.937-0.568-0.868-1.116
					c0.067-0.548,0.563-0.939,1.116-0.869l4.677,0.583c0.548,0.068,0.937,0.568,0.868,1.116
					C228.594,172.006,228.162,172.376,227.665,172.376z"/>
				<g>
					<line fill="#FFFFFF" x1="183.148" y1="175.082" x2="195.981" y2="176.682"/>
					<path fill="#233863" d="M195.982,177.682c-0.041,0-0.083-0.002-0.125-0.008l-12.833-1.6c-0.548-0.068-0.937-0.568-0.868-1.116
						c0.067-0.548,0.57-0.937,1.116-0.869l12.833,1.6c0.548,0.068,0.937,0.568,0.868,1.116
						C196.911,177.312,196.479,177.682,195.982,177.682z"/>
				</g>
				<g>
					<line fill="#FFFFFF" x1="201.522" y1="177.373" x2="226.527" y2="180.491"/>
					<path fill="#233863" d="M226.528,181.491c-0.041,0-0.083-0.002-0.125-0.008l-25.005-3.118
						c-0.548-0.068-0.937-0.568-0.868-1.116c0.067-0.548,0.567-0.941,1.116-0.869l25.005,3.118c0.548,0.068,0.937,0.568,0.868,1.116
						C227.457,181.121,227.025,181.491,226.528,181.491z"/>
				</g>
				<g>
					<line fill="#FFFFFF" x1="181.48" y1="188.466" x2="209.64" y2="191.978"/>
					<path fill="#233863" d="M209.641,192.978c-0.041,0-0.083-0.002-0.125-0.008l-28.159-3.511
						c-0.548-0.068-0.937-0.568-0.868-1.116c0.068-0.548,0.56-0.939,1.116-0.869l28.159,3.511c0.548,0.068,0.937,0.568,0.868,1.116
						C210.569,192.607,210.138,192.978,209.641,192.978z"/>
				</g>
				<g>
					<line fill="#FFFFFF" x1="210.273" y1="205.064" x2="223.262" y2="206.684"/>
					<path fill="#233863" d="M223.264,208.184c-0.062,0-0.124-0.004-0.188-0.012l-12.988-1.619
						c-0.822-0.102-1.405-0.852-1.303-1.674s0.84-1.407,1.674-1.303l12.988,1.619c0.822,0.102,1.405,0.852,1.303,1.674
						C224.655,207.628,224.009,208.184,223.264,208.184z"/>
				</g>
			</g>
		</g>
	</g>
	<g>
		<g>
			<g>
				<path fill="#3D85FD" d="M345.723,293.2l-161.33,38.947c-5.082,1.228-10.196-1.898-11.424-6.98L147.297,218.83
					c-1.227-5.082,1.898-10.197,6.98-11.424l161.33-38.948c5.082-1.227,10.196,1.898,11.424,6.98l25.672,106.338
					C353.93,286.858,350.805,291.973,345.723,293.2z"/>
				<path fill="#233863" d="M182.15,333.916c-1.993,0-3.953-0.547-5.697-1.612c-2.499-1.527-4.255-3.937-4.942-6.784
					l-25.672-106.338c-1.419-5.878,2.209-11.815,8.087-13.234L315.256,167c5.874-1.42,11.813,2.208,13.233,8.086l25.672,106.338
					c1.419,5.877-2.209,11.813-8.086,13.233c0,0,0,0-0.001,0l-161.33,38.947C183.884,333.813,183.014,333.916,182.15,333.916z
					 M317.829,169.693c-0.617,0-1.244,0.072-1.87,0.223l-161.33,38.948c-4.27,1.031-6.904,5.344-5.874,9.614l25.672,106.338
					c0.5,2.068,1.774,3.818,3.591,4.929c1.816,1.108,3.957,1.446,6.022,0.945l161.331-38.947h-0.001
					c4.271-1.031,6.905-5.344,5.875-9.614l-25.672-106.337C324.693,172.146,321.423,169.693,317.829,169.693z M345.723,293.2h0.01
					H345.723z"/>
			</g>
			<path opacity="0.36" fill="#233863" d="M296.322,171.377l-47.407,11.558l11.02,45.199c1.43,5.864-3.583,12.122-11.195,13.978
				h-0.001c-14.455,3.524-23.973,15.407-21.258,26.542l0,0c1.148,4.711-2.879,9.739-8.996,11.23l0,0
				c-17.073,4.162-28.314,18.197-25.109,31.349l4.339,17.797l144.835-35.31c7.16-1.746,11.55-8.965,9.804-16.125l-24.01-98.484
				c-1.975-8.101-10.143-13.066-18.243-11.092L296.322,171.377z"/>
			<g>
				<path fill="#233863" d="M209.289,272.442l-21.911,5.342c-0.548,0.134-1.101-0.202-1.234-0.751l-1.118-4.586
					c-0.134-0.549,0.202-1.102,0.75-1.234l21.912-5.343c0.548-0.134,1.101,0.203,1.234,0.751l1.118,4.587
					C210.174,271.756,209.838,272.309,209.289,272.442z"/>
				<path fill="#233863" d="M237.368,265.597l-21.911,5.342c-0.549,0.134-1.102-0.202-1.235-0.75l-1.118-4.587
					c-0.133-0.548,0.203-1.101,0.751-1.234l21.911-5.342c0.549-0.134,1.102,0.202,1.235,0.75l1.118,4.587
					C238.252,264.91,237.916,265.463,237.368,265.597z"/>
				<path fill="#233863" d="M264.85,258.896l-21.912,5.343c-0.548,0.133-1.101-0.203-1.234-0.751l-1.118-4.587
					c-0.134-0.548,0.202-1.101,0.751-1.234l21.911-5.342c0.549-0.134,1.102,0.202,1.235,0.751l1.118,4.586
					C265.734,258.211,265.397,258.764,264.85,258.896z"/>
				<path fill="#233863" d="M292.331,252.197l-21.912,5.342c-0.548,0.134-1.101-0.202-1.234-0.751l-1.118-4.586
					c-0.134-0.549,0.203-1.101,0.751-1.235l21.911-5.342c0.549-0.134,1.102,0.203,1.234,0.75l1.118,4.586
					C293.215,251.511,292.879,252.063,292.331,252.197z"/>
				<path fill="#FFFFFF" d="M208.569,288.707l-18.037,4.397c-0.549,0.134-1.102-0.202-1.234-0.75l-0.552-2.263
					c-0.134-0.548,0.202-1.101,0.75-1.234l18.038-4.397c0.548-0.134,1.101,0.202,1.234,0.751l0.552,2.262
					C209.453,288.021,209.117,288.573,208.569,288.707z"/>
				<path fill="#FFFFFF" d="M312.941,188.295l-18.317,3.021c-0.557,0.092-1.083-0.285-1.175-0.842l-0.379-2.297
					c-0.092-0.557,0.285-1.083,0.842-1.174l18.318-3.021c0.557-0.092,1.083,0.285,1.174,0.842l0.379,2.297
					C313.875,187.677,313.498,188.203,312.941,188.295z"/>
				<path fill="#FFFFFF" d="M245.907,206.09l-72.444,17.662c-0.737,0.18-1.48-0.272-1.661-1.01l-0.742-3.044
					c-0.18-0.738,0.272-1.481,1.011-1.661l72.443-17.661c0.737-0.18,1.481,0.272,1.661,1.01l0.742,3.044
					C247.097,205.167,246.645,205.911,245.907,206.09z"/>
				<path fill="#FFFFFF" d="M234.126,282.364l-18.037,4.397c-0.548,0.133-1.101-0.203-1.234-0.751l-0.552-2.262
					c-0.134-0.549,0.202-1.102,0.751-1.234l18.037-4.397c0.548-0.134,1.101,0.202,1.234,0.75l0.552,2.263
					C235.011,281.678,234.674,282.23,234.126,282.364z"/>
				<path fill="#FFFFFF" d="M259.054,276.484l-18.037,4.397c-0.549,0.134-1.101-0.202-1.234-0.751l-0.552-2.262
					c-0.134-0.548,0.202-1.101,0.751-1.234l18.037-4.397c0.548-0.134,1.101,0.202,1.234,0.75l0.552,2.263
					C259.938,275.798,259.602,276.351,259.054,276.484z"/>
				<path fill="#FFB44F" d="M211.151,301.893l-18.038,4.397c-0.548,0.134-1.101-0.202-1.234-0.751l-0.551-2.262
					c-0.134-0.548,0.202-1.101,0.75-1.234l18.037-4.397c0.549-0.134,1.102,0.202,1.235,0.75l0.551,2.263
					C212.035,301.206,211.699,301.759,211.151,301.893z"/>
			</g>
			<g>
				<g>
					<path fill="#FFB44F" d="M210.993,252.673l-26.376,6.368c-1.459,0.352-2.928-0.546-3.28-2.005l-1.916-7.936l-1.76-7.291
						c-0.353-1.459,0.545-2.928,2.004-3.28l26.377-6.368c1.459-0.353,2.928,0.545,3.28,2.004l3.676,15.226
						C213.351,250.852,212.453,252.32,210.993,252.673z"/>
					<g>
						<g>
							<line fill="#FFB44F" x1="177.777" y1="249.625" x2="211.032" y2="241.249"/>
							<path fill="#3D85FD" d="M177.777,251.125c-0.671,0-1.282-0.454-1.453-1.134c-0.203-0.803,0.284-1.619,1.088-1.821
								l33.254-8.376c0.804-0.201,1.619,0.285,1.82,1.088c0.203,0.803-0.284,1.619-1.088,1.821l-33.254,8.376
								C178.021,251.11,177.898,251.125,177.777,251.125z"/>
						</g>
					</g>
				</g>
				<g>
					<circle fill="#FFB44F" cx="195.002" cy="245.322" r="5.067"/>
					<path fill="#3D85FD" d="M194.998,251.889c-3.34,0-6.205-2.546-6.532-5.937c-0.168-1.746,0.354-3.453,1.47-4.807
						c1.115-1.354,2.691-2.191,4.438-2.359c3.601-0.348,6.818,2.302,7.166,5.906c0.348,3.604-2.303,6.819-5.907,7.167
						C195.42,251.879,195.208,251.889,194.998,251.889z M195.009,241.755c-0.115,0-0.231,0.006-0.349,0.017
						c-0.948,0.091-1.804,0.546-2.41,1.281c-0.605,0.735-0.89,1.662-0.798,2.61c0.188,1.958,1.927,3.399,3.893,3.208
						c0.948-0.091,1.804-0.547,2.41-1.282c0.605-0.735,0.89-1.662,0.798-2.61s-0.547-1.804-1.282-2.41
						C196.626,242.039,195.834,241.755,195.009,241.755z"/>
				</g>
			</g>
			<g>
				<path fill="#FFFFFF" d="M311.965,275.804c-0.783-2.759-0.296-5.57,1.099-7.834c-2.12-1.065-4.626-1.381-7.089-0.683
					c-5.222,1.481-8.254,6.915-6.773,12.138c1.481,5.222,6.916,8.254,12.138,6.772c2.463-0.698,4.43-2.282,5.675-4.303
					C314.639,280.701,312.747,278.563,311.965,275.804z"/>
				<path fill="#FFB44F" d="M322.089,262.754c-2.463,0.699-4.43,2.283-5.675,4.303c-1.395,2.264-1.881,5.076-1.099,7.835
					c0.783,2.759,2.674,4.896,5.049,6.09c2.12,1.066,4.626,1.382,7.089,0.683c5.222-1.48,8.254-6.915,6.773-12.137
					C332.745,264.306,327.311,261.273,322.089,262.754z"/>
			</g>
		</g>
	</g>
	<g>
		<g>
			<g>
				<path fill="#233863" d="M328.763,88.994c0.117-0.24,0.304-0.449,0.551-0.596l16.284-9.632c0.674-0.398,1.543-0.174,1.941,0.498
					c0.396,0.676,0.17,1.542-0.498,1.941l-16.285,9.632c-0.674,0.398-1.542,0.174-1.941-0.499
					C328.563,89.912,328.561,89.407,328.763,88.994z"/>
				<path fill="#233863" d="M317.688,86.386c-0.021-0.19-0.006-0.388,0.055-0.583l7.846-25.167c0.232-0.747,1.025-1.164,1.772-0.93
					c0.746,0.232,1.165,1.027,0.931,1.773l-7.845,25.167c-0.232,0.747-1.026,1.164-1.773,0.93
					C318.121,87.404,317.75,86.925,317.688,86.386z"/>
				<path fill="#233863" d="M290.528,62.798c-0.313-0.679-0.045-1.492,0.624-1.846c0.691-0.365,1.549-0.102,1.914,0.59
					l13.415,25.377c0.354,0.717,0.101,1.55-0.591,1.915c-0.691,0.365-1.549,0.102-1.914-0.59l-13.414-25.378
					C290.551,62.844,290.539,62.821,290.528,62.798z"/>
			</g>
			<g>
				<path fill="#233863" d="M250.406,397.921c-0.122,0.196-0.302,0.36-0.526,0.464l-14.879,6.836
					c-0.615,0.283-1.344,0.013-1.626-0.602c-0.282-0.617-0.01-1.343,0.602-1.627l14.879-6.836c0.615-0.282,1.343-0.012,1.626,0.603
					C250.66,397.148,250.617,397.583,250.406,397.921z"/>
				<path fill="#233863" d="M259.707,401.155c0.002,0.166-0.029,0.335-0.1,0.497l-9.001,20.963c-0.267,0.622-0.987,0.91-1.609,0.643
					c-0.622-0.267-0.911-0.988-0.643-1.609l9.001-20.964c0.267-0.622,0.987-0.909,1.609-0.642
					C259.425,400.24,259.702,400.686,259.707,401.155z"/>
				<path fill="#233863" d="M280.979,423.886c0.21,0.612-0.095,1.288-0.701,1.533c-0.628,0.253-1.343-0.051-1.596-0.679
					l-9.28-23.044c-0.241-0.648,0.052-1.343,0.679-1.595c0.628-0.253,1.343,0.051,1.596,0.679l9.28,23.044
					C280.964,423.845,280.972,423.865,280.979,423.886z"/>
			</g>
		</g>
		<g>
			<g>
				<path fill="#FFB44F" d="M94.736,251.744l-0.675-17.213l29.642,27.561l-27.391,29.799l-0.676-17.211
					c0,0-25.58-5.135-41.732,24.618c0,0-5.188-22.023,13.507-38.856C67.411,260.441,75.84,251.914,94.736,251.744L94.736,251.744z
					 M94.736,251.744"/>
				<path fill="#233863" d="M53.904,300.798c-0.065,0-0.132-0.004-0.199-0.014c-0.616-0.082-1.118-0.537-1.261-1.143
					c-0.054-0.229-5.171-23.087,13.963-40.314c0.291-0.298,8.556-8.449,26.771-9.051l-0.615-15.687
					c-0.023-0.607,0.321-1.168,0.873-1.422c0.551-0.252,1.203-0.148,1.647,0.265l29.642,27.561c0.604,0.562,0.642,1.506,0.083,2.113
					l-27.391,29.799c-0.412,0.449-1.052,0.603-1.622,0.394c-0.57-0.21-0.957-0.742-0.981-1.35l-0.627-15.969
					c-5.076-0.579-25.296-1.144-38.964,24.033C54.958,300.501,54.449,300.798,53.904,300.798z M95.703,238.105l0.532,13.58
					c0.016,0.405-0.133,0.8-0.413,1.094c-0.28,0.293-0.667,0.461-1.072,0.465c-18.069,0.162-26.192,8.171-26.272,8.252
					c-13.036,11.74-14.05,26.207-13.63,33.232c16.546-26.09,40.828-21.571,41.084-21.52c0.68,0.137,1.177,0.72,1.204,1.412
					l0.533,13.577l23.921-26.023L95.703,238.105z"/>
			</g>
			<g>
				<path fill="#FFB44F" d="M397.812,310.7l-0.479,17.22l-27.729-29.483l29.324-27.897l-0.479,17.217c0,0,25.18,6.836,43.287-21.769
					c0,0,3.703,22.321-16.077,37.865C425.659,303.853,416.678,311.796,397.812,310.7L397.812,310.7z M397.812,310.7"/>
				<path fill="#233863" d="M397.333,329.42c-0.406,0-0.804-0.165-1.093-0.473l-27.729-29.483c-0.565-0.601-0.539-1.546,0.059-2.114
					l29.324-27.897c0.441-0.418,1.09-0.531,1.645-0.283c0.555,0.247,0.906,0.805,0.889,1.412l-0.443,15.974
					c5.024,0.921,25.162,2.834,40.486-21.37c0.332-0.524,0.952-0.793,1.565-0.667c0.61,0.123,1.08,0.61,1.182,1.225
					c0.039,0.231,3.613,23.381-16.631,39.29c-0.31,0.277-9.098,7.857-27.317,7.236l-0.437,15.693
					c-0.017,0.606-0.397,1.144-0.966,1.36C397.692,329.388,397.512,329.42,397.333,329.42z M371.718,298.495l24.217,25.748
					l0.378-13.585c0.011-0.405,0.186-0.789,0.484-1.063c0.3-0.273,0.7-0.416,1.102-0.392c17.939,1.03,26.685-6.402,26.771-6.478
					c13.833-10.872,15.792-25.229,15.83-32.255c-18.257,24.935-42.193,18.802-42.442,18.732c-0.669-0.181-1.126-0.797-1.106-1.489
					l0.377-13.582L371.718,298.495z"/>
			</g>
		</g>
	</g>
</g>
<g id="DESIGNED_BY_FREEPIK">
</g>
</svg>
